G04 #@! TF.GenerationSoftware,KiCad,Pcbnew,(5.0.0)*
G04 #@! TF.CreationDate,2019-10-17T23:20:27+01:00*
G04 #@! TF.ProjectId,dataVideo_interface,64617461566964656F5F696E74657266,rev?*
G04 #@! TF.SameCoordinates,Original*
G04 #@! TF.FileFunction,Copper,L1,Top,Signal*
G04 #@! TF.FilePolarity,Positive*
%FSLAX46Y46*%
G04 Gerber Fmt 4.6, Leading zero omitted, Abs format (unit mm)*
G04 Created by KiCad (PCBNEW (5.0.0)) date 10/17/19 23:20:27*
%MOMM*%
%LPD*%
G01*
G04 APERTURE LIST*
G04 #@! TA.AperFunction,ComponentPad*
%ADD10R,1.350000X1.350000*%
G04 #@! TD*
G04 #@! TA.AperFunction,ComponentPad*
%ADD11O,1.350000X1.350000*%
G04 #@! TD*
G04 #@! TA.AperFunction,ComponentPad*
%ADD12R,1.700000X1.700000*%
G04 #@! TD*
G04 #@! TA.AperFunction,ComponentPad*
%ADD13O,1.700000X1.700000*%
G04 #@! TD*
G04 #@! TA.AperFunction,Conductor*
%ADD14C,0.250000*%
G04 #@! TD*
G04 #@! TA.AperFunction,NonConductor*
%ADD15C,0.254000*%
G04 #@! TD*
G04 APERTURE END LIST*
D10*
G04 #@! TO.P,J1,1*
G04 #@! TO.N,1*
X118110000Y-93980000D03*
D11*
G04 #@! TO.P,J1,2*
G04 #@! TO.N,2*
X120110000Y-93980000D03*
G04 #@! TO.P,J1,3*
G04 #@! TO.N,3*
X118110000Y-95980000D03*
G04 #@! TO.P,J1,4*
G04 #@! TO.N,4*
X120110000Y-95980000D03*
G04 #@! TO.P,J1,5*
G04 #@! TO.N,5*
X118110000Y-97980000D03*
G04 #@! TO.P,J1,6*
G04 #@! TO.N,6*
X120110000Y-97980000D03*
G04 #@! TO.P,J1,7*
G04 #@! TO.N,7*
X118110000Y-99980000D03*
G04 #@! TO.P,J1,8*
G04 #@! TO.N,8*
X120110000Y-99980000D03*
G04 #@! TO.P,J1,9*
G04 #@! TO.N,9*
X118110000Y-101980000D03*
G04 #@! TO.P,J1,10*
G04 #@! TO.N,10*
X120110000Y-101980000D03*
G04 #@! TO.P,J1,11*
G04 #@! TO.N,11*
X118110000Y-103980000D03*
G04 #@! TO.P,J1,12*
G04 #@! TO.N,12*
X120110000Y-103980000D03*
G04 #@! TO.P,J1,13*
G04 #@! TO.N,13*
X118110000Y-105980000D03*
G04 #@! TO.P,J1,14*
G04 #@! TO.N,14*
X120110000Y-105980000D03*
G04 #@! TO.P,J1,15*
G04 #@! TO.N,15*
X118110000Y-107980000D03*
G04 #@! TO.P,J1,16*
G04 #@! TO.N,16*
X120110000Y-107980000D03*
G04 #@! TO.P,J1,17*
G04 #@! TO.N,17*
X118110000Y-109980000D03*
G04 #@! TO.P,J1,18*
G04 #@! TO.N,18*
X120110000Y-109980000D03*
G04 #@! TO.P,J1,19*
G04 #@! TO.N,19*
X118110000Y-111980000D03*
G04 #@! TO.P,J1,20*
G04 #@! TO.N,20*
X120110000Y-111980000D03*
G04 #@! TO.P,J1,21*
G04 #@! TO.N,21*
X118110000Y-113980000D03*
G04 #@! TO.P,J1,22*
G04 #@! TO.N,22*
X120110000Y-113980000D03*
G04 #@! TO.P,J1,23*
G04 #@! TO.N,23*
X118110000Y-115980000D03*
G04 #@! TO.P,J1,24*
G04 #@! TO.N,24*
X120110000Y-115980000D03*
G04 #@! TO.P,J1,25*
G04 #@! TO.N,25*
X118110000Y-117980000D03*
G04 #@! TO.P,J1,26*
G04 #@! TO.N,26*
X120110000Y-117980000D03*
G04 #@! TO.P,J1,27*
G04 #@! TO.N,27*
X118110000Y-119980000D03*
G04 #@! TO.P,J1,28*
G04 #@! TO.N,28*
X120110000Y-119980000D03*
G04 #@! TO.P,J1,29*
G04 #@! TO.N,29*
X118110000Y-121980000D03*
G04 #@! TO.P,J1,30*
G04 #@! TO.N,30*
X120110000Y-121980000D03*
G04 #@! TO.P,J1,31*
G04 #@! TO.N,31*
X118110000Y-123980000D03*
G04 #@! TO.P,J1,32*
G04 #@! TO.N,32*
X120110000Y-123980000D03*
G04 #@! TO.P,J1,33*
G04 #@! TO.N,33*
X118110000Y-125980000D03*
G04 #@! TO.P,J1,34*
G04 #@! TO.N,34*
X120110000Y-125980000D03*
G04 #@! TO.P,J1,35*
G04 #@! TO.N,35*
X118110000Y-127980000D03*
G04 #@! TO.P,J1,36*
G04 #@! TO.N,36*
X120110000Y-127980000D03*
G04 #@! TO.P,J1,37*
G04 #@! TO.N,37*
X118110000Y-129980000D03*
G04 #@! TO.P,J1,38*
G04 #@! TO.N,38*
X120110000Y-129980000D03*
G04 #@! TO.P,J1,39*
G04 #@! TO.N,39*
X118110000Y-131980000D03*
G04 #@! TO.P,J1,40*
G04 #@! TO.N,40*
X120110000Y-131980000D03*
G04 #@! TO.P,J1,41*
G04 #@! TO.N,41*
X118110000Y-133980000D03*
G04 #@! TO.P,J1,42*
G04 #@! TO.N,42*
X120110000Y-133980000D03*
G04 #@! TO.P,J1,43*
G04 #@! TO.N,43*
X118110000Y-135980000D03*
G04 #@! TO.P,J1,44*
G04 #@! TO.N,44*
X120110000Y-135980000D03*
G04 #@! TO.P,J1,45*
G04 #@! TO.N,45*
X118110000Y-137980000D03*
G04 #@! TO.P,J1,46*
G04 #@! TO.N,46*
X120110000Y-137980000D03*
G04 #@! TO.P,J1,47*
G04 #@! TO.N,47*
X118110000Y-139980000D03*
G04 #@! TO.P,J1,48*
G04 #@! TO.N,48*
X120110000Y-139980000D03*
G04 #@! TO.P,J1,49*
G04 #@! TO.N,49*
X118110000Y-141980000D03*
G04 #@! TO.P,J1,50*
G04 #@! TO.N,50*
X120110000Y-141980000D03*
G04 #@! TD*
D12*
G04 #@! TO.P,J2,1*
G04 #@! TO.N,1*
X138430000Y-87630000D03*
D13*
G04 #@! TO.P,J2,2*
G04 #@! TO.N,2*
X135890000Y-87630000D03*
G04 #@! TO.P,J2,3*
G04 #@! TO.N,3*
X138430000Y-90170000D03*
G04 #@! TO.P,J2,4*
G04 #@! TO.N,4*
X135890000Y-90170000D03*
G04 #@! TO.P,J2,5*
G04 #@! TO.N,5*
X138430000Y-92710000D03*
G04 #@! TO.P,J2,6*
G04 #@! TO.N,6*
X135890000Y-92710000D03*
G04 #@! TO.P,J2,7*
G04 #@! TO.N,7*
X138430000Y-95250000D03*
G04 #@! TO.P,J2,8*
G04 #@! TO.N,8*
X135890000Y-95250000D03*
G04 #@! TO.P,J2,9*
G04 #@! TO.N,9*
X138430000Y-97790000D03*
G04 #@! TO.P,J2,10*
G04 #@! TO.N,10*
X135890000Y-97790000D03*
G04 #@! TO.P,J2,11*
G04 #@! TO.N,11*
X138430000Y-100330000D03*
G04 #@! TO.P,J2,12*
G04 #@! TO.N,12*
X135890000Y-100330000D03*
G04 #@! TO.P,J2,13*
G04 #@! TO.N,13*
X138430000Y-102870000D03*
G04 #@! TO.P,J2,14*
G04 #@! TO.N,14*
X135890000Y-102870000D03*
G04 #@! TO.P,J2,15*
G04 #@! TO.N,15*
X138430000Y-105410000D03*
G04 #@! TO.P,J2,16*
G04 #@! TO.N,16*
X135890000Y-105410000D03*
G04 #@! TO.P,J2,17*
G04 #@! TO.N,17*
X138430000Y-107950000D03*
G04 #@! TO.P,J2,18*
G04 #@! TO.N,18*
X135890000Y-107950000D03*
G04 #@! TO.P,J2,19*
G04 #@! TO.N,19*
X138430000Y-110490000D03*
G04 #@! TO.P,J2,20*
G04 #@! TO.N,20*
X135890000Y-110490000D03*
G04 #@! TO.P,J2,21*
G04 #@! TO.N,21*
X138430000Y-113030000D03*
G04 #@! TO.P,J2,22*
G04 #@! TO.N,22*
X135890000Y-113030000D03*
G04 #@! TO.P,J2,23*
G04 #@! TO.N,23*
X138430000Y-115570000D03*
G04 #@! TO.P,J2,24*
G04 #@! TO.N,24*
X135890000Y-115570000D03*
G04 #@! TO.P,J2,25*
G04 #@! TO.N,25*
X138430000Y-118110000D03*
G04 #@! TO.P,J2,26*
G04 #@! TO.N,26*
X135890000Y-118110000D03*
G04 #@! TO.P,J2,27*
G04 #@! TO.N,27*
X138430000Y-120650000D03*
G04 #@! TO.P,J2,28*
G04 #@! TO.N,28*
X135890000Y-120650000D03*
G04 #@! TO.P,J2,29*
G04 #@! TO.N,29*
X138430000Y-123190000D03*
G04 #@! TO.P,J2,30*
G04 #@! TO.N,30*
X135890000Y-123190000D03*
G04 #@! TO.P,J2,31*
G04 #@! TO.N,31*
X138430000Y-125730000D03*
G04 #@! TO.P,J2,32*
G04 #@! TO.N,32*
X135890000Y-125730000D03*
G04 #@! TO.P,J2,33*
G04 #@! TO.N,33*
X138430000Y-128270000D03*
G04 #@! TO.P,J2,34*
G04 #@! TO.N,34*
X135890000Y-128270000D03*
G04 #@! TO.P,J2,35*
G04 #@! TO.N,35*
X138430000Y-130810000D03*
G04 #@! TO.P,J2,36*
G04 #@! TO.N,36*
X135890000Y-130810000D03*
G04 #@! TO.P,J2,37*
G04 #@! TO.N,37*
X138430000Y-133350000D03*
G04 #@! TO.P,J2,38*
G04 #@! TO.N,38*
X135890000Y-133350000D03*
G04 #@! TO.P,J2,39*
G04 #@! TO.N,39*
X138430000Y-135890000D03*
G04 #@! TO.P,J2,40*
G04 #@! TO.N,40*
X135890000Y-135890000D03*
G04 #@! TO.P,J2,41*
G04 #@! TO.N,41*
X138430000Y-138430000D03*
G04 #@! TO.P,J2,42*
G04 #@! TO.N,42*
X135890000Y-138430000D03*
G04 #@! TO.P,J2,43*
G04 #@! TO.N,43*
X138430000Y-140970000D03*
G04 #@! TO.P,J2,44*
G04 #@! TO.N,44*
X135890000Y-140970000D03*
G04 #@! TO.P,J2,45*
G04 #@! TO.N,45*
X138430000Y-143510000D03*
G04 #@! TO.P,J2,46*
G04 #@! TO.N,46*
X135890000Y-143510000D03*
G04 #@! TO.P,J2,47*
G04 #@! TO.N,47*
X138430000Y-146050000D03*
G04 #@! TO.P,J2,48*
G04 #@! TO.N,48*
X135890000Y-146050000D03*
G04 #@! TO.P,J2,49*
G04 #@! TO.N,49*
X138430000Y-148590000D03*
G04 #@! TO.P,J2,50*
G04 #@! TO.N,50*
X135890000Y-148590000D03*
G04 #@! TD*
D14*
G04 #@! TO.N,1*
X118110000Y-93980000D02*
X118110000Y-93959680D01*
X118110000Y-93959680D02*
X119537480Y-92532200D01*
X119537480Y-92532200D02*
X128869440Y-92532200D01*
X138430000Y-86530000D02*
X138430000Y-87630000D01*
X138354999Y-86454999D02*
X138430000Y-86530000D01*
X134946641Y-86454999D02*
X138354999Y-86454999D01*
X128869440Y-92532200D02*
X134946641Y-86454999D01*
G04 #@! TO.N,2*
X129540000Y-93980000D02*
X135890000Y-87630000D01*
X120110000Y-93980000D02*
X129540000Y-93980000D01*
G04 #@! TO.N,3*
X137580001Y-89320001D02*
X138430000Y-90170000D01*
X137254999Y-88994999D02*
X137580001Y-89320001D01*
X135325999Y-88994999D02*
X137254999Y-88994999D01*
X129340998Y-94980000D02*
X135325999Y-88994999D01*
X119110000Y-94980000D02*
X129340998Y-94980000D01*
X118110000Y-95980000D02*
X119110000Y-94980000D01*
G04 #@! TO.N,4*
X121064594Y-95980000D02*
X121068154Y-95976440D01*
X120110000Y-95980000D02*
X121064594Y-95980000D01*
X130083560Y-95976440D02*
X135890000Y-90170000D01*
X121068154Y-95976440D02*
X130083560Y-95976440D01*
G04 #@! TO.N,5*
X135210690Y-91485720D02*
X129632850Y-97063560D01*
X136404722Y-91485720D02*
X135210690Y-91485720D01*
X138430000Y-92710000D02*
X137629002Y-92710000D01*
X137629002Y-92710000D02*
X136404722Y-91485720D01*
X118784999Y-97305001D02*
X118110000Y-97980000D01*
X119110000Y-96980000D02*
X118784999Y-97305001D01*
X129549290Y-96980000D02*
X119110000Y-96980000D01*
X129632850Y-97063560D02*
X129549290Y-96980000D01*
G04 #@! TO.N,6*
X121064594Y-97980000D02*
X121204794Y-98120200D01*
X120110000Y-97980000D02*
X121064594Y-97980000D01*
X130479800Y-98120200D02*
X135890000Y-92710000D01*
X121204794Y-98120200D02*
X130479800Y-98120200D01*
G04 #@! TO.N,7*
X137580001Y-94400001D02*
X138430000Y-95250000D01*
X137254999Y-94074999D02*
X137580001Y-94400001D01*
X135325999Y-94074999D02*
X137254999Y-94074999D01*
X130420998Y-98980000D02*
X135325999Y-94074999D01*
X119110000Y-98980000D02*
X130420998Y-98980000D01*
X118110000Y-99980000D02*
X119110000Y-98980000D01*
G04 #@! TO.N,8*
X121064594Y-99980000D02*
X121075274Y-99969320D01*
X120110000Y-99980000D02*
X121064594Y-99980000D01*
X131170680Y-99969320D02*
X135890000Y-95250000D01*
X121075274Y-99969320D02*
X131170680Y-99969320D01*
G04 #@! TO.N,9*
X137175945Y-96535945D02*
X138430000Y-97790000D01*
X118110000Y-101980000D02*
X119110000Y-100980000D01*
X119110000Y-100980000D02*
X122209800Y-100980000D01*
X122209800Y-100980000D02*
X122592202Y-100597598D01*
X122592202Y-100597598D02*
X131343400Y-100597598D01*
X131343400Y-100597598D02*
X135405053Y-96535945D01*
X135405053Y-96535945D02*
X137175945Y-96535945D01*
G04 #@! TO.N,10*
X121064594Y-101980000D02*
X121510634Y-101533960D01*
X120110000Y-101980000D02*
X121064594Y-101980000D01*
X132146040Y-101533960D02*
X135890000Y-97790000D01*
X121510634Y-101533960D02*
X132146040Y-101533960D01*
G04 #@! TO.N,11*
X137580001Y-99480001D02*
X138430000Y-100330000D01*
X137254999Y-99154999D02*
X137580001Y-99480001D01*
X135325999Y-99154999D02*
X137254999Y-99154999D01*
X131500998Y-102980000D02*
X135325999Y-99154999D01*
X119110000Y-102980000D02*
X131500998Y-102980000D01*
X118110000Y-103980000D02*
X119110000Y-102980000D01*
G04 #@! TO.N,12*
X121064594Y-103980000D02*
X121133194Y-103911400D01*
X120110000Y-103980000D02*
X121064594Y-103980000D01*
X132308600Y-103911400D02*
X135890000Y-100330000D01*
X121133194Y-103911400D02*
X132308600Y-103911400D01*
G04 #@! TO.N,13*
X137580001Y-102020001D02*
X138430000Y-102870000D01*
X137254999Y-101694999D02*
X137580001Y-102020001D01*
X135325999Y-101694999D02*
X137254999Y-101694999D01*
X132040998Y-104980000D02*
X135325999Y-101694999D01*
X119110000Y-104980000D02*
X132040998Y-104980000D01*
X118110000Y-105980000D02*
X119110000Y-104980000D01*
G04 #@! TO.N,14*
X121064594Y-105980000D02*
X121114354Y-106029760D01*
X120110000Y-105980000D02*
X121064594Y-105980000D01*
X132730240Y-106029760D02*
X135890000Y-102870000D01*
X121114354Y-106029760D02*
X132730240Y-106029760D01*
G04 #@! TO.N,15*
X137580001Y-104560001D02*
X138430000Y-105410000D01*
X137254999Y-104234999D02*
X137580001Y-104560001D01*
X135325999Y-104234999D02*
X137254999Y-104234999D01*
X132580998Y-106980000D02*
X135325999Y-104234999D01*
X119110000Y-106980000D02*
X132580998Y-106980000D01*
X118110000Y-107980000D02*
X119110000Y-106980000D01*
G04 #@! TO.N,16*
X121064594Y-107980000D02*
X121500994Y-107543600D01*
X120110000Y-107980000D02*
X121064594Y-107980000D01*
X133756400Y-107543600D02*
X135890000Y-105410000D01*
X121500994Y-107543600D02*
X133756400Y-107543600D01*
G04 #@! TO.N,17*
X137580001Y-107100001D02*
X138430000Y-107950000D01*
X137254999Y-106774999D02*
X137580001Y-107100001D01*
X135325999Y-106774999D02*
X137254999Y-106774999D01*
X133120998Y-108980000D02*
X135325999Y-106774999D01*
X119110000Y-108980000D02*
X133120998Y-108980000D01*
X118110000Y-109980000D02*
X119110000Y-108980000D01*
G04 #@! TO.N,18*
X121064594Y-109980000D02*
X121198674Y-110114080D01*
X120110000Y-109980000D02*
X121064594Y-109980000D01*
X133725920Y-110114080D02*
X135890000Y-107950000D01*
X121198674Y-110114080D02*
X133725920Y-110114080D01*
G04 #@! TO.N,19*
X135175130Y-109301280D02*
X133539370Y-110937040D01*
X138430000Y-110490000D02*
X137241280Y-109301280D01*
X137241280Y-109301280D02*
X135175130Y-109301280D01*
X118784999Y-111305001D02*
X118808839Y-111305001D01*
X118110000Y-111980000D02*
X118784999Y-111305001D01*
X119156480Y-110957360D02*
X119607358Y-110957360D01*
X118808839Y-111305001D02*
X119156480Y-110957360D01*
X133539370Y-110937040D02*
X119607358Y-110957360D01*
X119607358Y-110957360D02*
X121371360Y-110937040D01*
G04 #@! TO.N,20*
X121064594Y-111980000D02*
X121291634Y-112207040D01*
X120110000Y-111980000D02*
X121064594Y-111980000D01*
X134172960Y-112207040D02*
X135890000Y-110490000D01*
X121291634Y-112207040D02*
X134172960Y-112207040D01*
G04 #@! TO.N,21*
X135161411Y-111854999D02*
X133676530Y-113339880D01*
X138430000Y-113030000D02*
X137254999Y-111854999D01*
X137254999Y-111854999D02*
X135161411Y-111854999D01*
X127259080Y-113339880D02*
X126898400Y-112979200D01*
X133676530Y-113339880D02*
X127259080Y-113339880D01*
X118784999Y-113305001D02*
X118784999Y-113254161D01*
X118110000Y-113980000D02*
X118784999Y-113305001D01*
X119105680Y-112933480D02*
X119583478Y-112933480D01*
X118784999Y-113254161D02*
X119105680Y-112933480D01*
X126898400Y-112979200D02*
X119583478Y-112933480D01*
X119583478Y-112933480D02*
X121732040Y-112979200D01*
G04 #@! TO.N,22*
X134940000Y-113980000D02*
X135890000Y-113030000D01*
X120110000Y-113980000D02*
X134940000Y-113980000D01*
G04 #@! TO.N,23*
X137580001Y-114720001D02*
X138430000Y-115570000D01*
X137254999Y-114394999D02*
X137580001Y-114720001D01*
X135325999Y-114394999D02*
X137254999Y-114394999D01*
X134740998Y-114980000D02*
X135325999Y-114394999D01*
X119110000Y-114980000D02*
X134740998Y-114980000D01*
X118110000Y-115980000D02*
X119110000Y-114980000D01*
G04 #@! TO.N,24*
X135480000Y-115980000D02*
X135890000Y-115570000D01*
X120110000Y-115980000D02*
X135480000Y-115980000D01*
G04 #@! TO.N,25*
X137580001Y-117260001D02*
X138430000Y-118110000D01*
X137254999Y-116934999D02*
X137580001Y-117260001D01*
X135325999Y-116934999D02*
X137254999Y-116934999D01*
X135280998Y-116980000D02*
X135325999Y-116934999D01*
X119110000Y-116980000D02*
X135280998Y-116980000D01*
X118110000Y-117980000D02*
X119110000Y-116980000D01*
G04 #@! TO.N,26*
X135760000Y-117980000D02*
X135890000Y-118110000D01*
X120110000Y-117980000D02*
X135760000Y-117980000D01*
G04 #@! TO.N,27*
X119110000Y-118980000D02*
X123562160Y-118980000D01*
X118110000Y-119980000D02*
X119110000Y-118980000D01*
X137580001Y-119800001D02*
X138430000Y-120650000D01*
X137254999Y-119474999D02*
X137580001Y-119800001D01*
X124057159Y-119474999D02*
X137254999Y-119474999D01*
X123562160Y-118980000D02*
X124057159Y-119474999D01*
G04 #@! TO.N,28*
X120110000Y-119980000D02*
X127600000Y-119980000D01*
X128270000Y-120650000D02*
X135890000Y-120650000D01*
X127600000Y-119980000D02*
X128270000Y-120650000D01*
G04 #@! TO.N,29*
X137580001Y-122340001D02*
X138430000Y-123190000D01*
X137254999Y-122014999D02*
X137580001Y-122340001D01*
X128998589Y-122014999D02*
X137254999Y-122014999D01*
X127963590Y-120980000D02*
X128998589Y-122014999D01*
X119110000Y-120980000D02*
X127963590Y-120980000D01*
X118110000Y-121980000D02*
X119110000Y-120980000D01*
G04 #@! TO.N,30*
X120110000Y-121980000D02*
X127060000Y-121980000D01*
X128270000Y-123190000D02*
X135890000Y-123190000D01*
X127060000Y-121980000D02*
X128270000Y-123190000D01*
G04 #@! TO.N,31*
X137580001Y-124880001D02*
X138430000Y-125730000D01*
X137254999Y-124554999D02*
X137580001Y-124880001D01*
X127731409Y-124554999D02*
X137254999Y-124554999D01*
X126156410Y-122980000D02*
X127731409Y-124554999D01*
X119110000Y-122980000D02*
X126156410Y-122980000D01*
X118110000Y-123980000D02*
X119110000Y-122980000D01*
G04 #@! TO.N,32*
X120110000Y-123980000D02*
X126520000Y-123980000D01*
X128270000Y-125730000D02*
X135890000Y-125730000D01*
X126520000Y-123980000D02*
X128270000Y-125730000D01*
G04 #@! TO.N,33*
X119110000Y-126980000D02*
X125710000Y-126980000D01*
X118110000Y-125980000D02*
X119110000Y-126980000D01*
X137580001Y-129119999D02*
X138430000Y-128270000D01*
X137254999Y-129445001D02*
X137580001Y-129119999D01*
X128175001Y-129445001D02*
X137254999Y-129445001D01*
X125710000Y-126980000D02*
X128175001Y-129445001D01*
G04 #@! TO.N,34*
X120110000Y-125980000D02*
X125980000Y-125980000D01*
X128270000Y-128270000D02*
X135890000Y-128270000D01*
X125980000Y-125980000D02*
X128270000Y-128270000D01*
G04 #@! TO.N,35*
X125803590Y-128980000D02*
X128903590Y-132080000D01*
X118110000Y-127980000D02*
X119110000Y-128980000D01*
X119110000Y-128980000D02*
X125803590Y-128980000D01*
X137160000Y-132080000D02*
X138430000Y-130810000D01*
X128903590Y-132080000D02*
X137160000Y-132080000D01*
G04 #@! TO.N,36*
X120110000Y-127980000D02*
X125440000Y-127980000D01*
X128270000Y-130810000D02*
X135890000Y-130810000D01*
X125440000Y-127980000D02*
X128270000Y-130810000D01*
G04 #@! TO.N,37*
X119110000Y-130980000D02*
X123020000Y-130980000D01*
X118110000Y-129980000D02*
X119110000Y-130980000D01*
X123569990Y-131529990D02*
X125179990Y-131529990D01*
X123020000Y-130980000D02*
X123569990Y-131529990D01*
X137580001Y-134199999D02*
X138430000Y-133350000D01*
X137254999Y-134525001D02*
X137580001Y-134199999D01*
X128175001Y-134525001D02*
X137254999Y-134525001D01*
X125179990Y-131529990D02*
X128175001Y-134525001D01*
G04 #@! TO.N,38*
X120110000Y-129980000D02*
X124900000Y-129980000D01*
X124900000Y-129980000D02*
X128270000Y-133350000D01*
X128270000Y-133350000D02*
X135890000Y-133350000D01*
G04 #@! TO.N,39*
X119110000Y-132980000D02*
X124090000Y-132980000D01*
X118110000Y-131980000D02*
X119110000Y-132980000D01*
X137580001Y-136739999D02*
X138430000Y-135890000D01*
X137254999Y-137065001D02*
X137580001Y-136739999D01*
X128175001Y-137065001D02*
X137254999Y-137065001D01*
X124090000Y-132980000D02*
X128175001Y-137065001D01*
G04 #@! TO.N,40*
X120110000Y-131980000D02*
X124360000Y-131980000D01*
X128270000Y-135890000D02*
X135890000Y-135890000D01*
X124360000Y-131980000D02*
X128270000Y-135890000D01*
G04 #@! TO.N,41*
X119110000Y-134980000D02*
X123550000Y-134980000D01*
X118110000Y-133980000D02*
X119110000Y-134980000D01*
X137580001Y-139279999D02*
X138430000Y-138430000D01*
X137254999Y-139605001D02*
X137580001Y-139279999D01*
X128175001Y-139605001D02*
X137254999Y-139605001D01*
X123550000Y-134980000D02*
X128175001Y-139605001D01*
G04 #@! TO.N,42*
X120110000Y-133980000D02*
X123820000Y-133980000D01*
X128270000Y-138430000D02*
X135890000Y-138430000D01*
X123820000Y-133980000D02*
X128270000Y-138430000D01*
G04 #@! TO.N,43*
X119110000Y-136980000D02*
X121740000Y-136980000D01*
X118110000Y-135980000D02*
X119110000Y-136980000D01*
X124013580Y-137529990D02*
X128723590Y-142240000D01*
X121740000Y-136980000D02*
X122289990Y-137529990D01*
X122289990Y-137529990D02*
X124013580Y-137529990D01*
X137160000Y-142240000D02*
X138430000Y-140970000D01*
X128723590Y-142240000D02*
X137160000Y-142240000D01*
G04 #@! TO.N,44*
X120110000Y-135980000D02*
X123100000Y-135980000D01*
X128090000Y-140970000D02*
X135890000Y-140970000D01*
X123100000Y-135980000D02*
X128090000Y-140970000D01*
G04 #@! TO.N,45*
X123103590Y-138980000D02*
X128903590Y-144780000D01*
X118110000Y-137980000D02*
X119110000Y-138980000D01*
X119110000Y-138980000D02*
X123103590Y-138980000D01*
X137160000Y-144780000D02*
X138430000Y-143510000D01*
X128903590Y-144780000D02*
X137160000Y-144780000D01*
G04 #@! TO.N,46*
X120110000Y-137980000D02*
X122740000Y-137980000D01*
X128270000Y-143510000D02*
X135890000Y-143510000D01*
X122740000Y-137980000D02*
X128270000Y-143510000D01*
G04 #@! TO.N,47*
X122563590Y-140980000D02*
X128903590Y-147320000D01*
X118110000Y-139980000D02*
X119110000Y-140980000D01*
X119110000Y-140980000D02*
X122563590Y-140980000D01*
X137160000Y-147320000D02*
X138430000Y-146050000D01*
X128903590Y-147320000D02*
X137160000Y-147320000D01*
G04 #@! TO.N,48*
X120110000Y-139980000D02*
X122200000Y-139980000D01*
X128270000Y-146050000D02*
X135890000Y-146050000D01*
X122200000Y-139980000D02*
X128270000Y-146050000D01*
G04 #@! TO.N,49*
X137580001Y-149439999D02*
X138430000Y-148590000D01*
X137254999Y-149765001D02*
X137580001Y-149439999D01*
X125895001Y-149765001D02*
X137254999Y-149765001D01*
X118110000Y-141980000D02*
X125895001Y-149765001D01*
G04 #@! TO.N,50*
X120110000Y-141980000D02*
X121660000Y-141980000D01*
X128270000Y-148590000D02*
X135890000Y-148590000D01*
X121660000Y-141980000D02*
X128270000Y-148590000D01*
G04 #@! TD*
D15*
G36*
X147105655Y-79744926D02*
X147195225Y-79804774D01*
X147255074Y-79894345D01*
X147265000Y-79944246D01*
X147265001Y-156055749D01*
X147255074Y-156105655D01*
X147195225Y-156195226D01*
X147105655Y-156255074D01*
X146930070Y-156290000D01*
X110069930Y-156290000D01*
X109894345Y-156255074D01*
X109804774Y-156195225D01*
X109744926Y-156105655D01*
X109710000Y-155930070D01*
X109710000Y-152592346D01*
X124757974Y-152592346D01*
X124765000Y-153018390D01*
X124765000Y-153444569D01*
X124772320Y-153462240D01*
X124772635Y-153481363D01*
X125084640Y-154234610D01*
X125094347Y-154239682D01*
X125105259Y-154266026D01*
X125733974Y-154894741D01*
X125760318Y-154905653D01*
X125765390Y-154915360D01*
X126161708Y-155071914D01*
X126555431Y-155235000D01*
X126574560Y-155235000D01*
X126592346Y-155242026D01*
X127018390Y-155235000D01*
X127444569Y-155235000D01*
X127462240Y-155227680D01*
X127481363Y-155227365D01*
X128234610Y-154915360D01*
X128239682Y-154905653D01*
X128266026Y-154894741D01*
X128894741Y-154266026D01*
X128905653Y-154239682D01*
X128915360Y-154234610D01*
X129071914Y-153838292D01*
X129235000Y-153444569D01*
X129235000Y-153425440D01*
X129242026Y-153407654D01*
X129235000Y-152981610D01*
X129235000Y-152555431D01*
X129227680Y-152537760D01*
X129227365Y-152518637D01*
X128915360Y-151765390D01*
X128905653Y-151760318D01*
X128894741Y-151733974D01*
X128266026Y-151105259D01*
X128239682Y-151094347D01*
X128234610Y-151084640D01*
X127838292Y-150928086D01*
X127444569Y-150765000D01*
X127425440Y-150765000D01*
X127407654Y-150757974D01*
X126981610Y-150765000D01*
X126555431Y-150765000D01*
X126537760Y-150772320D01*
X126518637Y-150772635D01*
X125765390Y-151084640D01*
X125760318Y-151094347D01*
X125733974Y-151105259D01*
X125105259Y-151733974D01*
X125094347Y-151760318D01*
X125084640Y-151765390D01*
X124928086Y-152161708D01*
X124765000Y-152555431D01*
X124765000Y-152574560D01*
X124757974Y-152592346D01*
X109710000Y-152592346D01*
X109710000Y-95980000D01*
X116774336Y-95980000D01*
X116876007Y-96491136D01*
X117165543Y-96924457D01*
X117248669Y-96980000D01*
X117165543Y-97035543D01*
X116876007Y-97468864D01*
X116774336Y-97980000D01*
X116876007Y-98491136D01*
X117165543Y-98924457D01*
X117248669Y-98980000D01*
X117165543Y-99035543D01*
X116876007Y-99468864D01*
X116774336Y-99980000D01*
X116876007Y-100491136D01*
X117165543Y-100924457D01*
X117248669Y-100980000D01*
X117165543Y-101035543D01*
X116876007Y-101468864D01*
X116774336Y-101980000D01*
X116876007Y-102491136D01*
X117165543Y-102924457D01*
X117248669Y-102980000D01*
X117165543Y-103035543D01*
X116876007Y-103468864D01*
X116774336Y-103980000D01*
X116876007Y-104491136D01*
X117165543Y-104924457D01*
X117248669Y-104980000D01*
X117165543Y-105035543D01*
X116876007Y-105468864D01*
X116774336Y-105980000D01*
X116876007Y-106491136D01*
X117165543Y-106924457D01*
X117248669Y-106980000D01*
X117165543Y-107035543D01*
X116876007Y-107468864D01*
X116774336Y-107980000D01*
X116876007Y-108491136D01*
X117165543Y-108924457D01*
X117248669Y-108980000D01*
X117165543Y-109035543D01*
X116876007Y-109468864D01*
X116774336Y-109980000D01*
X116876007Y-110491136D01*
X117165543Y-110924457D01*
X117248669Y-110980000D01*
X117165543Y-111035543D01*
X116876007Y-111468864D01*
X116774336Y-111980000D01*
X116876007Y-112491136D01*
X117165543Y-112924457D01*
X117248669Y-112980000D01*
X117165543Y-113035543D01*
X116876007Y-113468864D01*
X116774336Y-113980000D01*
X116876007Y-114491136D01*
X117165543Y-114924457D01*
X117248669Y-114980000D01*
X117165543Y-115035543D01*
X116876007Y-115468864D01*
X116774336Y-115980000D01*
X116876007Y-116491136D01*
X117165543Y-116924457D01*
X117248669Y-116980000D01*
X117165543Y-117035543D01*
X116876007Y-117468864D01*
X116774336Y-117980000D01*
X116876007Y-118491136D01*
X117165543Y-118924457D01*
X117248669Y-118980000D01*
X117165543Y-119035543D01*
X116876007Y-119468864D01*
X116774336Y-119980000D01*
X116876007Y-120491136D01*
X117165543Y-120924457D01*
X117248669Y-120980000D01*
X117165543Y-121035543D01*
X116876007Y-121468864D01*
X116774336Y-121980000D01*
X116876007Y-122491136D01*
X117165543Y-122924457D01*
X117248669Y-122980000D01*
X117165543Y-123035543D01*
X116876007Y-123468864D01*
X116774336Y-123980000D01*
X116876007Y-124491136D01*
X117165543Y-124924457D01*
X117248669Y-124980000D01*
X117165543Y-125035543D01*
X116876007Y-125468864D01*
X116774336Y-125980000D01*
X116876007Y-126491136D01*
X117165543Y-126924457D01*
X117248669Y-126980000D01*
X117165543Y-127035543D01*
X116876007Y-127468864D01*
X116774336Y-127980000D01*
X116876007Y-128491136D01*
X117165543Y-128924457D01*
X117248669Y-128980000D01*
X117165543Y-129035543D01*
X116876007Y-129468864D01*
X116774336Y-129980000D01*
X116876007Y-130491136D01*
X117165543Y-130924457D01*
X117248669Y-130980000D01*
X117165543Y-131035543D01*
X116876007Y-131468864D01*
X116774336Y-131980000D01*
X116876007Y-132491136D01*
X117165543Y-132924457D01*
X117248669Y-132980000D01*
X117165543Y-133035543D01*
X116876007Y-133468864D01*
X116774336Y-133980000D01*
X116876007Y-134491136D01*
X117165543Y-134924457D01*
X117248669Y-134980000D01*
X117165543Y-135035543D01*
X116876007Y-135468864D01*
X116774336Y-135980000D01*
X116876007Y-136491136D01*
X117165543Y-136924457D01*
X117248669Y-136980000D01*
X117165543Y-137035543D01*
X116876007Y-137468864D01*
X116774336Y-137980000D01*
X116876007Y-138491136D01*
X117165543Y-138924457D01*
X117248669Y-138980000D01*
X117165543Y-139035543D01*
X116876007Y-139468864D01*
X116774336Y-139980000D01*
X116876007Y-140491136D01*
X117165543Y-140924457D01*
X117248669Y-140980000D01*
X117165543Y-141035543D01*
X116876007Y-141468864D01*
X116774336Y-141980000D01*
X116876007Y-142491136D01*
X117165543Y-142924457D01*
X117598864Y-143213993D01*
X117980978Y-143290000D01*
X118239022Y-143290000D01*
X118327583Y-143272384D01*
X125304672Y-150249474D01*
X125347072Y-150312930D01*
X125598464Y-150480905D01*
X125820149Y-150525001D01*
X125820154Y-150525001D01*
X125895001Y-150539889D01*
X125969848Y-150525001D01*
X137180152Y-150525001D01*
X137254999Y-150539889D01*
X137329846Y-150525001D01*
X137329851Y-150525001D01*
X137551536Y-150480905D01*
X137802928Y-150312930D01*
X137845330Y-150249471D01*
X138063592Y-150031209D01*
X138283744Y-150075000D01*
X138576256Y-150075000D01*
X139009418Y-149988839D01*
X139500625Y-149660625D01*
X139828839Y-149169418D01*
X139944092Y-148590000D01*
X139828839Y-148010582D01*
X139500625Y-147519375D01*
X139202239Y-147320000D01*
X139500625Y-147120625D01*
X139828839Y-146629418D01*
X139944092Y-146050000D01*
X139828839Y-145470582D01*
X139500625Y-144979375D01*
X139202239Y-144780000D01*
X139500625Y-144580625D01*
X139828839Y-144089418D01*
X139944092Y-143510000D01*
X139828839Y-142930582D01*
X139500625Y-142439375D01*
X139202239Y-142240000D01*
X139500625Y-142040625D01*
X139828839Y-141549418D01*
X139944092Y-140970000D01*
X139828839Y-140390582D01*
X139500625Y-139899375D01*
X139202239Y-139700000D01*
X139500625Y-139500625D01*
X139828839Y-139009418D01*
X139944092Y-138430000D01*
X139828839Y-137850582D01*
X139500625Y-137359375D01*
X139202239Y-137160000D01*
X139500625Y-136960625D01*
X139828839Y-136469418D01*
X139944092Y-135890000D01*
X139828839Y-135310582D01*
X139500625Y-134819375D01*
X139202239Y-134620000D01*
X139500625Y-134420625D01*
X139828839Y-133929418D01*
X139944092Y-133350000D01*
X139828839Y-132770582D01*
X139500625Y-132279375D01*
X139202239Y-132080000D01*
X139500625Y-131880625D01*
X139828839Y-131389418D01*
X139944092Y-130810000D01*
X139828839Y-130230582D01*
X139500625Y-129739375D01*
X139202239Y-129540000D01*
X139500625Y-129340625D01*
X139828839Y-128849418D01*
X139944092Y-128270000D01*
X139828839Y-127690582D01*
X139500625Y-127199375D01*
X139202239Y-127000000D01*
X139500625Y-126800625D01*
X139828839Y-126309418D01*
X139944092Y-125730000D01*
X139828839Y-125150582D01*
X139500625Y-124659375D01*
X139202239Y-124460000D01*
X139500625Y-124260625D01*
X139828839Y-123769418D01*
X139944092Y-123190000D01*
X139828839Y-122610582D01*
X139500625Y-122119375D01*
X139202239Y-121920000D01*
X139500625Y-121720625D01*
X139828839Y-121229418D01*
X139944092Y-120650000D01*
X139828839Y-120070582D01*
X139500625Y-119579375D01*
X139202239Y-119380000D01*
X139500625Y-119180625D01*
X139828839Y-118689418D01*
X139944092Y-118110000D01*
X139828839Y-117530582D01*
X139500625Y-117039375D01*
X139202239Y-116840000D01*
X139500625Y-116640625D01*
X139828839Y-116149418D01*
X139944092Y-115570000D01*
X139828839Y-114990582D01*
X139500625Y-114499375D01*
X139202239Y-114300000D01*
X139500625Y-114100625D01*
X139828839Y-113609418D01*
X139944092Y-113030000D01*
X139828839Y-112450582D01*
X139500625Y-111959375D01*
X139202239Y-111760000D01*
X139500625Y-111560625D01*
X139828839Y-111069418D01*
X139944092Y-110490000D01*
X139828839Y-109910582D01*
X139500625Y-109419375D01*
X139202239Y-109220000D01*
X139500625Y-109020625D01*
X139828839Y-108529418D01*
X139944092Y-107950000D01*
X139828839Y-107370582D01*
X139500625Y-106879375D01*
X139202239Y-106680000D01*
X139500625Y-106480625D01*
X139828839Y-105989418D01*
X139944092Y-105410000D01*
X139828839Y-104830582D01*
X139500625Y-104339375D01*
X139202239Y-104140000D01*
X139500625Y-103940625D01*
X139828839Y-103449418D01*
X139944092Y-102870000D01*
X139828839Y-102290582D01*
X139500625Y-101799375D01*
X139202239Y-101600000D01*
X139500625Y-101400625D01*
X139828839Y-100909418D01*
X139944092Y-100330000D01*
X139828839Y-99750582D01*
X139500625Y-99259375D01*
X139202239Y-99060000D01*
X139500625Y-98860625D01*
X139828839Y-98369418D01*
X139944092Y-97790000D01*
X139828839Y-97210582D01*
X139500625Y-96719375D01*
X139202239Y-96520000D01*
X139500625Y-96320625D01*
X139828839Y-95829418D01*
X139944092Y-95250000D01*
X139828839Y-94670582D01*
X139500625Y-94179375D01*
X139202239Y-93980000D01*
X139500625Y-93780625D01*
X139828839Y-93289418D01*
X139944092Y-92710000D01*
X139828839Y-92130582D01*
X139500625Y-91639375D01*
X139202239Y-91440000D01*
X139500625Y-91240625D01*
X139828839Y-90749418D01*
X139944092Y-90170000D01*
X139828839Y-89590582D01*
X139500625Y-89099375D01*
X139482381Y-89087184D01*
X139527765Y-89078157D01*
X139737809Y-88937809D01*
X139878157Y-88727765D01*
X139927440Y-88480000D01*
X139927440Y-86780000D01*
X139878157Y-86532235D01*
X139737809Y-86322191D01*
X139527765Y-86181843D01*
X139280000Y-86132560D01*
X139078483Y-86132560D01*
X138977929Y-85982071D01*
X138932969Y-85952030D01*
X138902928Y-85907070D01*
X138651536Y-85739095D01*
X138429851Y-85694999D01*
X138429846Y-85694999D01*
X138354999Y-85680111D01*
X138280152Y-85694999D01*
X135021487Y-85694999D01*
X134946640Y-85680111D01*
X134871793Y-85694999D01*
X134871789Y-85694999D01*
X134650104Y-85739095D01*
X134398712Y-85907070D01*
X134356312Y-85970526D01*
X128554639Y-91772200D01*
X119612328Y-91772200D01*
X119537480Y-91757312D01*
X119462632Y-91772200D01*
X119462628Y-91772200D01*
X119240943Y-91816296D01*
X118989551Y-91984271D01*
X118947151Y-92047727D01*
X118337318Y-92657560D01*
X117435000Y-92657560D01*
X117187235Y-92706843D01*
X116977191Y-92847191D01*
X116836843Y-93057235D01*
X116787560Y-93305000D01*
X116787560Y-94655000D01*
X116836843Y-94902765D01*
X116977191Y-95112809D01*
X117071714Y-95175968D01*
X116876007Y-95468864D01*
X116774336Y-95980000D01*
X109710000Y-95980000D01*
X109710000Y-82592346D01*
X124757974Y-82592346D01*
X124765000Y-83018390D01*
X124765000Y-83444569D01*
X124772320Y-83462240D01*
X124772635Y-83481363D01*
X125084640Y-84234610D01*
X125094347Y-84239682D01*
X125105259Y-84266026D01*
X125733974Y-84894741D01*
X125760318Y-84905653D01*
X125765390Y-84915360D01*
X126161708Y-85071914D01*
X126555431Y-85235000D01*
X126574560Y-85235000D01*
X126592346Y-85242026D01*
X127018390Y-85235000D01*
X127444569Y-85235000D01*
X127462240Y-85227680D01*
X127481363Y-85227365D01*
X128234610Y-84915360D01*
X128239682Y-84905653D01*
X128266026Y-84894741D01*
X128894741Y-84266026D01*
X128905653Y-84239682D01*
X128915360Y-84234610D01*
X129071914Y-83838292D01*
X129235000Y-83444569D01*
X129235000Y-83425440D01*
X129242026Y-83407654D01*
X129235000Y-82981610D01*
X129235000Y-82555431D01*
X129227680Y-82537760D01*
X129227365Y-82518637D01*
X128915360Y-81765390D01*
X128905653Y-81760318D01*
X128894741Y-81733974D01*
X128266026Y-81105259D01*
X128239682Y-81094347D01*
X128234610Y-81084640D01*
X127838292Y-80928086D01*
X127444569Y-80765000D01*
X127425440Y-80765000D01*
X127407654Y-80757974D01*
X126981610Y-80765000D01*
X126555431Y-80765000D01*
X126537760Y-80772320D01*
X126518637Y-80772635D01*
X125765390Y-81084640D01*
X125760318Y-81094347D01*
X125733974Y-81105259D01*
X125105259Y-81733974D01*
X125094347Y-81760318D01*
X125084640Y-81765390D01*
X124928086Y-82161708D01*
X124765000Y-82555431D01*
X124765000Y-82574560D01*
X124757974Y-82592346D01*
X109710000Y-82592346D01*
X109710000Y-80069930D01*
X109744926Y-79894345D01*
X109804774Y-79804775D01*
X109894345Y-79744926D01*
X109944246Y-79735000D01*
X147055754Y-79735000D01*
X147105655Y-79744926D01*
X147105655Y-79744926D01*
G37*
X147105655Y-79744926D02*
X147195225Y-79804774D01*
X147255074Y-79894345D01*
X147265000Y-79944246D01*
X147265001Y-156055749D01*
X147255074Y-156105655D01*
X147195225Y-156195226D01*
X147105655Y-156255074D01*
X146930070Y-156290000D01*
X110069930Y-156290000D01*
X109894345Y-156255074D01*
X109804774Y-156195225D01*
X109744926Y-156105655D01*
X109710000Y-155930070D01*
X109710000Y-152592346D01*
X124757974Y-152592346D01*
X124765000Y-153018390D01*
X124765000Y-153444569D01*
X124772320Y-153462240D01*
X124772635Y-153481363D01*
X125084640Y-154234610D01*
X125094347Y-154239682D01*
X125105259Y-154266026D01*
X125733974Y-154894741D01*
X125760318Y-154905653D01*
X125765390Y-154915360D01*
X126161708Y-155071914D01*
X126555431Y-155235000D01*
X126574560Y-155235000D01*
X126592346Y-155242026D01*
X127018390Y-155235000D01*
X127444569Y-155235000D01*
X127462240Y-155227680D01*
X127481363Y-155227365D01*
X128234610Y-154915360D01*
X128239682Y-154905653D01*
X128266026Y-154894741D01*
X128894741Y-154266026D01*
X128905653Y-154239682D01*
X128915360Y-154234610D01*
X129071914Y-153838292D01*
X129235000Y-153444569D01*
X129235000Y-153425440D01*
X129242026Y-153407654D01*
X129235000Y-152981610D01*
X129235000Y-152555431D01*
X129227680Y-152537760D01*
X129227365Y-152518637D01*
X128915360Y-151765390D01*
X128905653Y-151760318D01*
X128894741Y-151733974D01*
X128266026Y-151105259D01*
X128239682Y-151094347D01*
X128234610Y-151084640D01*
X127838292Y-150928086D01*
X127444569Y-150765000D01*
X127425440Y-150765000D01*
X127407654Y-150757974D01*
X126981610Y-150765000D01*
X126555431Y-150765000D01*
X126537760Y-150772320D01*
X126518637Y-150772635D01*
X125765390Y-151084640D01*
X125760318Y-151094347D01*
X125733974Y-151105259D01*
X125105259Y-151733974D01*
X125094347Y-151760318D01*
X125084640Y-151765390D01*
X124928086Y-152161708D01*
X124765000Y-152555431D01*
X124765000Y-152574560D01*
X124757974Y-152592346D01*
X109710000Y-152592346D01*
X109710000Y-95980000D01*
X116774336Y-95980000D01*
X116876007Y-96491136D01*
X117165543Y-96924457D01*
X117248669Y-96980000D01*
X117165543Y-97035543D01*
X116876007Y-97468864D01*
X116774336Y-97980000D01*
X116876007Y-98491136D01*
X117165543Y-98924457D01*
X117248669Y-98980000D01*
X117165543Y-99035543D01*
X116876007Y-99468864D01*
X116774336Y-99980000D01*
X116876007Y-100491136D01*
X117165543Y-100924457D01*
X117248669Y-100980000D01*
X117165543Y-101035543D01*
X116876007Y-101468864D01*
X116774336Y-101980000D01*
X116876007Y-102491136D01*
X117165543Y-102924457D01*
X117248669Y-102980000D01*
X117165543Y-103035543D01*
X116876007Y-103468864D01*
X116774336Y-103980000D01*
X116876007Y-104491136D01*
X117165543Y-104924457D01*
X117248669Y-104980000D01*
X117165543Y-105035543D01*
X116876007Y-105468864D01*
X116774336Y-105980000D01*
X116876007Y-106491136D01*
X117165543Y-106924457D01*
X117248669Y-106980000D01*
X117165543Y-107035543D01*
X116876007Y-107468864D01*
X116774336Y-107980000D01*
X116876007Y-108491136D01*
X117165543Y-108924457D01*
X117248669Y-108980000D01*
X117165543Y-109035543D01*
X116876007Y-109468864D01*
X116774336Y-109980000D01*
X116876007Y-110491136D01*
X117165543Y-110924457D01*
X117248669Y-110980000D01*
X117165543Y-111035543D01*
X116876007Y-111468864D01*
X116774336Y-111980000D01*
X116876007Y-112491136D01*
X117165543Y-112924457D01*
X117248669Y-112980000D01*
X117165543Y-113035543D01*
X116876007Y-113468864D01*
X116774336Y-113980000D01*
X116876007Y-114491136D01*
X117165543Y-114924457D01*
X117248669Y-114980000D01*
X117165543Y-115035543D01*
X116876007Y-115468864D01*
X116774336Y-115980000D01*
X116876007Y-116491136D01*
X117165543Y-116924457D01*
X117248669Y-116980000D01*
X117165543Y-117035543D01*
X116876007Y-117468864D01*
X116774336Y-117980000D01*
X116876007Y-118491136D01*
X117165543Y-118924457D01*
X117248669Y-118980000D01*
X117165543Y-119035543D01*
X116876007Y-119468864D01*
X116774336Y-119980000D01*
X116876007Y-120491136D01*
X117165543Y-120924457D01*
X117248669Y-120980000D01*
X117165543Y-121035543D01*
X116876007Y-121468864D01*
X116774336Y-121980000D01*
X116876007Y-122491136D01*
X117165543Y-122924457D01*
X117248669Y-122980000D01*
X117165543Y-123035543D01*
X116876007Y-123468864D01*
X116774336Y-123980000D01*
X116876007Y-124491136D01*
X117165543Y-124924457D01*
X117248669Y-124980000D01*
X117165543Y-125035543D01*
X116876007Y-125468864D01*
X116774336Y-125980000D01*
X116876007Y-126491136D01*
X117165543Y-126924457D01*
X117248669Y-126980000D01*
X117165543Y-127035543D01*
X116876007Y-127468864D01*
X116774336Y-127980000D01*
X116876007Y-128491136D01*
X117165543Y-128924457D01*
X117248669Y-128980000D01*
X117165543Y-129035543D01*
X116876007Y-129468864D01*
X116774336Y-129980000D01*
X116876007Y-130491136D01*
X117165543Y-130924457D01*
X117248669Y-130980000D01*
X117165543Y-131035543D01*
X116876007Y-131468864D01*
X116774336Y-131980000D01*
X116876007Y-132491136D01*
X117165543Y-132924457D01*
X117248669Y-132980000D01*
X117165543Y-133035543D01*
X116876007Y-133468864D01*
X116774336Y-133980000D01*
X116876007Y-134491136D01*
X117165543Y-134924457D01*
X117248669Y-134980000D01*
X117165543Y-135035543D01*
X116876007Y-135468864D01*
X116774336Y-135980000D01*
X116876007Y-136491136D01*
X117165543Y-136924457D01*
X117248669Y-136980000D01*
X117165543Y-137035543D01*
X116876007Y-137468864D01*
X116774336Y-137980000D01*
X116876007Y-138491136D01*
X117165543Y-138924457D01*
X117248669Y-138980000D01*
X117165543Y-139035543D01*
X116876007Y-139468864D01*
X116774336Y-139980000D01*
X116876007Y-140491136D01*
X117165543Y-140924457D01*
X117248669Y-140980000D01*
X117165543Y-141035543D01*
X116876007Y-141468864D01*
X116774336Y-141980000D01*
X116876007Y-142491136D01*
X117165543Y-142924457D01*
X117598864Y-143213993D01*
X117980978Y-143290000D01*
X118239022Y-143290000D01*
X118327583Y-143272384D01*
X125304672Y-150249474D01*
X125347072Y-150312930D01*
X125598464Y-150480905D01*
X125820149Y-150525001D01*
X125820154Y-150525001D01*
X125895001Y-150539889D01*
X125969848Y-150525001D01*
X137180152Y-150525001D01*
X137254999Y-150539889D01*
X137329846Y-150525001D01*
X137329851Y-150525001D01*
X137551536Y-150480905D01*
X137802928Y-150312930D01*
X137845330Y-150249471D01*
X138063592Y-150031209D01*
X138283744Y-150075000D01*
X138576256Y-150075000D01*
X139009418Y-149988839D01*
X139500625Y-149660625D01*
X139828839Y-149169418D01*
X139944092Y-148590000D01*
X139828839Y-148010582D01*
X139500625Y-147519375D01*
X139202239Y-147320000D01*
X139500625Y-147120625D01*
X139828839Y-146629418D01*
X139944092Y-146050000D01*
X139828839Y-145470582D01*
X139500625Y-144979375D01*
X139202239Y-144780000D01*
X139500625Y-144580625D01*
X139828839Y-144089418D01*
X139944092Y-143510000D01*
X139828839Y-142930582D01*
X139500625Y-142439375D01*
X139202239Y-142240000D01*
X139500625Y-142040625D01*
X139828839Y-141549418D01*
X139944092Y-140970000D01*
X139828839Y-140390582D01*
X139500625Y-139899375D01*
X139202239Y-139700000D01*
X139500625Y-139500625D01*
X139828839Y-139009418D01*
X139944092Y-138430000D01*
X139828839Y-137850582D01*
X139500625Y-137359375D01*
X139202239Y-137160000D01*
X139500625Y-136960625D01*
X139828839Y-136469418D01*
X139944092Y-135890000D01*
X139828839Y-135310582D01*
X139500625Y-134819375D01*
X139202239Y-134620000D01*
X139500625Y-134420625D01*
X139828839Y-133929418D01*
X139944092Y-133350000D01*
X139828839Y-132770582D01*
X139500625Y-132279375D01*
X139202239Y-132080000D01*
X139500625Y-131880625D01*
X139828839Y-131389418D01*
X139944092Y-130810000D01*
X139828839Y-130230582D01*
X139500625Y-129739375D01*
X139202239Y-129540000D01*
X139500625Y-129340625D01*
X139828839Y-128849418D01*
X139944092Y-128270000D01*
X139828839Y-127690582D01*
X139500625Y-127199375D01*
X139202239Y-127000000D01*
X139500625Y-126800625D01*
X139828839Y-126309418D01*
X139944092Y-125730000D01*
X139828839Y-125150582D01*
X139500625Y-124659375D01*
X139202239Y-124460000D01*
X139500625Y-124260625D01*
X139828839Y-123769418D01*
X139944092Y-123190000D01*
X139828839Y-122610582D01*
X139500625Y-122119375D01*
X139202239Y-121920000D01*
X139500625Y-121720625D01*
X139828839Y-121229418D01*
X139944092Y-120650000D01*
X139828839Y-120070582D01*
X139500625Y-119579375D01*
X139202239Y-119380000D01*
X139500625Y-119180625D01*
X139828839Y-118689418D01*
X139944092Y-118110000D01*
X139828839Y-117530582D01*
X139500625Y-117039375D01*
X139202239Y-116840000D01*
X139500625Y-116640625D01*
X139828839Y-116149418D01*
X139944092Y-115570000D01*
X139828839Y-114990582D01*
X139500625Y-114499375D01*
X139202239Y-114300000D01*
X139500625Y-114100625D01*
X139828839Y-113609418D01*
X139944092Y-113030000D01*
X139828839Y-112450582D01*
X139500625Y-111959375D01*
X139202239Y-111760000D01*
X139500625Y-111560625D01*
X139828839Y-111069418D01*
X139944092Y-110490000D01*
X139828839Y-109910582D01*
X139500625Y-109419375D01*
X139202239Y-109220000D01*
X139500625Y-109020625D01*
X139828839Y-108529418D01*
X139944092Y-107950000D01*
X139828839Y-107370582D01*
X139500625Y-106879375D01*
X139202239Y-106680000D01*
X139500625Y-106480625D01*
X139828839Y-105989418D01*
X139944092Y-105410000D01*
X139828839Y-104830582D01*
X139500625Y-104339375D01*
X139202239Y-104140000D01*
X139500625Y-103940625D01*
X139828839Y-103449418D01*
X139944092Y-102870000D01*
X139828839Y-102290582D01*
X139500625Y-101799375D01*
X139202239Y-101600000D01*
X139500625Y-101400625D01*
X139828839Y-100909418D01*
X139944092Y-100330000D01*
X139828839Y-99750582D01*
X139500625Y-99259375D01*
X139202239Y-99060000D01*
X139500625Y-98860625D01*
X139828839Y-98369418D01*
X139944092Y-97790000D01*
X139828839Y-97210582D01*
X139500625Y-96719375D01*
X139202239Y-96520000D01*
X139500625Y-96320625D01*
X139828839Y-95829418D01*
X139944092Y-95250000D01*
X139828839Y-94670582D01*
X139500625Y-94179375D01*
X139202239Y-93980000D01*
X139500625Y-93780625D01*
X139828839Y-93289418D01*
X139944092Y-92710000D01*
X139828839Y-92130582D01*
X139500625Y-91639375D01*
X139202239Y-91440000D01*
X139500625Y-91240625D01*
X139828839Y-90749418D01*
X139944092Y-90170000D01*
X139828839Y-89590582D01*
X139500625Y-89099375D01*
X139482381Y-89087184D01*
X139527765Y-89078157D01*
X139737809Y-88937809D01*
X139878157Y-88727765D01*
X139927440Y-88480000D01*
X139927440Y-86780000D01*
X139878157Y-86532235D01*
X139737809Y-86322191D01*
X139527765Y-86181843D01*
X139280000Y-86132560D01*
X139078483Y-86132560D01*
X138977929Y-85982071D01*
X138932969Y-85952030D01*
X138902928Y-85907070D01*
X138651536Y-85739095D01*
X138429851Y-85694999D01*
X138429846Y-85694999D01*
X138354999Y-85680111D01*
X138280152Y-85694999D01*
X135021487Y-85694999D01*
X134946640Y-85680111D01*
X134871793Y-85694999D01*
X134871789Y-85694999D01*
X134650104Y-85739095D01*
X134398712Y-85907070D01*
X134356312Y-85970526D01*
X128554639Y-91772200D01*
X119612328Y-91772200D01*
X119537480Y-91757312D01*
X119462632Y-91772200D01*
X119462628Y-91772200D01*
X119240943Y-91816296D01*
X118989551Y-91984271D01*
X118947151Y-92047727D01*
X118337318Y-92657560D01*
X117435000Y-92657560D01*
X117187235Y-92706843D01*
X116977191Y-92847191D01*
X116836843Y-93057235D01*
X116787560Y-93305000D01*
X116787560Y-94655000D01*
X116836843Y-94902765D01*
X116977191Y-95112809D01*
X117071714Y-95175968D01*
X116876007Y-95468864D01*
X116774336Y-95980000D01*
X109710000Y-95980000D01*
X109710000Y-82592346D01*
X124757974Y-82592346D01*
X124765000Y-83018390D01*
X124765000Y-83444569D01*
X124772320Y-83462240D01*
X124772635Y-83481363D01*
X125084640Y-84234610D01*
X125094347Y-84239682D01*
X125105259Y-84266026D01*
X125733974Y-84894741D01*
X125760318Y-84905653D01*
X125765390Y-84915360D01*
X126161708Y-85071914D01*
X126555431Y-85235000D01*
X126574560Y-85235000D01*
X126592346Y-85242026D01*
X127018390Y-85235000D01*
X127444569Y-85235000D01*
X127462240Y-85227680D01*
X127481363Y-85227365D01*
X128234610Y-84915360D01*
X128239682Y-84905653D01*
X128266026Y-84894741D01*
X128894741Y-84266026D01*
X128905653Y-84239682D01*
X128915360Y-84234610D01*
X129071914Y-83838292D01*
X129235000Y-83444569D01*
X129235000Y-83425440D01*
X129242026Y-83407654D01*
X129235000Y-82981610D01*
X129235000Y-82555431D01*
X129227680Y-82537760D01*
X129227365Y-82518637D01*
X128915360Y-81765390D01*
X128905653Y-81760318D01*
X128894741Y-81733974D01*
X128266026Y-81105259D01*
X128239682Y-81094347D01*
X128234610Y-81084640D01*
X127838292Y-80928086D01*
X127444569Y-80765000D01*
X127425440Y-80765000D01*
X127407654Y-80757974D01*
X126981610Y-80765000D01*
X126555431Y-80765000D01*
X126537760Y-80772320D01*
X126518637Y-80772635D01*
X125765390Y-81084640D01*
X125760318Y-81094347D01*
X125733974Y-81105259D01*
X125105259Y-81733974D01*
X125094347Y-81760318D01*
X125084640Y-81765390D01*
X124928086Y-82161708D01*
X124765000Y-82555431D01*
X124765000Y-82574560D01*
X124757974Y-82592346D01*
X109710000Y-82592346D01*
X109710000Y-80069930D01*
X109744926Y-79894345D01*
X109804774Y-79804775D01*
X109894345Y-79744926D01*
X109944246Y-79735000D01*
X147055754Y-79735000D01*
X147105655Y-79744926D01*
G36*
X127610199Y-149005001D02*
X126209803Y-149005001D01*
X120452365Y-143247564D01*
X120621136Y-143213993D01*
X121054457Y-142924457D01*
X121177707Y-142740000D01*
X121345199Y-142740000D01*
X127610199Y-149005001D01*
X127610199Y-149005001D01*
G37*
X127610199Y-149005001D02*
X126209803Y-149005001D01*
X120452365Y-143247564D01*
X120621136Y-143213993D01*
X121054457Y-142924457D01*
X121177707Y-142740000D01*
X121345199Y-142740000D01*
X127610199Y-149005001D01*
G36*
X122815189Y-136769990D02*
X122604792Y-136769990D01*
X122574802Y-136740000D01*
X122785199Y-136740000D01*
X122815189Y-136769990D01*
X122815189Y-136769990D01*
G37*
X122815189Y-136769990D02*
X122604792Y-136769990D01*
X122574802Y-136740000D01*
X122785199Y-136740000D01*
X122815189Y-136769990D01*
G36*
X124615189Y-130769990D02*
X123884792Y-130769990D01*
X123854802Y-130740000D01*
X124585199Y-130740000D01*
X124615189Y-130769990D01*
X124615189Y-130769990D01*
G37*
X124615189Y-130769990D02*
X123884792Y-130769990D01*
X123854802Y-130740000D01*
X124585199Y-130740000D01*
X124615189Y-130769990D01*
G36*
X127679671Y-126214473D02*
X127722071Y-126277929D01*
X127785527Y-126320329D01*
X127973462Y-126445904D01*
X128021605Y-126455480D01*
X128195148Y-126490000D01*
X128195152Y-126490000D01*
X128270000Y-126504888D01*
X128344848Y-126490000D01*
X134611822Y-126490000D01*
X134819375Y-126800625D01*
X135117761Y-127000000D01*
X134819375Y-127199375D01*
X134611822Y-127510000D01*
X128584802Y-127510000D01*
X126570331Y-125495530D01*
X126527929Y-125432071D01*
X126276537Y-125264096D01*
X126054852Y-125220000D01*
X126054847Y-125220000D01*
X125980000Y-125205112D01*
X125905153Y-125220000D01*
X121177707Y-125220000D01*
X121054457Y-125035543D01*
X120971331Y-124980000D01*
X121054457Y-124924457D01*
X121177707Y-124740000D01*
X126205199Y-124740000D01*
X127679671Y-126214473D01*
X127679671Y-126214473D01*
G37*
X127679671Y-126214473D02*
X127722071Y-126277929D01*
X127785527Y-126320329D01*
X127973462Y-126445904D01*
X128021605Y-126455480D01*
X128195148Y-126490000D01*
X128195152Y-126490000D01*
X128270000Y-126504888D01*
X128344848Y-126490000D01*
X134611822Y-126490000D01*
X134819375Y-126800625D01*
X135117761Y-127000000D01*
X134819375Y-127199375D01*
X134611822Y-127510000D01*
X128584802Y-127510000D01*
X126570331Y-125495530D01*
X126527929Y-125432071D01*
X126276537Y-125264096D01*
X126054852Y-125220000D01*
X126054847Y-125220000D01*
X125980000Y-125205112D01*
X125905153Y-125220000D01*
X121177707Y-125220000D01*
X121054457Y-125035543D01*
X120971331Y-124980000D01*
X121054457Y-124924457D01*
X121177707Y-124740000D01*
X126205199Y-124740000D01*
X127679671Y-126214473D01*
G36*
X137359375Y-126800625D02*
X137657761Y-127000000D01*
X137359375Y-127199375D01*
X137160000Y-127497761D01*
X136960625Y-127199375D01*
X136662239Y-127000000D01*
X136960625Y-126800625D01*
X137160000Y-126502239D01*
X137359375Y-126800625D01*
X137359375Y-126800625D01*
G37*
X137359375Y-126800625D02*
X137657761Y-127000000D01*
X137359375Y-127199375D01*
X137160000Y-127497761D01*
X136960625Y-127199375D01*
X136662239Y-127000000D01*
X136960625Y-126800625D01*
X137160000Y-126502239D01*
X137359375Y-126800625D01*
G36*
X119165543Y-124924457D02*
X119248669Y-124980000D01*
X119165543Y-125035543D01*
X119110000Y-125118669D01*
X119054457Y-125035543D01*
X118971331Y-124980000D01*
X119054457Y-124924457D01*
X119110000Y-124841331D01*
X119165543Y-124924457D01*
X119165543Y-124924457D01*
G37*
X119165543Y-124924457D02*
X119248669Y-124980000D01*
X119165543Y-125035543D01*
X119110000Y-125118669D01*
X119054457Y-125035543D01*
X118971331Y-124980000D01*
X119054457Y-124924457D01*
X119110000Y-124841331D01*
X119165543Y-124924457D01*
G36*
X129225199Y-93220000D02*
X129208038Y-93220000D01*
X129259756Y-93185442D01*
X129225199Y-93220000D01*
X129225199Y-93220000D01*
G37*
X129225199Y-93220000D02*
X129208038Y-93220000D01*
X129259756Y-93185442D01*
X129225199Y-93220000D01*
G36*
X137359375Y-91240625D02*
X137657761Y-91440000D01*
X137523508Y-91529705D01*
X137070295Y-91076492D01*
X137160000Y-90942239D01*
X137359375Y-91240625D01*
X137359375Y-91240625D01*
G37*
X137359375Y-91240625D02*
X137657761Y-91440000D01*
X137523508Y-91529705D01*
X137070295Y-91076492D01*
X137160000Y-90942239D01*
X137359375Y-91240625D01*
M02*
