M48
;DRILL file {KiCad (5.0.0)} date 10/17/19 23:20:21
;FORMAT={2:4/ absolute / inch / suppress leading zeros}
FMAT,2
INCH,TZ
T1C0.0315
T2C0.0394
%
G90
G05
M72
T1
X46500Y-37000
X46500Y-37787
X46500Y-38575
X46500Y-39362
X46500Y-40150
X46500Y-40937
X46500Y-41724
X46500Y-42512
X46500Y-43299
X46500Y-44087
X46500Y-44874
X46500Y-45661
X46500Y-46449
X46500Y-47236
X46500Y-48024
X46500Y-48811
X46500Y-49598
X46500Y-50386
X46500Y-51173
X46500Y-51961
X46500Y-52748
X46500Y-53535
X46500Y-54323
X46500Y-55110
X46500Y-55898
X47287Y-37000
X47287Y-37787
X47287Y-38575
X47287Y-39362
X47287Y-40150
X47287Y-40937
X47287Y-41724
X47287Y-42512
X47287Y-43299
X47287Y-44087
X47287Y-44874
X47287Y-45661
X47287Y-46449
X47287Y-47236
X47287Y-48024
X47287Y-48811
X47287Y-49598
X47287Y-50386
X47287Y-51173
X47287Y-51961
X47287Y-52748
X47287Y-53535
X47287Y-54323
X47287Y-55110
X47287Y-55898
T2
X53500Y-34500
X53500Y-35500
X53500Y-36500
X53500Y-37500
X53500Y-38500
X53500Y-39500
X53500Y-40500
X53500Y-41500
X53500Y-42500
X53500Y-43500
X53500Y-44500
X53500Y-45500
X53500Y-46500
X53500Y-47500
X53500Y-48500
X53500Y-49500
X53500Y-50500
X53500Y-51500
X53500Y-52500
X53500Y-53500
X53500Y-54500
X53500Y-55500
X53500Y-56500
X53500Y-57500
X53500Y-58500
X54500Y-34500
X54500Y-35500
X54500Y-36500
X54500Y-37500
X54500Y-38500
X54500Y-39500
X54500Y-40500
X54500Y-41500
X54500Y-42500
X54500Y-43500
X54500Y-44500
X54500Y-45500
X54500Y-46500
X54500Y-47500
X54500Y-48500
X54500Y-49500
X54500Y-50500
X54500Y-51500
X54500Y-52500
X54500Y-53500
X54500Y-54500
X54500Y-55500
X54500Y-56500
X54500Y-57500
X54500Y-58500
T0
M30
