G04 #@! TF.GenerationSoftware,KiCad,Pcbnew,(5.0.0)*
G04 #@! TF.CreationDate,2019-10-17T23:20:27+01:00*
G04 #@! TF.ProjectId,dataVideo_interface,64617461566964656F5F696E74657266,rev?*
G04 #@! TF.SameCoordinates,Original*
G04 #@! TF.FileFunction,Legend,Top*
G04 #@! TF.FilePolarity,Positive*
%FSLAX46Y46*%
G04 Gerber Fmt 4.6, Leading zero omitted, Abs format (unit mm)*
G04 Created by KiCad (PCBNEW (5.0.0)) date 10/17/19 23:20:27*
%MOMM*%
%LPD*%
G01*
G04 APERTURE LIST*
%ADD10C,0.300000*%
%ADD11C,0.250000*%
%ADD12C,0.150000*%
%ADD13C,0.287500*%
%ADD14C,0.120000*%
G04 APERTURE END LIST*
D10*
X111678571Y-89821428D02*
X110964285Y-90321428D01*
X111678571Y-90678571D02*
X110178571Y-90678571D01*
X110178571Y-90107142D01*
X110250000Y-89964285D01*
X110321428Y-89892857D01*
X110464285Y-89821428D01*
X110678571Y-89821428D01*
X110821428Y-89892857D01*
X110892857Y-89964285D01*
X110964285Y-90107142D01*
X110964285Y-90678571D01*
X111678571Y-88535714D02*
X110892857Y-88535714D01*
X110750000Y-88607142D01*
X110678571Y-88750000D01*
X110678571Y-89035714D01*
X110750000Y-89178571D01*
X111607142Y-88535714D02*
X111678571Y-88678571D01*
X111678571Y-89035714D01*
X111607142Y-89178571D01*
X111464285Y-89250000D01*
X111321428Y-89250000D01*
X111178571Y-89178571D01*
X111107142Y-89035714D01*
X111107142Y-88678571D01*
X111035714Y-88535714D01*
X111678571Y-87821428D02*
X110678571Y-87821428D01*
X110178571Y-87821428D02*
X110250000Y-87892857D01*
X110321428Y-87821428D01*
X110250000Y-87750000D01*
X110178571Y-87821428D01*
X110321428Y-87821428D01*
X110678571Y-87107142D02*
X111678571Y-87107142D01*
X110821428Y-87107142D02*
X110750000Y-87035714D01*
X110678571Y-86892857D01*
X110678571Y-86678571D01*
X110750000Y-86535714D01*
X110892857Y-86464285D01*
X111678571Y-86464285D01*
X110678571Y-85892857D02*
X111678571Y-85535714D01*
X110678571Y-85178571D02*
X111678571Y-85535714D01*
X112035714Y-85678571D01*
X112107142Y-85750000D01*
X112178571Y-85892857D01*
X141714285Y-153178571D02*
X142214285Y-154678571D01*
X142714285Y-153178571D01*
X143500000Y-153178571D02*
X143642857Y-153178571D01*
X143785714Y-153250000D01*
X143857142Y-153321428D01*
X143928571Y-153464285D01*
X144000000Y-153750000D01*
X144000000Y-154107142D01*
X143928571Y-154392857D01*
X143857142Y-154535714D01*
X143785714Y-154607142D01*
X143642857Y-154678571D01*
X143500000Y-154678571D01*
X143357142Y-154607142D01*
X143285714Y-154535714D01*
X143214285Y-154392857D01*
X143142857Y-154107142D01*
X143142857Y-153750000D01*
X143214285Y-153464285D01*
X143285714Y-153321428D01*
X143357142Y-153250000D01*
X143500000Y-153178571D01*
X144642857Y-154535714D02*
X144714285Y-154607142D01*
X144642857Y-154678571D01*
X144571428Y-154607142D01*
X144642857Y-154535714D01*
X144642857Y-154678571D01*
X146142857Y-154678571D02*
X145285714Y-154678571D01*
X145714285Y-154678571D02*
X145714285Y-153178571D01*
X145571428Y-153392857D01*
X145428571Y-153535714D01*
X145285714Y-153607142D01*
D11*
X128309523Y-156452380D02*
X128309523Y-155452380D01*
X128547619Y-155452380D01*
X128690476Y-155500000D01*
X128785714Y-155595238D01*
X128833333Y-155690476D01*
X128880952Y-155880952D01*
X128880952Y-156023809D01*
X128833333Y-156214285D01*
X128785714Y-156309523D01*
X128690476Y-156404761D01*
X128547619Y-156452380D01*
X128309523Y-156452380D01*
X129738095Y-156452380D02*
X129738095Y-155928571D01*
X129690476Y-155833333D01*
X129595238Y-155785714D01*
X129404761Y-155785714D01*
X129309523Y-155833333D01*
X129738095Y-156404761D02*
X129642857Y-156452380D01*
X129404761Y-156452380D01*
X129309523Y-156404761D01*
X129261904Y-156309523D01*
X129261904Y-156214285D01*
X129309523Y-156119047D01*
X129404761Y-156071428D01*
X129642857Y-156071428D01*
X129738095Y-156023809D01*
X130071428Y-155785714D02*
X130452380Y-155785714D01*
X130214285Y-155452380D02*
X130214285Y-156309523D01*
X130261904Y-156404761D01*
X130357142Y-156452380D01*
X130452380Y-156452380D01*
X131214285Y-156452380D02*
X131214285Y-155928571D01*
X131166666Y-155833333D01*
X131071428Y-155785714D01*
X130880952Y-155785714D01*
X130785714Y-155833333D01*
X131214285Y-156404761D02*
X131119047Y-156452380D01*
X130880952Y-156452380D01*
X130785714Y-156404761D01*
X130738095Y-156309523D01*
X130738095Y-156214285D01*
X130785714Y-156119047D01*
X130880952Y-156071428D01*
X131119047Y-156071428D01*
X131214285Y-156023809D01*
X131547619Y-155452380D02*
X131880952Y-156452380D01*
X132214285Y-155452380D01*
X132547619Y-156452380D02*
X132547619Y-155785714D01*
X132547619Y-155452380D02*
X132500000Y-155500000D01*
X132547619Y-155547619D01*
X132595238Y-155500000D01*
X132547619Y-155452380D01*
X132547619Y-155547619D01*
X133452380Y-156452380D02*
X133452380Y-155452380D01*
X133452380Y-156404761D02*
X133357142Y-156452380D01*
X133166666Y-156452380D01*
X133071428Y-156404761D01*
X133023809Y-156357142D01*
X132976190Y-156261904D01*
X132976190Y-155976190D01*
X133023809Y-155880952D01*
X133071428Y-155833333D01*
X133166666Y-155785714D01*
X133357142Y-155785714D01*
X133452380Y-155833333D01*
X134309523Y-156404761D02*
X134214285Y-156452380D01*
X134023809Y-156452380D01*
X133928571Y-156404761D01*
X133880952Y-156309523D01*
X133880952Y-155928571D01*
X133928571Y-155833333D01*
X134023809Y-155785714D01*
X134214285Y-155785714D01*
X134309523Y-155833333D01*
X134357142Y-155928571D01*
X134357142Y-156023809D01*
X133880952Y-156119047D01*
X134928571Y-156452380D02*
X134833333Y-156404761D01*
X134785714Y-156357142D01*
X134738095Y-156261904D01*
X134738095Y-155976190D01*
X134785714Y-155880952D01*
X134833333Y-155833333D01*
X134928571Y-155785714D01*
X135071428Y-155785714D01*
X135166666Y-155833333D01*
X135214285Y-155880952D01*
X135261904Y-155976190D01*
X135261904Y-156261904D01*
X135214285Y-156357142D01*
X135166666Y-156404761D01*
X135071428Y-156452380D01*
X134928571Y-156452380D01*
X136452380Y-156452380D02*
X136452380Y-155452380D01*
X136928571Y-155785714D02*
X136928571Y-156452380D01*
X136928571Y-155880952D02*
X136976190Y-155833333D01*
X137071428Y-155785714D01*
X137214285Y-155785714D01*
X137309523Y-155833333D01*
X137357142Y-155928571D01*
X137357142Y-156452380D01*
X137690476Y-155785714D02*
X138071428Y-155785714D01*
X137833333Y-155452380D02*
X137833333Y-156309523D01*
X137880952Y-156404761D01*
X137976190Y-156452380D01*
X138071428Y-156452380D01*
X138785714Y-156404761D02*
X138690476Y-156452380D01*
X138500000Y-156452380D01*
X138404761Y-156404761D01*
X138357142Y-156309523D01*
X138357142Y-155928571D01*
X138404761Y-155833333D01*
X138500000Y-155785714D01*
X138690476Y-155785714D01*
X138785714Y-155833333D01*
X138833333Y-155928571D01*
X138833333Y-156023809D01*
X138357142Y-156119047D01*
X139261904Y-156452380D02*
X139261904Y-155785714D01*
X139261904Y-155976190D02*
X139309523Y-155880952D01*
X139357142Y-155833333D01*
X139452380Y-155785714D01*
X139547619Y-155785714D01*
X139738095Y-155785714D02*
X140119047Y-155785714D01*
X139880952Y-156452380D02*
X139880952Y-155595238D01*
X139928571Y-155500000D01*
X140023809Y-155452380D01*
X140119047Y-155452380D01*
X140880952Y-156452380D02*
X140880952Y-155928571D01*
X140833333Y-155833333D01*
X140738095Y-155785714D01*
X140547619Y-155785714D01*
X140452380Y-155833333D01*
X140880952Y-156404761D02*
X140785714Y-156452380D01*
X140547619Y-156452380D01*
X140452380Y-156404761D01*
X140404761Y-156309523D01*
X140404761Y-156214285D01*
X140452380Y-156119047D01*
X140547619Y-156071428D01*
X140785714Y-156071428D01*
X140880952Y-156023809D01*
X141785714Y-156404761D02*
X141690476Y-156452380D01*
X141500000Y-156452380D01*
X141404761Y-156404761D01*
X141357142Y-156357142D01*
X141309523Y-156261904D01*
X141309523Y-155976190D01*
X141357142Y-155880952D01*
X141404761Y-155833333D01*
X141500000Y-155785714D01*
X141690476Y-155785714D01*
X141785714Y-155833333D01*
X142595238Y-156404761D02*
X142500000Y-156452380D01*
X142309523Y-156452380D01*
X142214285Y-156404761D01*
X142166666Y-156309523D01*
X142166666Y-155928571D01*
X142214285Y-155833333D01*
X142309523Y-155785714D01*
X142500000Y-155785714D01*
X142595238Y-155833333D01*
X142642857Y-155928571D01*
X142642857Y-156023809D01*
X142166666Y-156119047D01*
X144166666Y-155928571D02*
X144309523Y-155976190D01*
X144357142Y-156023809D01*
X144404761Y-156119047D01*
X144404761Y-156261904D01*
X144357142Y-156357142D01*
X144309523Y-156404761D01*
X144214285Y-156452380D01*
X143833333Y-156452380D01*
X143833333Y-155452380D01*
X144166666Y-155452380D01*
X144261904Y-155500000D01*
X144309523Y-155547619D01*
X144357142Y-155642857D01*
X144357142Y-155738095D01*
X144309523Y-155833333D01*
X144261904Y-155880952D01*
X144166666Y-155928571D01*
X143833333Y-155928571D01*
X144976190Y-156452380D02*
X144880952Y-156404761D01*
X144833333Y-156357142D01*
X144785714Y-156261904D01*
X144785714Y-155976190D01*
X144833333Y-155880952D01*
X144880952Y-155833333D01*
X144976190Y-155785714D01*
X145119047Y-155785714D01*
X145214285Y-155833333D01*
X145261904Y-155880952D01*
X145309523Y-155976190D01*
X145309523Y-156261904D01*
X145261904Y-156357142D01*
X145214285Y-156404761D01*
X145119047Y-156452380D01*
X144976190Y-156452380D01*
X146166666Y-156452380D02*
X146166666Y-155928571D01*
X146119047Y-155833333D01*
X146023809Y-155785714D01*
X145833333Y-155785714D01*
X145738095Y-155833333D01*
X146166666Y-156404761D02*
X146071428Y-156452380D01*
X145833333Y-156452380D01*
X145738095Y-156404761D01*
X145690476Y-156309523D01*
X145690476Y-156214285D01*
X145738095Y-156119047D01*
X145833333Y-156071428D01*
X146071428Y-156071428D01*
X146166666Y-156023809D01*
X146642857Y-156452380D02*
X146642857Y-155785714D01*
X146642857Y-155976190D02*
X146690476Y-155880952D01*
X146738095Y-155833333D01*
X146833333Y-155785714D01*
X146928571Y-155785714D01*
X147690476Y-156452380D02*
X147690476Y-155452380D01*
X147690476Y-156404761D02*
X147595238Y-156452380D01*
X147404761Y-156452380D01*
X147309523Y-156404761D01*
X147261904Y-156357142D01*
X147214285Y-156261904D01*
X147214285Y-155976190D01*
X147261904Y-155880952D01*
X147309523Y-155833333D01*
X147404761Y-155785714D01*
X147595238Y-155785714D01*
X147690476Y-155833333D01*
D12*
G36*
X110000000Y-145000000D02*
X124000000Y-145000000D01*
X124000000Y-155000000D01*
X110000000Y-155000000D01*
X110000000Y-145000000D01*
G37*
X110000000Y-145000000D02*
X124000000Y-145000000D01*
X124000000Y-155000000D01*
X110000000Y-155000000D01*
X110000000Y-145000000D01*
G36*
X132000000Y-80000000D02*
X147000000Y-80000000D01*
X147000000Y-85000000D01*
X132000000Y-85000000D01*
X132000000Y-80000000D01*
G37*
X132000000Y-80000000D02*
X147000000Y-80000000D01*
X147000000Y-85000000D01*
X132000000Y-85000000D01*
X132000000Y-80000000D01*
G36*
X126490000Y-147320000D02*
X130490000Y-147320000D01*
X130490000Y-149320000D01*
X126490000Y-149320000D01*
X126490000Y-147320000D01*
G37*
X126490000Y-147320000D02*
X130490000Y-147320000D01*
X130490000Y-149320000D01*
X126490000Y-149320000D01*
X126490000Y-147320000D01*
G36*
X126490000Y-106680000D02*
X130490000Y-106680000D01*
X130490000Y-108680000D01*
X126490000Y-108680000D01*
X126490000Y-106680000D01*
G37*
X126490000Y-106680000D02*
X130490000Y-106680000D01*
X130490000Y-108680000D01*
X126490000Y-108680000D01*
X126490000Y-106680000D01*
G36*
X126490000Y-131985000D02*
X130490000Y-131985000D01*
X130490000Y-133985000D01*
X126490000Y-133985000D01*
X126490000Y-131985000D01*
G37*
X126490000Y-131985000D02*
X130490000Y-131985000D01*
X130490000Y-133985000D01*
X126490000Y-133985000D01*
X126490000Y-131985000D01*
G36*
X126490000Y-124365000D02*
X130490000Y-124365000D01*
X130490000Y-126365000D01*
X126490000Y-126365000D01*
X126490000Y-124365000D01*
G37*
X126490000Y-124365000D02*
X130490000Y-124365000D01*
X130490000Y-126365000D01*
X126490000Y-126365000D01*
X126490000Y-124365000D01*
G36*
X126490000Y-134525000D02*
X130490000Y-134525000D01*
X130490000Y-136525000D01*
X126490000Y-136525000D01*
X126490000Y-134525000D01*
G37*
X126490000Y-134525000D02*
X130490000Y-134525000D01*
X130490000Y-136525000D01*
X126490000Y-136525000D01*
X126490000Y-134525000D01*
G36*
X126490000Y-144685000D02*
X130490000Y-144685000D01*
X130490000Y-146685000D01*
X126490000Y-146685000D01*
X126490000Y-144685000D01*
G37*
X126490000Y-144685000D02*
X130490000Y-144685000D01*
X130490000Y-146685000D01*
X126490000Y-146685000D01*
X126490000Y-144685000D01*
G36*
X126490000Y-137065000D02*
X130490000Y-137065000D01*
X130490000Y-139065000D01*
X126490000Y-139065000D01*
X126490000Y-137065000D01*
G37*
X126490000Y-137065000D02*
X130490000Y-137065000D01*
X130490000Y-139065000D01*
X126490000Y-139065000D01*
X126490000Y-137065000D01*
G36*
X126490000Y-126905000D02*
X130490000Y-126905000D01*
X130490000Y-128905000D01*
X126490000Y-128905000D01*
X126490000Y-126905000D01*
G37*
X126490000Y-126905000D02*
X130490000Y-126905000D01*
X130490000Y-128905000D01*
X126490000Y-128905000D01*
X126490000Y-126905000D01*
G36*
X126490000Y-111665000D02*
X130490000Y-111665000D01*
X130490000Y-113665000D01*
X126490000Y-113665000D01*
X126490000Y-111665000D01*
G37*
X126490000Y-111665000D02*
X130490000Y-111665000D01*
X130490000Y-113665000D01*
X126490000Y-113665000D01*
X126490000Y-111665000D01*
G36*
X126490000Y-139605000D02*
X130490000Y-139605000D01*
X130490000Y-141605000D01*
X126490000Y-141605000D01*
X126490000Y-139605000D01*
G37*
X126490000Y-139605000D02*
X130490000Y-139605000D01*
X130490000Y-141605000D01*
X126490000Y-141605000D01*
X126490000Y-139605000D01*
G36*
X126490000Y-119285000D02*
X130490000Y-119285000D01*
X130490000Y-121285000D01*
X126490000Y-121285000D01*
X126490000Y-119285000D01*
G37*
X126490000Y-119285000D02*
X130490000Y-119285000D01*
X130490000Y-121285000D01*
X126490000Y-121285000D01*
X126490000Y-119285000D01*
G36*
X126490000Y-142145000D02*
X130490000Y-142145000D01*
X130490000Y-144145000D01*
X126490000Y-144145000D01*
X126490000Y-142145000D01*
G37*
X126490000Y-142145000D02*
X130490000Y-142145000D01*
X130490000Y-144145000D01*
X126490000Y-144145000D01*
X126490000Y-142145000D01*
G36*
X126490000Y-129445000D02*
X130490000Y-129445000D01*
X130490000Y-131445000D01*
X126490000Y-131445000D01*
X126490000Y-129445000D01*
G37*
X126490000Y-129445000D02*
X130490000Y-129445000D01*
X130490000Y-131445000D01*
X126490000Y-131445000D01*
X126490000Y-129445000D01*
G36*
X126490000Y-116745000D02*
X130490000Y-116745000D01*
X130490000Y-118745000D01*
X126490000Y-118745000D01*
X126490000Y-116745000D01*
G37*
X126490000Y-116745000D02*
X130490000Y-116745000D01*
X130490000Y-118745000D01*
X126490000Y-118745000D01*
X126490000Y-116745000D01*
G36*
X126490000Y-96425000D02*
X130490000Y-96425000D01*
X130490000Y-98425000D01*
X126490000Y-98425000D01*
X126490000Y-96425000D01*
G37*
X126490000Y-96425000D02*
X130490000Y-96425000D01*
X130490000Y-98425000D01*
X126490000Y-98425000D01*
X126490000Y-96425000D01*
G36*
X126490000Y-121825000D02*
X130490000Y-121825000D01*
X130490000Y-123825000D01*
X126490000Y-123825000D01*
X126490000Y-121825000D01*
G37*
X126490000Y-121825000D02*
X130490000Y-121825000D01*
X130490000Y-123825000D01*
X126490000Y-123825000D01*
X126490000Y-121825000D01*
G36*
X126490000Y-98965000D02*
X130490000Y-98965000D01*
X130490000Y-100965000D01*
X126490000Y-100965000D01*
X126490000Y-98965000D01*
G37*
X126490000Y-98965000D02*
X130490000Y-98965000D01*
X130490000Y-100965000D01*
X126490000Y-100965000D01*
X126490000Y-98965000D01*
G36*
X126490000Y-109125000D02*
X130490000Y-109125000D01*
X130490000Y-111125000D01*
X126490000Y-111125000D01*
X126490000Y-109125000D01*
G37*
X126490000Y-109125000D02*
X130490000Y-109125000D01*
X130490000Y-111125000D01*
X126490000Y-111125000D01*
X126490000Y-109125000D01*
G36*
X126490000Y-114205000D02*
X130490000Y-114205000D01*
X130490000Y-116205000D01*
X126490000Y-116205000D01*
X126490000Y-114205000D01*
G37*
X126490000Y-114205000D02*
X130490000Y-114205000D01*
X130490000Y-116205000D01*
X126490000Y-116205000D01*
X126490000Y-114205000D01*
G36*
X126490000Y-104045000D02*
X130490000Y-104045000D01*
X130490000Y-106045000D01*
X126490000Y-106045000D01*
X126490000Y-104045000D01*
G37*
X126490000Y-104045000D02*
X130490000Y-104045000D01*
X130490000Y-106045000D01*
X126490000Y-106045000D01*
X126490000Y-104045000D01*
G36*
X126490000Y-91345000D02*
X130490000Y-91345000D01*
X130490000Y-93345000D01*
X126490000Y-93345000D01*
X126490000Y-91345000D01*
G37*
X126490000Y-91345000D02*
X130490000Y-91345000D01*
X130490000Y-93345000D01*
X126490000Y-93345000D01*
X126490000Y-91345000D01*
G36*
X126490000Y-86265000D02*
X130490000Y-86265000D01*
X130490000Y-88265000D01*
X126490000Y-88265000D01*
X126490000Y-86265000D01*
G37*
X126490000Y-86265000D02*
X130490000Y-86265000D01*
X130490000Y-88265000D01*
X126490000Y-88265000D01*
X126490000Y-86265000D01*
G36*
X126490000Y-101505000D02*
X130490000Y-101505000D01*
X130490000Y-103505000D01*
X126490000Y-103505000D01*
X126490000Y-101505000D01*
G37*
X126490000Y-101505000D02*
X130490000Y-101505000D01*
X130490000Y-103505000D01*
X126490000Y-103505000D01*
X126490000Y-101505000D01*
G36*
X126490000Y-88805000D02*
X130490000Y-88805000D01*
X130490000Y-90805000D01*
X126490000Y-90805000D01*
X126490000Y-88805000D01*
G37*
X126490000Y-88805000D02*
X130490000Y-88805000D01*
X130490000Y-90805000D01*
X126490000Y-90805000D01*
X126490000Y-88805000D01*
G36*
X126490000Y-93885000D02*
X130490000Y-93885000D01*
X130490000Y-95885000D01*
X126490000Y-95885000D01*
X126490000Y-93885000D01*
G37*
X126490000Y-93885000D02*
X130490000Y-93885000D01*
X130490000Y-95885000D01*
X126490000Y-95885000D01*
X126490000Y-93885000D01*
G36*
X143635000Y-147320000D02*
X147635000Y-147320000D01*
X147635000Y-149320000D01*
X143635000Y-149320000D01*
X143635000Y-147320000D01*
G37*
X143635000Y-147320000D02*
X147635000Y-147320000D01*
X147635000Y-149320000D01*
X143635000Y-149320000D01*
X143635000Y-147320000D01*
G36*
X143635000Y-137065000D02*
X147635000Y-137065000D01*
X147635000Y-139065000D01*
X143635000Y-139065000D01*
X143635000Y-137065000D01*
G37*
X143635000Y-137065000D02*
X147635000Y-137065000D01*
X147635000Y-139065000D01*
X143635000Y-139065000D01*
X143635000Y-137065000D01*
G36*
X143635000Y-139605000D02*
X147635000Y-139605000D01*
X147635000Y-141605000D01*
X143635000Y-141605000D01*
X143635000Y-139605000D01*
G37*
X143635000Y-139605000D02*
X147635000Y-139605000D01*
X147635000Y-141605000D01*
X143635000Y-141605000D01*
X143635000Y-139605000D01*
G36*
X143635000Y-144685000D02*
X147635000Y-144685000D01*
X147635000Y-146685000D01*
X143635000Y-146685000D01*
X143635000Y-144685000D01*
G37*
X143635000Y-144685000D02*
X147635000Y-144685000D01*
X147635000Y-146685000D01*
X143635000Y-146685000D01*
X143635000Y-144685000D01*
G36*
X143635000Y-131985000D02*
X147635000Y-131985000D01*
X147635000Y-133985000D01*
X143635000Y-133985000D01*
X143635000Y-131985000D01*
G37*
X143635000Y-131985000D02*
X147635000Y-131985000D01*
X147635000Y-133985000D01*
X143635000Y-133985000D01*
X143635000Y-131985000D01*
G36*
X143635000Y-126905000D02*
X147635000Y-126905000D01*
X147635000Y-128905000D01*
X143635000Y-128905000D01*
X143635000Y-126905000D01*
G37*
X143635000Y-126905000D02*
X147635000Y-126905000D01*
X147635000Y-128905000D01*
X143635000Y-128905000D01*
X143635000Y-126905000D01*
G36*
X143635000Y-142145000D02*
X147635000Y-142145000D01*
X147635000Y-144145000D01*
X143635000Y-144145000D01*
X143635000Y-142145000D01*
G37*
X143635000Y-142145000D02*
X147635000Y-142145000D01*
X147635000Y-144145000D01*
X143635000Y-144145000D01*
X143635000Y-142145000D01*
G36*
X143635000Y-129445000D02*
X147635000Y-129445000D01*
X147635000Y-131445000D01*
X143635000Y-131445000D01*
X143635000Y-129445000D01*
G37*
X143635000Y-129445000D02*
X147635000Y-129445000D01*
X147635000Y-131445000D01*
X143635000Y-131445000D01*
X143635000Y-129445000D01*
G36*
X143635000Y-134525000D02*
X147635000Y-134525000D01*
X147635000Y-136525000D01*
X143635000Y-136525000D01*
X143635000Y-134525000D01*
G37*
X143635000Y-134525000D02*
X147635000Y-134525000D01*
X147635000Y-136525000D01*
X143635000Y-136525000D01*
X143635000Y-134525000D01*
G36*
X143635000Y-116745000D02*
X147635000Y-116745000D01*
X147635000Y-118745000D01*
X143635000Y-118745000D01*
X143635000Y-116745000D01*
G37*
X143635000Y-116745000D02*
X147635000Y-116745000D01*
X147635000Y-118745000D01*
X143635000Y-118745000D01*
X143635000Y-116745000D01*
G36*
X143635000Y-119285000D02*
X147635000Y-119285000D01*
X147635000Y-121285000D01*
X143635000Y-121285000D01*
X143635000Y-119285000D01*
G37*
X143635000Y-119285000D02*
X147635000Y-119285000D01*
X147635000Y-121285000D01*
X143635000Y-121285000D01*
X143635000Y-119285000D01*
G36*
X143635000Y-124365000D02*
X147635000Y-124365000D01*
X147635000Y-126365000D01*
X143635000Y-126365000D01*
X143635000Y-124365000D01*
G37*
X143635000Y-124365000D02*
X147635000Y-124365000D01*
X147635000Y-126365000D01*
X143635000Y-126365000D01*
X143635000Y-124365000D01*
G36*
X143635000Y-111665000D02*
X147635000Y-111665000D01*
X147635000Y-113665000D01*
X143635000Y-113665000D01*
X143635000Y-111665000D01*
G37*
X143635000Y-111665000D02*
X147635000Y-111665000D01*
X147635000Y-113665000D01*
X143635000Y-113665000D01*
X143635000Y-111665000D01*
G36*
X143635000Y-106680000D02*
X147635000Y-106680000D01*
X147635000Y-108680000D01*
X143635000Y-108680000D01*
X143635000Y-106680000D01*
G37*
X143635000Y-106680000D02*
X147635000Y-106680000D01*
X147635000Y-108680000D01*
X143635000Y-108680000D01*
X143635000Y-106680000D01*
G36*
X143635000Y-121825000D02*
X147635000Y-121825000D01*
X147635000Y-123825000D01*
X143635000Y-123825000D01*
X143635000Y-121825000D01*
G37*
X143635000Y-121825000D02*
X147635000Y-121825000D01*
X147635000Y-123825000D01*
X143635000Y-123825000D01*
X143635000Y-121825000D01*
G36*
X143635000Y-109125000D02*
X147635000Y-109125000D01*
X147635000Y-111125000D01*
X143635000Y-111125000D01*
X143635000Y-109125000D01*
G37*
X143635000Y-109125000D02*
X147635000Y-109125000D01*
X147635000Y-111125000D01*
X143635000Y-111125000D01*
X143635000Y-109125000D01*
G36*
X143635000Y-114205000D02*
X147635000Y-114205000D01*
X147635000Y-116205000D01*
X143635000Y-116205000D01*
X143635000Y-114205000D01*
G37*
X143635000Y-114205000D02*
X147635000Y-114205000D01*
X147635000Y-116205000D01*
X143635000Y-116205000D01*
X143635000Y-114205000D01*
G36*
X143635000Y-104045000D02*
X147635000Y-104045000D01*
X147635000Y-106045000D01*
X143635000Y-106045000D01*
X143635000Y-104045000D01*
G37*
X143635000Y-104045000D02*
X147635000Y-104045000D01*
X147635000Y-106045000D01*
X143635000Y-106045000D01*
X143635000Y-104045000D01*
G36*
X143635000Y-101505000D02*
X147635000Y-101505000D01*
X147635000Y-103505000D01*
X143635000Y-103505000D01*
X143635000Y-101505000D01*
G37*
X143635000Y-101505000D02*
X147635000Y-101505000D01*
X147635000Y-103505000D01*
X143635000Y-103505000D01*
X143635000Y-101505000D01*
G36*
X143635000Y-98965000D02*
X147635000Y-98965000D01*
X147635000Y-100965000D01*
X143635000Y-100965000D01*
X143635000Y-98965000D01*
G37*
X143635000Y-98965000D02*
X147635000Y-98965000D01*
X147635000Y-100965000D01*
X143635000Y-100965000D01*
X143635000Y-98965000D01*
G36*
X143635000Y-96425000D02*
X147635000Y-96425000D01*
X147635000Y-98425000D01*
X143635000Y-98425000D01*
X143635000Y-96425000D01*
G37*
X143635000Y-96425000D02*
X147635000Y-96425000D01*
X147635000Y-98425000D01*
X143635000Y-98425000D01*
X143635000Y-96425000D01*
G36*
X143635000Y-93885000D02*
X147635000Y-93885000D01*
X147635000Y-95885000D01*
X143635000Y-95885000D01*
X143635000Y-93885000D01*
G37*
X143635000Y-93885000D02*
X147635000Y-93885000D01*
X147635000Y-95885000D01*
X143635000Y-95885000D01*
X143635000Y-93885000D01*
G36*
X143635000Y-91345000D02*
X147635000Y-91345000D01*
X147635000Y-93345000D01*
X143635000Y-93345000D01*
X143635000Y-91345000D01*
G37*
X143635000Y-91345000D02*
X147635000Y-91345000D01*
X147635000Y-93345000D01*
X143635000Y-93345000D01*
X143635000Y-91345000D01*
G36*
X143635000Y-88805000D02*
X147635000Y-88805000D01*
X147635000Y-90805000D01*
X143635000Y-90805000D01*
X143635000Y-88805000D01*
G37*
X143635000Y-88805000D02*
X147635000Y-88805000D01*
X147635000Y-90805000D01*
X143635000Y-90805000D01*
X143635000Y-88805000D01*
G36*
X143635000Y-86265000D02*
X147635000Y-86265000D01*
X147635000Y-88265000D01*
X143635000Y-88265000D01*
X143635000Y-86265000D01*
G37*
X143635000Y-86265000D02*
X147635000Y-86265000D01*
X147635000Y-88265000D01*
X143635000Y-88265000D01*
X143635000Y-86265000D01*
D10*
X111721429Y-111714285D02*
X111721429Y-112714285D01*
X110221429Y-112071428D01*
X111721429Y-113571428D02*
X111721429Y-113714285D01*
X111650001Y-113857142D01*
X111578572Y-113928571D01*
X111435715Y-114000000D01*
X111150001Y-114071428D01*
X110792858Y-114071428D01*
X110507143Y-114000000D01*
X110364286Y-113928571D01*
X110292858Y-113857142D01*
X110221429Y-113714285D01*
X110221429Y-113571428D01*
X110292858Y-113428571D01*
X110364286Y-113357142D01*
X110507143Y-113285714D01*
X110792858Y-113214285D01*
X111150001Y-113214285D01*
X111435715Y-113285714D01*
X111578572Y-113357142D01*
X111650001Y-113428571D01*
X111721429Y-113571428D01*
X110364286Y-114714285D02*
X110292858Y-114785714D01*
X110221429Y-114714285D01*
X110292858Y-114642857D01*
X110364286Y-114714285D01*
X110221429Y-114714285D01*
X111721429Y-115714285D02*
X111721429Y-115857142D01*
X111650001Y-116000000D01*
X111578572Y-116071428D01*
X111435715Y-116142857D01*
X111150001Y-116214285D01*
X110792858Y-116214285D01*
X110507143Y-116142857D01*
X110364286Y-116071428D01*
X110292858Y-116000000D01*
X110221429Y-115857142D01*
X110221429Y-115714285D01*
X110292858Y-115571428D01*
X110364286Y-115500000D01*
X110507143Y-115428571D01*
X110792858Y-115357142D01*
X111150001Y-115357142D01*
X111435715Y-115428571D01*
X111578572Y-115500000D01*
X111650001Y-115571428D01*
X111721429Y-115714285D01*
X111721429Y-117142857D02*
X111721429Y-117285714D01*
X111650001Y-117428571D01*
X111578572Y-117500000D01*
X111435715Y-117571428D01*
X111150001Y-117642857D01*
X110792858Y-117642857D01*
X110507143Y-117571428D01*
X110364286Y-117500000D01*
X110292858Y-117428571D01*
X110221429Y-117285714D01*
X110221429Y-117142857D01*
X110292858Y-117000000D01*
X110364286Y-116928571D01*
X110507143Y-116857142D01*
X110792858Y-116785714D01*
X111150001Y-116785714D01*
X111435715Y-116857142D01*
X111578572Y-116928571D01*
X111650001Y-117000000D01*
X111721429Y-117142857D01*
X111721429Y-118571428D02*
X111721429Y-118714285D01*
X111650001Y-118857142D01*
X111578572Y-118928571D01*
X111435715Y-119000000D01*
X111150001Y-119071428D01*
X110792858Y-119071428D01*
X110507143Y-119000000D01*
X110364286Y-118928571D01*
X110292858Y-118857142D01*
X110221429Y-118714285D01*
X110221429Y-118571428D01*
X110292858Y-118428571D01*
X110364286Y-118357142D01*
X110507143Y-118285714D01*
X110792858Y-118214285D01*
X111150001Y-118214285D01*
X111435715Y-118285714D01*
X111578572Y-118357142D01*
X111650001Y-118428571D01*
X111721429Y-118571428D01*
X110221429Y-120857142D02*
X111221429Y-120857142D01*
X111078572Y-120857142D02*
X111150001Y-120928571D01*
X111221429Y-121071428D01*
X111221429Y-121285714D01*
X111150001Y-121428571D01*
X111007143Y-121500000D01*
X110221429Y-121500000D01*
X111007143Y-121500000D02*
X111150001Y-121571428D01*
X111221429Y-121714285D01*
X111221429Y-121928571D01*
X111150001Y-122071428D01*
X111007143Y-122142857D01*
X110221429Y-122142857D01*
X110221429Y-122857142D02*
X111221429Y-122857142D01*
X111078572Y-122857142D02*
X111150001Y-122928571D01*
X111221429Y-123071428D01*
X111221429Y-123285714D01*
X111150001Y-123428571D01*
X111007143Y-123500000D01*
X110221429Y-123500000D01*
X111007143Y-123500000D02*
X111150001Y-123571428D01*
X111221429Y-123714285D01*
X111221429Y-123928571D01*
X111150001Y-124071428D01*
X111007143Y-124142857D01*
X110221429Y-124142857D01*
X113000001Y-83000000D02*
X113000001Y-153000000D01*
X127000000Y-83000000D02*
X112413580Y-83000000D01*
X127000000Y-153000000D02*
X112413580Y-153000000D01*
X113000001Y-153000000D02*
X112413580Y-151873496D01*
X113000001Y-153000000D02*
X113586422Y-151873496D01*
X113000001Y-83000000D02*
X112413580Y-84126504D01*
X113000001Y-83000000D02*
X113586422Y-84126504D01*
D13*
X123217028Y-93703921D02*
X123271790Y-93649160D01*
X123381314Y-93594398D01*
X123655123Y-93594398D01*
X123764647Y-93649160D01*
X123819409Y-93703921D01*
X123874171Y-93813445D01*
X123874171Y-93922969D01*
X123819409Y-94087255D01*
X123162266Y-94744398D01*
X123874171Y-94744398D01*
X123764647Y-95990231D02*
X123764647Y-96756898D01*
X123490838Y-95552136D02*
X123217028Y-96373564D01*
X123928933Y-96373564D01*
X123764647Y-97619398D02*
X123545600Y-97619398D01*
X123436076Y-97674160D01*
X123381314Y-97728921D01*
X123271790Y-97893207D01*
X123217028Y-98112255D01*
X123217028Y-98550350D01*
X123271790Y-98659874D01*
X123326552Y-98714636D01*
X123436076Y-98769398D01*
X123655123Y-98769398D01*
X123764647Y-98714636D01*
X123819409Y-98659874D01*
X123874171Y-98550350D01*
X123874171Y-98276540D01*
X123819409Y-98167017D01*
X123764647Y-98112255D01*
X123655123Y-98057493D01*
X123436076Y-98057493D01*
X123326552Y-98112255D01*
X123271790Y-98167017D01*
X123217028Y-98276540D01*
X123436076Y-100124755D02*
X123326552Y-100069993D01*
X123271790Y-100015231D01*
X123217028Y-99905707D01*
X123217028Y-99850945D01*
X123271790Y-99741421D01*
X123326552Y-99686660D01*
X123436076Y-99631898D01*
X123655123Y-99631898D01*
X123764647Y-99686660D01*
X123819409Y-99741421D01*
X123874171Y-99850945D01*
X123874171Y-99905707D01*
X123819409Y-100015231D01*
X123764647Y-100069993D01*
X123655123Y-100124755D01*
X123436076Y-100124755D01*
X123326552Y-100179517D01*
X123271790Y-100234279D01*
X123217028Y-100343802D01*
X123217028Y-100562850D01*
X123271790Y-100672374D01*
X123326552Y-100727136D01*
X123436076Y-100781898D01*
X123655123Y-100781898D01*
X123764647Y-100727136D01*
X123819409Y-100672374D01*
X123874171Y-100562850D01*
X123874171Y-100343802D01*
X123819409Y-100234279D01*
X123764647Y-100179517D01*
X123655123Y-100124755D01*
X123326552Y-102794398D02*
X122669409Y-102794398D01*
X122997980Y-102794398D02*
X122997980Y-101644398D01*
X122888457Y-101808683D01*
X122778933Y-101918207D01*
X122669409Y-101972969D01*
X124038457Y-101644398D02*
X124147980Y-101644398D01*
X124257504Y-101699160D01*
X124312266Y-101753921D01*
X124367028Y-101863445D01*
X124421790Y-102082493D01*
X124421790Y-102356302D01*
X124367028Y-102575350D01*
X124312266Y-102684874D01*
X124257504Y-102739636D01*
X124147980Y-102794398D01*
X124038457Y-102794398D01*
X123928933Y-102739636D01*
X123874171Y-102684874D01*
X123819409Y-102575350D01*
X123764647Y-102356302D01*
X123764647Y-102082493D01*
X123819409Y-101863445D01*
X123874171Y-101753921D01*
X123928933Y-101699160D01*
X124038457Y-101644398D01*
X123326552Y-104806898D02*
X122669409Y-104806898D01*
X122997980Y-104806898D02*
X122997980Y-103656898D01*
X122888457Y-103821183D01*
X122778933Y-103930707D01*
X122669409Y-103985469D01*
X123764647Y-103766421D02*
X123819409Y-103711660D01*
X123928933Y-103656898D01*
X124202742Y-103656898D01*
X124312266Y-103711660D01*
X124367028Y-103766421D01*
X124421790Y-103875945D01*
X124421790Y-103985469D01*
X124367028Y-104149755D01*
X123709885Y-104806898D01*
X124421790Y-104806898D01*
X123326552Y-106819398D02*
X122669409Y-106819398D01*
X122997980Y-106819398D02*
X122997980Y-105669398D01*
X122888457Y-105833683D01*
X122778933Y-105943207D01*
X122669409Y-105997969D01*
X124312266Y-106052731D02*
X124312266Y-106819398D01*
X124038457Y-105614636D02*
X123764647Y-106436064D01*
X124476552Y-106436064D01*
X123326552Y-108831898D02*
X122669409Y-108831898D01*
X122997980Y-108831898D02*
X122997980Y-107681898D01*
X122888457Y-107846183D01*
X122778933Y-107955707D01*
X122669409Y-108010469D01*
X124312266Y-107681898D02*
X124093219Y-107681898D01*
X123983695Y-107736660D01*
X123928933Y-107791421D01*
X123819409Y-107955707D01*
X123764647Y-108174755D01*
X123764647Y-108612850D01*
X123819409Y-108722374D01*
X123874171Y-108777136D01*
X123983695Y-108831898D01*
X124202742Y-108831898D01*
X124312266Y-108777136D01*
X124367028Y-108722374D01*
X124421790Y-108612850D01*
X124421790Y-108339040D01*
X124367028Y-108229517D01*
X124312266Y-108174755D01*
X124202742Y-108119993D01*
X123983695Y-108119993D01*
X123874171Y-108174755D01*
X123819409Y-108229517D01*
X123764647Y-108339040D01*
X123326552Y-110844398D02*
X122669409Y-110844398D01*
X122997980Y-110844398D02*
X122997980Y-109694398D01*
X122888457Y-109858683D01*
X122778933Y-109968207D01*
X122669409Y-110022969D01*
X123983695Y-110187255D02*
X123874171Y-110132493D01*
X123819409Y-110077731D01*
X123764647Y-109968207D01*
X123764647Y-109913445D01*
X123819409Y-109803921D01*
X123874171Y-109749160D01*
X123983695Y-109694398D01*
X124202742Y-109694398D01*
X124312266Y-109749160D01*
X124367028Y-109803921D01*
X124421790Y-109913445D01*
X124421790Y-109968207D01*
X124367028Y-110077731D01*
X124312266Y-110132493D01*
X124202742Y-110187255D01*
X123983695Y-110187255D01*
X123874171Y-110242017D01*
X123819409Y-110296779D01*
X123764647Y-110406302D01*
X123764647Y-110625350D01*
X123819409Y-110734874D01*
X123874171Y-110789636D01*
X123983695Y-110844398D01*
X124202742Y-110844398D01*
X124312266Y-110789636D01*
X124367028Y-110734874D01*
X124421790Y-110625350D01*
X124421790Y-110406302D01*
X124367028Y-110296779D01*
X124312266Y-110242017D01*
X124202742Y-110187255D01*
X122669409Y-111816421D02*
X122724171Y-111761660D01*
X122833695Y-111706898D01*
X123107504Y-111706898D01*
X123217028Y-111761660D01*
X123271790Y-111816421D01*
X123326552Y-111925945D01*
X123326552Y-112035469D01*
X123271790Y-112199755D01*
X122614647Y-112856898D01*
X123326552Y-112856898D01*
X124038457Y-111706898D02*
X124147980Y-111706898D01*
X124257504Y-111761660D01*
X124312266Y-111816421D01*
X124367028Y-111925945D01*
X124421790Y-112144993D01*
X124421790Y-112418802D01*
X124367028Y-112637850D01*
X124312266Y-112747374D01*
X124257504Y-112802136D01*
X124147980Y-112856898D01*
X124038457Y-112856898D01*
X123928933Y-112802136D01*
X123874171Y-112747374D01*
X123819409Y-112637850D01*
X123764647Y-112418802D01*
X123764647Y-112144993D01*
X123819409Y-111925945D01*
X123874171Y-111816421D01*
X123928933Y-111761660D01*
X124038457Y-111706898D01*
X122669409Y-113828921D02*
X122724171Y-113774160D01*
X122833695Y-113719398D01*
X123107504Y-113719398D01*
X123217028Y-113774160D01*
X123271790Y-113828921D01*
X123326552Y-113938445D01*
X123326552Y-114047969D01*
X123271790Y-114212255D01*
X122614647Y-114869398D01*
X123326552Y-114869398D01*
X123764647Y-113828921D02*
X123819409Y-113774160D01*
X123928933Y-113719398D01*
X124202742Y-113719398D01*
X124312266Y-113774160D01*
X124367028Y-113828921D01*
X124421790Y-113938445D01*
X124421790Y-114047969D01*
X124367028Y-114212255D01*
X123709885Y-114869398D01*
X124421790Y-114869398D01*
X122669409Y-115841421D02*
X122724171Y-115786660D01*
X122833695Y-115731898D01*
X123107504Y-115731898D01*
X123217028Y-115786660D01*
X123271790Y-115841421D01*
X123326552Y-115950945D01*
X123326552Y-116060469D01*
X123271790Y-116224755D01*
X122614647Y-116881898D01*
X123326552Y-116881898D01*
X124312266Y-116115231D02*
X124312266Y-116881898D01*
X124038457Y-115677136D02*
X123764647Y-116498564D01*
X124476552Y-116498564D01*
X122669409Y-117853921D02*
X122724171Y-117799160D01*
X122833695Y-117744398D01*
X123107504Y-117744398D01*
X123217028Y-117799160D01*
X123271790Y-117853921D01*
X123326552Y-117963445D01*
X123326552Y-118072969D01*
X123271790Y-118237255D01*
X122614647Y-118894398D01*
X123326552Y-118894398D01*
X124312266Y-117744398D02*
X124093219Y-117744398D01*
X123983695Y-117799160D01*
X123928933Y-117853921D01*
X123819409Y-118018207D01*
X123764647Y-118237255D01*
X123764647Y-118675350D01*
X123819409Y-118784874D01*
X123874171Y-118839636D01*
X123983695Y-118894398D01*
X124202742Y-118894398D01*
X124312266Y-118839636D01*
X124367028Y-118784874D01*
X124421790Y-118675350D01*
X124421790Y-118401540D01*
X124367028Y-118292017D01*
X124312266Y-118237255D01*
X124202742Y-118182493D01*
X123983695Y-118182493D01*
X123874171Y-118237255D01*
X123819409Y-118292017D01*
X123764647Y-118401540D01*
X122669409Y-119866421D02*
X122724171Y-119811660D01*
X122833695Y-119756898D01*
X123107504Y-119756898D01*
X123217028Y-119811660D01*
X123271790Y-119866421D01*
X123326552Y-119975945D01*
X123326552Y-120085469D01*
X123271790Y-120249755D01*
X122614647Y-120906898D01*
X123326552Y-120906898D01*
X123983695Y-120249755D02*
X123874171Y-120194993D01*
X123819409Y-120140231D01*
X123764647Y-120030707D01*
X123764647Y-119975945D01*
X123819409Y-119866421D01*
X123874171Y-119811660D01*
X123983695Y-119756898D01*
X124202742Y-119756898D01*
X124312266Y-119811660D01*
X124367028Y-119866421D01*
X124421790Y-119975945D01*
X124421790Y-120030707D01*
X124367028Y-120140231D01*
X124312266Y-120194993D01*
X124202742Y-120249755D01*
X123983695Y-120249755D01*
X123874171Y-120304517D01*
X123819409Y-120359279D01*
X123764647Y-120468802D01*
X123764647Y-120687850D01*
X123819409Y-120797374D01*
X123874171Y-120852136D01*
X123983695Y-120906898D01*
X124202742Y-120906898D01*
X124312266Y-120852136D01*
X124367028Y-120797374D01*
X124421790Y-120687850D01*
X124421790Y-120468802D01*
X124367028Y-120359279D01*
X124312266Y-120304517D01*
X124202742Y-120249755D01*
X122614647Y-121769398D02*
X123326552Y-121769398D01*
X122943219Y-122207493D01*
X123107504Y-122207493D01*
X123217028Y-122262255D01*
X123271790Y-122317017D01*
X123326552Y-122426540D01*
X123326552Y-122700350D01*
X123271790Y-122809874D01*
X123217028Y-122864636D01*
X123107504Y-122919398D01*
X122778933Y-122919398D01*
X122669409Y-122864636D01*
X122614647Y-122809874D01*
X124038457Y-121769398D02*
X124147980Y-121769398D01*
X124257504Y-121824160D01*
X124312266Y-121878921D01*
X124367028Y-121988445D01*
X124421790Y-122207493D01*
X124421790Y-122481302D01*
X124367028Y-122700350D01*
X124312266Y-122809874D01*
X124257504Y-122864636D01*
X124147980Y-122919398D01*
X124038457Y-122919398D01*
X123928933Y-122864636D01*
X123874171Y-122809874D01*
X123819409Y-122700350D01*
X123764647Y-122481302D01*
X123764647Y-122207493D01*
X123819409Y-121988445D01*
X123874171Y-121878921D01*
X123928933Y-121824160D01*
X124038457Y-121769398D01*
X122614647Y-123781898D02*
X123326552Y-123781898D01*
X122943219Y-124219993D01*
X123107504Y-124219993D01*
X123217028Y-124274755D01*
X123271790Y-124329517D01*
X123326552Y-124439040D01*
X123326552Y-124712850D01*
X123271790Y-124822374D01*
X123217028Y-124877136D01*
X123107504Y-124931898D01*
X122778933Y-124931898D01*
X122669409Y-124877136D01*
X122614647Y-124822374D01*
X123764647Y-123891421D02*
X123819409Y-123836660D01*
X123928933Y-123781898D01*
X124202742Y-123781898D01*
X124312266Y-123836660D01*
X124367028Y-123891421D01*
X124421790Y-124000945D01*
X124421790Y-124110469D01*
X124367028Y-124274755D01*
X123709885Y-124931898D01*
X124421790Y-124931898D01*
X122614647Y-125794398D02*
X123326552Y-125794398D01*
X122943219Y-126232493D01*
X123107504Y-126232493D01*
X123217028Y-126287255D01*
X123271790Y-126342017D01*
X123326552Y-126451540D01*
X123326552Y-126725350D01*
X123271790Y-126834874D01*
X123217028Y-126889636D01*
X123107504Y-126944398D01*
X122778933Y-126944398D01*
X122669409Y-126889636D01*
X122614647Y-126834874D01*
X124312266Y-126177731D02*
X124312266Y-126944398D01*
X124038457Y-125739636D02*
X123764647Y-126561064D01*
X124476552Y-126561064D01*
X122614647Y-127806898D02*
X123326552Y-127806898D01*
X122943219Y-128244993D01*
X123107504Y-128244993D01*
X123217028Y-128299755D01*
X123271790Y-128354517D01*
X123326552Y-128464040D01*
X123326552Y-128737850D01*
X123271790Y-128847374D01*
X123217028Y-128902136D01*
X123107504Y-128956898D01*
X122778933Y-128956898D01*
X122669409Y-128902136D01*
X122614647Y-128847374D01*
X124312266Y-127806898D02*
X124093219Y-127806898D01*
X123983695Y-127861660D01*
X123928933Y-127916421D01*
X123819409Y-128080707D01*
X123764647Y-128299755D01*
X123764647Y-128737850D01*
X123819409Y-128847374D01*
X123874171Y-128902136D01*
X123983695Y-128956898D01*
X124202742Y-128956898D01*
X124312266Y-128902136D01*
X124367028Y-128847374D01*
X124421790Y-128737850D01*
X124421790Y-128464040D01*
X124367028Y-128354517D01*
X124312266Y-128299755D01*
X124202742Y-128244993D01*
X123983695Y-128244993D01*
X123874171Y-128299755D01*
X123819409Y-128354517D01*
X123764647Y-128464040D01*
X122614647Y-129819398D02*
X123326552Y-129819398D01*
X122943219Y-130257493D01*
X123107504Y-130257493D01*
X123217028Y-130312255D01*
X123271790Y-130367017D01*
X123326552Y-130476540D01*
X123326552Y-130750350D01*
X123271790Y-130859874D01*
X123217028Y-130914636D01*
X123107504Y-130969398D01*
X122778933Y-130969398D01*
X122669409Y-130914636D01*
X122614647Y-130859874D01*
X123983695Y-130312255D02*
X123874171Y-130257493D01*
X123819409Y-130202731D01*
X123764647Y-130093207D01*
X123764647Y-130038445D01*
X123819409Y-129928921D01*
X123874171Y-129874160D01*
X123983695Y-129819398D01*
X124202742Y-129819398D01*
X124312266Y-129874160D01*
X124367028Y-129928921D01*
X124421790Y-130038445D01*
X124421790Y-130093207D01*
X124367028Y-130202731D01*
X124312266Y-130257493D01*
X124202742Y-130312255D01*
X123983695Y-130312255D01*
X123874171Y-130367017D01*
X123819409Y-130421779D01*
X123764647Y-130531302D01*
X123764647Y-130750350D01*
X123819409Y-130859874D01*
X123874171Y-130914636D01*
X123983695Y-130969398D01*
X124202742Y-130969398D01*
X124312266Y-130914636D01*
X124367028Y-130859874D01*
X124421790Y-130750350D01*
X124421790Y-130531302D01*
X124367028Y-130421779D01*
X124312266Y-130367017D01*
X124202742Y-130312255D01*
X123217028Y-132215231D02*
X123217028Y-132981898D01*
X122943219Y-131777136D02*
X122669409Y-132598564D01*
X123381314Y-132598564D01*
X124038457Y-131831898D02*
X124147980Y-131831898D01*
X124257504Y-131886660D01*
X124312266Y-131941421D01*
X124367028Y-132050945D01*
X124421790Y-132269993D01*
X124421790Y-132543802D01*
X124367028Y-132762850D01*
X124312266Y-132872374D01*
X124257504Y-132927136D01*
X124147980Y-132981898D01*
X124038457Y-132981898D01*
X123928933Y-132927136D01*
X123874171Y-132872374D01*
X123819409Y-132762850D01*
X123764647Y-132543802D01*
X123764647Y-132269993D01*
X123819409Y-132050945D01*
X123874171Y-131941421D01*
X123928933Y-131886660D01*
X124038457Y-131831898D01*
X123217028Y-134227731D02*
X123217028Y-134994398D01*
X122943219Y-133789636D02*
X122669409Y-134611064D01*
X123381314Y-134611064D01*
X123764647Y-133953921D02*
X123819409Y-133899160D01*
X123928933Y-133844398D01*
X124202742Y-133844398D01*
X124312266Y-133899160D01*
X124367028Y-133953921D01*
X124421790Y-134063445D01*
X124421790Y-134172969D01*
X124367028Y-134337255D01*
X123709885Y-134994398D01*
X124421790Y-134994398D01*
X123217028Y-136240231D02*
X123217028Y-137006898D01*
X122943219Y-135802136D02*
X122669409Y-136623564D01*
X123381314Y-136623564D01*
X124312266Y-136240231D02*
X124312266Y-137006898D01*
X124038457Y-135802136D02*
X123764647Y-136623564D01*
X124476552Y-136623564D01*
X123217028Y-138252731D02*
X123217028Y-139019398D01*
X122943219Y-137814636D02*
X122669409Y-138636064D01*
X123381314Y-138636064D01*
X124312266Y-137869398D02*
X124093219Y-137869398D01*
X123983695Y-137924160D01*
X123928933Y-137978921D01*
X123819409Y-138143207D01*
X123764647Y-138362255D01*
X123764647Y-138800350D01*
X123819409Y-138909874D01*
X123874171Y-138964636D01*
X123983695Y-139019398D01*
X124202742Y-139019398D01*
X124312266Y-138964636D01*
X124367028Y-138909874D01*
X124421790Y-138800350D01*
X124421790Y-138526540D01*
X124367028Y-138417017D01*
X124312266Y-138362255D01*
X124202742Y-138307493D01*
X123983695Y-138307493D01*
X123874171Y-138362255D01*
X123819409Y-138417017D01*
X123764647Y-138526540D01*
X123217028Y-140265231D02*
X123217028Y-141031898D01*
X122943219Y-139827136D02*
X122669409Y-140648564D01*
X123381314Y-140648564D01*
X123983695Y-140374755D02*
X123874171Y-140319993D01*
X123819409Y-140265231D01*
X123764647Y-140155707D01*
X123764647Y-140100945D01*
X123819409Y-139991421D01*
X123874171Y-139936660D01*
X123983695Y-139881898D01*
X124202742Y-139881898D01*
X124312266Y-139936660D01*
X124367028Y-139991421D01*
X124421790Y-140100945D01*
X124421790Y-140155707D01*
X124367028Y-140265231D01*
X124312266Y-140319993D01*
X124202742Y-140374755D01*
X123983695Y-140374755D01*
X123874171Y-140429517D01*
X123819409Y-140484279D01*
X123764647Y-140593802D01*
X123764647Y-140812850D01*
X123819409Y-140922374D01*
X123874171Y-140977136D01*
X123983695Y-141031898D01*
X124202742Y-141031898D01*
X124312266Y-140977136D01*
X124367028Y-140922374D01*
X124421790Y-140812850D01*
X124421790Y-140593802D01*
X124367028Y-140484279D01*
X124312266Y-140429517D01*
X124202742Y-140374755D01*
X123271790Y-141894398D02*
X122724171Y-141894398D01*
X122669409Y-142442017D01*
X122724171Y-142387255D01*
X122833695Y-142332493D01*
X123107504Y-142332493D01*
X123217028Y-142387255D01*
X123271790Y-142442017D01*
X123326552Y-142551540D01*
X123326552Y-142825350D01*
X123271790Y-142934874D01*
X123217028Y-142989636D01*
X123107504Y-143044398D01*
X122833695Y-143044398D01*
X122724171Y-142989636D01*
X122669409Y-142934874D01*
X124038457Y-141894398D02*
X124147980Y-141894398D01*
X124257504Y-141949160D01*
X124312266Y-142003921D01*
X124367028Y-142113445D01*
X124421790Y-142332493D01*
X124421790Y-142606302D01*
X124367028Y-142825350D01*
X124312266Y-142934874D01*
X124257504Y-142989636D01*
X124147980Y-143044398D01*
X124038457Y-143044398D01*
X123928933Y-142989636D01*
X123874171Y-142934874D01*
X123819409Y-142825350D01*
X123764647Y-142606302D01*
X123764647Y-142332493D01*
X123819409Y-142113445D01*
X123874171Y-142003921D01*
X123928933Y-141949160D01*
X124038457Y-141894398D01*
D11*
X114871457Y-95194398D02*
X114185742Y-95194398D01*
X114528600Y-95194398D02*
X114528600Y-94044398D01*
X114414314Y-94208683D01*
X114300028Y-94318207D01*
X114185742Y-94372969D01*
X114128600Y-96019398D02*
X114871457Y-96019398D01*
X114471457Y-96457493D01*
X114642885Y-96457493D01*
X114757171Y-96512255D01*
X114814314Y-96567017D01*
X114871457Y-96676540D01*
X114871457Y-96950350D01*
X114814314Y-97059874D01*
X114757171Y-97114636D01*
X114642885Y-97169398D01*
X114300028Y-97169398D01*
X114185742Y-97114636D01*
X114128600Y-97059874D01*
X114814314Y-97994398D02*
X114242885Y-97994398D01*
X114185742Y-98542017D01*
X114242885Y-98487255D01*
X114357171Y-98432493D01*
X114642885Y-98432493D01*
X114757171Y-98487255D01*
X114814314Y-98542017D01*
X114871457Y-98651540D01*
X114871457Y-98925350D01*
X114814314Y-99034874D01*
X114757171Y-99089636D01*
X114642885Y-99144398D01*
X114357171Y-99144398D01*
X114242885Y-99089636D01*
X114185742Y-99034874D01*
X114128600Y-99969398D02*
X114928600Y-99969398D01*
X114414314Y-101119398D01*
X114300028Y-103094398D02*
X114528600Y-103094398D01*
X114642885Y-103039636D01*
X114700028Y-102984874D01*
X114814314Y-102820588D01*
X114871457Y-102601540D01*
X114871457Y-102163445D01*
X114814314Y-102053921D01*
X114757171Y-101999160D01*
X114642885Y-101944398D01*
X114414314Y-101944398D01*
X114300028Y-101999160D01*
X114242885Y-102053921D01*
X114185742Y-102163445D01*
X114185742Y-102437255D01*
X114242885Y-102546779D01*
X114300028Y-102601540D01*
X114414314Y-102656302D01*
X114642885Y-102656302D01*
X114757171Y-102601540D01*
X114814314Y-102546779D01*
X114871457Y-102437255D01*
X114300028Y-105069398D02*
X113614314Y-105069398D01*
X113957171Y-105069398D02*
X113957171Y-103919398D01*
X113842885Y-104083683D01*
X113728600Y-104193207D01*
X113614314Y-104247969D01*
X115442885Y-105069398D02*
X114757171Y-105069398D01*
X115100028Y-105069398D02*
X115100028Y-103919398D01*
X114985742Y-104083683D01*
X114871457Y-104193207D01*
X114757171Y-104247969D01*
X114300028Y-107044398D02*
X113614314Y-107044398D01*
X113957171Y-107044398D02*
X113957171Y-105894398D01*
X113842885Y-106058683D01*
X113728600Y-106168207D01*
X113614314Y-106222969D01*
X114700028Y-105894398D02*
X115442885Y-105894398D01*
X115042885Y-106332493D01*
X115214314Y-106332493D01*
X115328600Y-106387255D01*
X115385742Y-106442017D01*
X115442885Y-106551540D01*
X115442885Y-106825350D01*
X115385742Y-106934874D01*
X115328600Y-106989636D01*
X115214314Y-107044398D01*
X114871457Y-107044398D01*
X114757171Y-106989636D01*
X114700028Y-106934874D01*
X114300028Y-109019398D02*
X113614314Y-109019398D01*
X113957171Y-109019398D02*
X113957171Y-107869398D01*
X113842885Y-108033683D01*
X113728600Y-108143207D01*
X113614314Y-108197969D01*
X115385742Y-107869398D02*
X114814314Y-107869398D01*
X114757171Y-108417017D01*
X114814314Y-108362255D01*
X114928600Y-108307493D01*
X115214314Y-108307493D01*
X115328600Y-108362255D01*
X115385742Y-108417017D01*
X115442885Y-108526540D01*
X115442885Y-108800350D01*
X115385742Y-108909874D01*
X115328600Y-108964636D01*
X115214314Y-109019398D01*
X114928600Y-109019398D01*
X114814314Y-108964636D01*
X114757171Y-108909874D01*
X114300028Y-110994398D02*
X113614314Y-110994398D01*
X113957171Y-110994398D02*
X113957171Y-109844398D01*
X113842885Y-110008683D01*
X113728600Y-110118207D01*
X113614314Y-110172969D01*
X114700028Y-109844398D02*
X115500028Y-109844398D01*
X114985742Y-110994398D01*
X114300028Y-112969398D02*
X113614314Y-112969398D01*
X113957171Y-112969398D02*
X113957171Y-111819398D01*
X113842885Y-111983683D01*
X113728600Y-112093207D01*
X113614314Y-112147969D01*
X114871457Y-112969398D02*
X115100028Y-112969398D01*
X115214314Y-112914636D01*
X115271457Y-112859874D01*
X115385742Y-112695588D01*
X115442885Y-112476540D01*
X115442885Y-112038445D01*
X115385742Y-111928921D01*
X115328600Y-111874160D01*
X115214314Y-111819398D01*
X114985742Y-111819398D01*
X114871457Y-111874160D01*
X114814314Y-111928921D01*
X114757171Y-112038445D01*
X114757171Y-112312255D01*
X114814314Y-112421779D01*
X114871457Y-112476540D01*
X114985742Y-112531302D01*
X115214314Y-112531302D01*
X115328600Y-112476540D01*
X115385742Y-112421779D01*
X115442885Y-112312255D01*
X113614314Y-113903921D02*
X113671457Y-113849160D01*
X113785742Y-113794398D01*
X114071457Y-113794398D01*
X114185742Y-113849160D01*
X114242885Y-113903921D01*
X114300028Y-114013445D01*
X114300028Y-114122969D01*
X114242885Y-114287255D01*
X113557171Y-114944398D01*
X114300028Y-114944398D01*
X115442885Y-114944398D02*
X114757171Y-114944398D01*
X115100028Y-114944398D02*
X115100028Y-113794398D01*
X114985742Y-113958683D01*
X114871457Y-114068207D01*
X114757171Y-114122969D01*
X113614314Y-115878921D02*
X113671457Y-115824160D01*
X113785742Y-115769398D01*
X114071457Y-115769398D01*
X114185742Y-115824160D01*
X114242885Y-115878921D01*
X114300028Y-115988445D01*
X114300028Y-116097969D01*
X114242885Y-116262255D01*
X113557171Y-116919398D01*
X114300028Y-116919398D01*
X114700028Y-115769398D02*
X115442885Y-115769398D01*
X115042885Y-116207493D01*
X115214314Y-116207493D01*
X115328600Y-116262255D01*
X115385742Y-116317017D01*
X115442885Y-116426540D01*
X115442885Y-116700350D01*
X115385742Y-116809874D01*
X115328600Y-116864636D01*
X115214314Y-116919398D01*
X114871457Y-116919398D01*
X114757171Y-116864636D01*
X114700028Y-116809874D01*
X113614314Y-117853921D02*
X113671457Y-117799160D01*
X113785742Y-117744398D01*
X114071457Y-117744398D01*
X114185742Y-117799160D01*
X114242885Y-117853921D01*
X114300028Y-117963445D01*
X114300028Y-118072969D01*
X114242885Y-118237255D01*
X113557171Y-118894398D01*
X114300028Y-118894398D01*
X115385742Y-117744398D02*
X114814314Y-117744398D01*
X114757171Y-118292017D01*
X114814314Y-118237255D01*
X114928600Y-118182493D01*
X115214314Y-118182493D01*
X115328600Y-118237255D01*
X115385742Y-118292017D01*
X115442885Y-118401540D01*
X115442885Y-118675350D01*
X115385742Y-118784874D01*
X115328600Y-118839636D01*
X115214314Y-118894398D01*
X114928600Y-118894398D01*
X114814314Y-118839636D01*
X114757171Y-118784874D01*
X113614314Y-119828921D02*
X113671457Y-119774160D01*
X113785742Y-119719398D01*
X114071457Y-119719398D01*
X114185742Y-119774160D01*
X114242885Y-119828921D01*
X114300028Y-119938445D01*
X114300028Y-120047969D01*
X114242885Y-120212255D01*
X113557171Y-120869398D01*
X114300028Y-120869398D01*
X114700028Y-119719398D02*
X115500028Y-119719398D01*
X114985742Y-120869398D01*
X113614314Y-121803921D02*
X113671457Y-121749160D01*
X113785742Y-121694398D01*
X114071457Y-121694398D01*
X114185742Y-121749160D01*
X114242885Y-121803921D01*
X114300028Y-121913445D01*
X114300028Y-122022969D01*
X114242885Y-122187255D01*
X113557171Y-122844398D01*
X114300028Y-122844398D01*
X114871457Y-122844398D02*
X115100028Y-122844398D01*
X115214314Y-122789636D01*
X115271457Y-122734874D01*
X115385742Y-122570588D01*
X115442885Y-122351540D01*
X115442885Y-121913445D01*
X115385742Y-121803921D01*
X115328600Y-121749160D01*
X115214314Y-121694398D01*
X114985742Y-121694398D01*
X114871457Y-121749160D01*
X114814314Y-121803921D01*
X114757171Y-121913445D01*
X114757171Y-122187255D01*
X114814314Y-122296779D01*
X114871457Y-122351540D01*
X114985742Y-122406302D01*
X115214314Y-122406302D01*
X115328600Y-122351540D01*
X115385742Y-122296779D01*
X115442885Y-122187255D01*
X113557171Y-123669398D02*
X114300028Y-123669398D01*
X113900028Y-124107493D01*
X114071457Y-124107493D01*
X114185742Y-124162255D01*
X114242885Y-124217017D01*
X114300028Y-124326540D01*
X114300028Y-124600350D01*
X114242885Y-124709874D01*
X114185742Y-124764636D01*
X114071457Y-124819398D01*
X113728600Y-124819398D01*
X113614314Y-124764636D01*
X113557171Y-124709874D01*
X115442885Y-124819398D02*
X114757171Y-124819398D01*
X115100028Y-124819398D02*
X115100028Y-123669398D01*
X114985742Y-123833683D01*
X114871457Y-123943207D01*
X114757171Y-123997969D01*
X113557171Y-125644398D02*
X114300028Y-125644398D01*
X113900028Y-126082493D01*
X114071457Y-126082493D01*
X114185742Y-126137255D01*
X114242885Y-126192017D01*
X114300028Y-126301540D01*
X114300028Y-126575350D01*
X114242885Y-126684874D01*
X114185742Y-126739636D01*
X114071457Y-126794398D01*
X113728600Y-126794398D01*
X113614314Y-126739636D01*
X113557171Y-126684874D01*
X114700028Y-125644398D02*
X115442885Y-125644398D01*
X115042885Y-126082493D01*
X115214314Y-126082493D01*
X115328600Y-126137255D01*
X115385742Y-126192017D01*
X115442885Y-126301540D01*
X115442885Y-126575350D01*
X115385742Y-126684874D01*
X115328600Y-126739636D01*
X115214314Y-126794398D01*
X114871457Y-126794398D01*
X114757171Y-126739636D01*
X114700028Y-126684874D01*
X113557171Y-127619398D02*
X114300028Y-127619398D01*
X113900028Y-128057493D01*
X114071457Y-128057493D01*
X114185742Y-128112255D01*
X114242885Y-128167017D01*
X114300028Y-128276540D01*
X114300028Y-128550350D01*
X114242885Y-128659874D01*
X114185742Y-128714636D01*
X114071457Y-128769398D01*
X113728600Y-128769398D01*
X113614314Y-128714636D01*
X113557171Y-128659874D01*
X115385742Y-127619398D02*
X114814314Y-127619398D01*
X114757171Y-128167017D01*
X114814314Y-128112255D01*
X114928600Y-128057493D01*
X115214314Y-128057493D01*
X115328600Y-128112255D01*
X115385742Y-128167017D01*
X115442885Y-128276540D01*
X115442885Y-128550350D01*
X115385742Y-128659874D01*
X115328600Y-128714636D01*
X115214314Y-128769398D01*
X114928600Y-128769398D01*
X114814314Y-128714636D01*
X114757171Y-128659874D01*
X113557171Y-129594398D02*
X114300028Y-129594398D01*
X113900028Y-130032493D01*
X114071457Y-130032493D01*
X114185742Y-130087255D01*
X114242885Y-130142017D01*
X114300028Y-130251540D01*
X114300028Y-130525350D01*
X114242885Y-130634874D01*
X114185742Y-130689636D01*
X114071457Y-130744398D01*
X113728600Y-130744398D01*
X113614314Y-130689636D01*
X113557171Y-130634874D01*
X114700028Y-129594398D02*
X115500028Y-129594398D01*
X114985742Y-130744398D01*
X113557171Y-131569398D02*
X114300028Y-131569398D01*
X113900028Y-132007493D01*
X114071457Y-132007493D01*
X114185742Y-132062255D01*
X114242885Y-132117017D01*
X114300028Y-132226540D01*
X114300028Y-132500350D01*
X114242885Y-132609874D01*
X114185742Y-132664636D01*
X114071457Y-132719398D01*
X113728600Y-132719398D01*
X113614314Y-132664636D01*
X113557171Y-132609874D01*
X114871457Y-132719398D02*
X115100028Y-132719398D01*
X115214314Y-132664636D01*
X115271457Y-132609874D01*
X115385742Y-132445588D01*
X115442885Y-132226540D01*
X115442885Y-131788445D01*
X115385742Y-131678921D01*
X115328600Y-131624160D01*
X115214314Y-131569398D01*
X114985742Y-131569398D01*
X114871457Y-131624160D01*
X114814314Y-131678921D01*
X114757171Y-131788445D01*
X114757171Y-132062255D01*
X114814314Y-132171779D01*
X114871457Y-132226540D01*
X114985742Y-132281302D01*
X115214314Y-132281302D01*
X115328600Y-132226540D01*
X115385742Y-132171779D01*
X115442885Y-132062255D01*
X114185742Y-133927731D02*
X114185742Y-134694398D01*
X113900028Y-133489636D02*
X113614314Y-134311064D01*
X114357171Y-134311064D01*
X115442885Y-134694398D02*
X114757171Y-134694398D01*
X115100028Y-134694398D02*
X115100028Y-133544398D01*
X114985742Y-133708683D01*
X114871457Y-133818207D01*
X114757171Y-133872969D01*
X114185742Y-135902731D02*
X114185742Y-136669398D01*
X113900028Y-135464636D02*
X113614314Y-136286064D01*
X114357171Y-136286064D01*
X114700028Y-135519398D02*
X115442885Y-135519398D01*
X115042885Y-135957493D01*
X115214314Y-135957493D01*
X115328600Y-136012255D01*
X115385742Y-136067017D01*
X115442885Y-136176540D01*
X115442885Y-136450350D01*
X115385742Y-136559874D01*
X115328600Y-136614636D01*
X115214314Y-136669398D01*
X114871457Y-136669398D01*
X114757171Y-136614636D01*
X114700028Y-136559874D01*
X114185742Y-137877731D02*
X114185742Y-138644398D01*
X113900028Y-137439636D02*
X113614314Y-138261064D01*
X114357171Y-138261064D01*
X115385742Y-137494398D02*
X114814314Y-137494398D01*
X114757171Y-138042017D01*
X114814314Y-137987255D01*
X114928600Y-137932493D01*
X115214314Y-137932493D01*
X115328600Y-137987255D01*
X115385742Y-138042017D01*
X115442885Y-138151540D01*
X115442885Y-138425350D01*
X115385742Y-138534874D01*
X115328600Y-138589636D01*
X115214314Y-138644398D01*
X114928600Y-138644398D01*
X114814314Y-138589636D01*
X114757171Y-138534874D01*
X114185742Y-139852731D02*
X114185742Y-140619398D01*
X113900028Y-139414636D02*
X113614314Y-140236064D01*
X114357171Y-140236064D01*
X114700028Y-139469398D02*
X115500028Y-139469398D01*
X114985742Y-140619398D01*
X114185742Y-141827731D02*
X114185742Y-142594398D01*
X113900028Y-141389636D02*
X113614314Y-142211064D01*
X114357171Y-142211064D01*
X114871457Y-142594398D02*
X115100028Y-142594398D01*
X115214314Y-142539636D01*
X115271457Y-142484874D01*
X115385742Y-142320588D01*
X115442885Y-142101540D01*
X115442885Y-141663445D01*
X115385742Y-141553921D01*
X115328600Y-141499160D01*
X115214314Y-141444398D01*
X114985742Y-141444398D01*
X114871457Y-141499160D01*
X114814314Y-141553921D01*
X114757171Y-141663445D01*
X114757171Y-141937255D01*
X114814314Y-142046779D01*
X114871457Y-142101540D01*
X114985742Y-142156302D01*
X115214314Y-142156302D01*
X115328600Y-142101540D01*
X115385742Y-142046779D01*
X115442885Y-141937255D01*
D10*
X132174668Y-86592668D02*
X132246097Y-86521240D01*
X132388954Y-86449811D01*
X132746097Y-86449811D01*
X132888954Y-86521240D01*
X132960382Y-86592668D01*
X133031811Y-86735525D01*
X133031811Y-86878382D01*
X132960382Y-87092668D01*
X132103240Y-87949811D01*
X133031811Y-87949811D01*
X132888954Y-89499811D02*
X132888954Y-90499811D01*
X132531811Y-88928382D02*
X132174668Y-89999811D01*
X133103240Y-89999811D01*
X132888954Y-91549811D02*
X132603240Y-91549811D01*
X132460382Y-91621240D01*
X132388954Y-91692668D01*
X132246097Y-91906954D01*
X132174668Y-92192668D01*
X132174668Y-92764097D01*
X132246097Y-92906954D01*
X132317525Y-92978382D01*
X132460382Y-93049811D01*
X132746097Y-93049811D01*
X132888954Y-92978382D01*
X132960382Y-92906954D01*
X133031811Y-92764097D01*
X133031811Y-92406954D01*
X132960382Y-92264097D01*
X132888954Y-92192668D01*
X132746097Y-92121240D01*
X132460382Y-92121240D01*
X132317525Y-92192668D01*
X132246097Y-92264097D01*
X132174668Y-92406954D01*
X132460382Y-94742668D02*
X132317525Y-94671240D01*
X132246097Y-94599811D01*
X132174668Y-94456954D01*
X132174668Y-94385525D01*
X132246097Y-94242668D01*
X132317525Y-94171240D01*
X132460382Y-94099811D01*
X132746097Y-94099811D01*
X132888954Y-94171240D01*
X132960382Y-94242668D01*
X133031811Y-94385525D01*
X133031811Y-94456954D01*
X132960382Y-94599811D01*
X132888954Y-94671240D01*
X132746097Y-94742668D01*
X132460382Y-94742668D01*
X132317525Y-94814097D01*
X132246097Y-94885525D01*
X132174668Y-95028382D01*
X132174668Y-95314097D01*
X132246097Y-95456954D01*
X132317525Y-95528382D01*
X132460382Y-95599811D01*
X132746097Y-95599811D01*
X132888954Y-95528382D01*
X132960382Y-95456954D01*
X133031811Y-95314097D01*
X133031811Y-95028382D01*
X132960382Y-94885525D01*
X132888954Y-94814097D01*
X132746097Y-94742668D01*
X132317525Y-98149811D02*
X131460382Y-98149811D01*
X131888954Y-98149811D02*
X131888954Y-96649811D01*
X131746097Y-96864097D01*
X131603240Y-97006954D01*
X131460382Y-97078382D01*
X133246097Y-96649811D02*
X133388954Y-96649811D01*
X133531811Y-96721240D01*
X133603240Y-96792668D01*
X133674668Y-96935525D01*
X133746097Y-97221240D01*
X133746097Y-97578382D01*
X133674668Y-97864097D01*
X133603240Y-98006954D01*
X133531811Y-98078382D01*
X133388954Y-98149811D01*
X133246097Y-98149811D01*
X133103240Y-98078382D01*
X133031811Y-98006954D01*
X132960382Y-97864097D01*
X132888954Y-97578382D01*
X132888954Y-97221240D01*
X132960382Y-96935525D01*
X133031811Y-96792668D01*
X133103240Y-96721240D01*
X133246097Y-96649811D01*
X132317525Y-100699811D02*
X131460382Y-100699811D01*
X131888954Y-100699811D02*
X131888954Y-99199811D01*
X131746097Y-99414097D01*
X131603240Y-99556954D01*
X131460382Y-99628382D01*
X132888954Y-99342668D02*
X132960382Y-99271240D01*
X133103240Y-99199811D01*
X133460382Y-99199811D01*
X133603240Y-99271240D01*
X133674668Y-99342668D01*
X133746097Y-99485525D01*
X133746097Y-99628382D01*
X133674668Y-99842668D01*
X132817525Y-100699811D01*
X133746097Y-100699811D01*
X132317525Y-103249811D02*
X131460382Y-103249811D01*
X131888954Y-103249811D02*
X131888954Y-101749811D01*
X131746097Y-101964097D01*
X131603240Y-102106954D01*
X131460382Y-102178382D01*
X133603240Y-102249811D02*
X133603240Y-103249811D01*
X133246097Y-101678382D02*
X132888954Y-102749811D01*
X133817525Y-102749811D01*
X132317525Y-105799811D02*
X131460382Y-105799811D01*
X131888954Y-105799811D02*
X131888954Y-104299811D01*
X131746097Y-104514097D01*
X131603240Y-104656954D01*
X131460382Y-104728382D01*
X133603240Y-104299811D02*
X133317525Y-104299811D01*
X133174668Y-104371240D01*
X133103240Y-104442668D01*
X132960382Y-104656954D01*
X132888954Y-104942668D01*
X132888954Y-105514097D01*
X132960382Y-105656954D01*
X133031811Y-105728382D01*
X133174668Y-105799811D01*
X133460382Y-105799811D01*
X133603240Y-105728382D01*
X133674668Y-105656954D01*
X133746097Y-105514097D01*
X133746097Y-105156954D01*
X133674668Y-105014097D01*
X133603240Y-104942668D01*
X133460382Y-104871240D01*
X133174668Y-104871240D01*
X133031811Y-104942668D01*
X132960382Y-105014097D01*
X132888954Y-105156954D01*
X132317525Y-108349811D02*
X131460382Y-108349811D01*
X131888954Y-108349811D02*
X131888954Y-106849811D01*
X131746097Y-107064097D01*
X131603240Y-107206954D01*
X131460382Y-107278382D01*
X133174668Y-107492668D02*
X133031811Y-107421240D01*
X132960382Y-107349811D01*
X132888954Y-107206954D01*
X132888954Y-107135525D01*
X132960382Y-106992668D01*
X133031811Y-106921240D01*
X133174668Y-106849811D01*
X133460382Y-106849811D01*
X133603240Y-106921240D01*
X133674668Y-106992668D01*
X133746097Y-107135525D01*
X133746097Y-107206954D01*
X133674668Y-107349811D01*
X133603240Y-107421240D01*
X133460382Y-107492668D01*
X133174668Y-107492668D01*
X133031811Y-107564097D01*
X132960382Y-107635525D01*
X132888954Y-107778382D01*
X132888954Y-108064097D01*
X132960382Y-108206954D01*
X133031811Y-108278382D01*
X133174668Y-108349811D01*
X133460382Y-108349811D01*
X133603240Y-108278382D01*
X133674668Y-108206954D01*
X133746097Y-108064097D01*
X133746097Y-107778382D01*
X133674668Y-107635525D01*
X133603240Y-107564097D01*
X133460382Y-107492668D01*
X131460382Y-109542668D02*
X131531811Y-109471240D01*
X131674668Y-109399811D01*
X132031811Y-109399811D01*
X132174668Y-109471240D01*
X132246097Y-109542668D01*
X132317525Y-109685525D01*
X132317525Y-109828382D01*
X132246097Y-110042668D01*
X131388954Y-110899811D01*
X132317525Y-110899811D01*
X133246097Y-109399811D02*
X133388954Y-109399811D01*
X133531811Y-109471240D01*
X133603240Y-109542668D01*
X133674668Y-109685525D01*
X133746097Y-109971240D01*
X133746097Y-110328382D01*
X133674668Y-110614097D01*
X133603240Y-110756954D01*
X133531811Y-110828382D01*
X133388954Y-110899811D01*
X133246097Y-110899811D01*
X133103240Y-110828382D01*
X133031811Y-110756954D01*
X132960382Y-110614097D01*
X132888954Y-110328382D01*
X132888954Y-109971240D01*
X132960382Y-109685525D01*
X133031811Y-109542668D01*
X133103240Y-109471240D01*
X133246097Y-109399811D01*
X131460382Y-112092668D02*
X131531811Y-112021240D01*
X131674668Y-111949811D01*
X132031811Y-111949811D01*
X132174668Y-112021240D01*
X132246097Y-112092668D01*
X132317525Y-112235525D01*
X132317525Y-112378382D01*
X132246097Y-112592668D01*
X131388954Y-113449811D01*
X132317525Y-113449811D01*
X132888954Y-112092668D02*
X132960382Y-112021240D01*
X133103240Y-111949811D01*
X133460382Y-111949811D01*
X133603240Y-112021240D01*
X133674668Y-112092668D01*
X133746097Y-112235525D01*
X133746097Y-112378382D01*
X133674668Y-112592668D01*
X132817525Y-113449811D01*
X133746097Y-113449811D01*
X131460382Y-114642668D02*
X131531811Y-114571240D01*
X131674668Y-114499811D01*
X132031811Y-114499811D01*
X132174668Y-114571240D01*
X132246097Y-114642668D01*
X132317525Y-114785525D01*
X132317525Y-114928382D01*
X132246097Y-115142668D01*
X131388954Y-115999811D01*
X132317525Y-115999811D01*
X133603240Y-114999811D02*
X133603240Y-115999811D01*
X133246097Y-114428382D02*
X132888954Y-115499811D01*
X133817525Y-115499811D01*
X131460382Y-117192668D02*
X131531811Y-117121240D01*
X131674668Y-117049811D01*
X132031811Y-117049811D01*
X132174668Y-117121240D01*
X132246097Y-117192668D01*
X132317525Y-117335525D01*
X132317525Y-117478382D01*
X132246097Y-117692668D01*
X131388954Y-118549811D01*
X132317525Y-118549811D01*
X133603240Y-117049811D02*
X133317525Y-117049811D01*
X133174668Y-117121240D01*
X133103240Y-117192668D01*
X132960382Y-117406954D01*
X132888954Y-117692668D01*
X132888954Y-118264097D01*
X132960382Y-118406954D01*
X133031811Y-118478382D01*
X133174668Y-118549811D01*
X133460382Y-118549811D01*
X133603240Y-118478382D01*
X133674668Y-118406954D01*
X133746097Y-118264097D01*
X133746097Y-117906954D01*
X133674668Y-117764097D01*
X133603240Y-117692668D01*
X133460382Y-117621240D01*
X133174668Y-117621240D01*
X133031811Y-117692668D01*
X132960382Y-117764097D01*
X132888954Y-117906954D01*
X131460382Y-119742668D02*
X131531811Y-119671240D01*
X131674668Y-119599811D01*
X132031811Y-119599811D01*
X132174668Y-119671240D01*
X132246097Y-119742668D01*
X132317525Y-119885525D01*
X132317525Y-120028382D01*
X132246097Y-120242668D01*
X131388954Y-121099811D01*
X132317525Y-121099811D01*
X133174668Y-120242668D02*
X133031811Y-120171240D01*
X132960382Y-120099811D01*
X132888954Y-119956954D01*
X132888954Y-119885525D01*
X132960382Y-119742668D01*
X133031811Y-119671240D01*
X133174668Y-119599811D01*
X133460382Y-119599811D01*
X133603240Y-119671240D01*
X133674668Y-119742668D01*
X133746097Y-119885525D01*
X133746097Y-119956954D01*
X133674668Y-120099811D01*
X133603240Y-120171240D01*
X133460382Y-120242668D01*
X133174668Y-120242668D01*
X133031811Y-120314097D01*
X132960382Y-120385525D01*
X132888954Y-120528382D01*
X132888954Y-120814097D01*
X132960382Y-120956954D01*
X133031811Y-121028382D01*
X133174668Y-121099811D01*
X133460382Y-121099811D01*
X133603240Y-121028382D01*
X133674668Y-120956954D01*
X133746097Y-120814097D01*
X133746097Y-120528382D01*
X133674668Y-120385525D01*
X133603240Y-120314097D01*
X133460382Y-120242668D01*
X131388954Y-122149811D02*
X132317525Y-122149811D01*
X131817525Y-122721240D01*
X132031811Y-122721240D01*
X132174668Y-122792668D01*
X132246097Y-122864097D01*
X132317525Y-123006954D01*
X132317525Y-123364097D01*
X132246097Y-123506954D01*
X132174668Y-123578382D01*
X132031811Y-123649811D01*
X131603240Y-123649811D01*
X131460382Y-123578382D01*
X131388954Y-123506954D01*
X133246097Y-122149811D02*
X133388954Y-122149811D01*
X133531811Y-122221240D01*
X133603240Y-122292668D01*
X133674668Y-122435525D01*
X133746097Y-122721240D01*
X133746097Y-123078382D01*
X133674668Y-123364097D01*
X133603240Y-123506954D01*
X133531811Y-123578382D01*
X133388954Y-123649811D01*
X133246097Y-123649811D01*
X133103240Y-123578382D01*
X133031811Y-123506954D01*
X132960382Y-123364097D01*
X132888954Y-123078382D01*
X132888954Y-122721240D01*
X132960382Y-122435525D01*
X133031811Y-122292668D01*
X133103240Y-122221240D01*
X133246097Y-122149811D01*
X131388954Y-124699811D02*
X132317525Y-124699811D01*
X131817525Y-125271240D01*
X132031811Y-125271240D01*
X132174668Y-125342668D01*
X132246097Y-125414097D01*
X132317525Y-125556954D01*
X132317525Y-125914097D01*
X132246097Y-126056954D01*
X132174668Y-126128382D01*
X132031811Y-126199811D01*
X131603240Y-126199811D01*
X131460382Y-126128382D01*
X131388954Y-126056954D01*
X132888954Y-124842668D02*
X132960382Y-124771240D01*
X133103240Y-124699811D01*
X133460382Y-124699811D01*
X133603240Y-124771240D01*
X133674668Y-124842668D01*
X133746097Y-124985525D01*
X133746097Y-125128382D01*
X133674668Y-125342668D01*
X132817525Y-126199811D01*
X133746097Y-126199811D01*
X131388954Y-127249811D02*
X132317525Y-127249811D01*
X131817525Y-127821240D01*
X132031811Y-127821240D01*
X132174668Y-127892668D01*
X132246097Y-127964097D01*
X132317525Y-128106954D01*
X132317525Y-128464097D01*
X132246097Y-128606954D01*
X132174668Y-128678382D01*
X132031811Y-128749811D01*
X131603240Y-128749811D01*
X131460382Y-128678382D01*
X131388954Y-128606954D01*
X133603240Y-127749811D02*
X133603240Y-128749811D01*
X133246097Y-127178382D02*
X132888954Y-128249811D01*
X133817525Y-128249811D01*
X131388954Y-129799811D02*
X132317525Y-129799811D01*
X131817525Y-130371240D01*
X132031811Y-130371240D01*
X132174668Y-130442668D01*
X132246097Y-130514097D01*
X132317525Y-130656954D01*
X132317525Y-131014097D01*
X132246097Y-131156954D01*
X132174668Y-131228382D01*
X132031811Y-131299811D01*
X131603240Y-131299811D01*
X131460382Y-131228382D01*
X131388954Y-131156954D01*
X133603240Y-129799811D02*
X133317525Y-129799811D01*
X133174668Y-129871240D01*
X133103240Y-129942668D01*
X132960382Y-130156954D01*
X132888954Y-130442668D01*
X132888954Y-131014097D01*
X132960382Y-131156954D01*
X133031811Y-131228382D01*
X133174668Y-131299811D01*
X133460382Y-131299811D01*
X133603240Y-131228382D01*
X133674668Y-131156954D01*
X133746097Y-131014097D01*
X133746097Y-130656954D01*
X133674668Y-130514097D01*
X133603240Y-130442668D01*
X133460382Y-130371240D01*
X133174668Y-130371240D01*
X133031811Y-130442668D01*
X132960382Y-130514097D01*
X132888954Y-130656954D01*
X131388954Y-132349811D02*
X132317525Y-132349811D01*
X131817525Y-132921240D01*
X132031811Y-132921240D01*
X132174668Y-132992668D01*
X132246097Y-133064097D01*
X132317525Y-133206954D01*
X132317525Y-133564097D01*
X132246097Y-133706954D01*
X132174668Y-133778382D01*
X132031811Y-133849811D01*
X131603240Y-133849811D01*
X131460382Y-133778382D01*
X131388954Y-133706954D01*
X133174668Y-132992668D02*
X133031811Y-132921240D01*
X132960382Y-132849811D01*
X132888954Y-132706954D01*
X132888954Y-132635525D01*
X132960382Y-132492668D01*
X133031811Y-132421240D01*
X133174668Y-132349811D01*
X133460382Y-132349811D01*
X133603240Y-132421240D01*
X133674668Y-132492668D01*
X133746097Y-132635525D01*
X133746097Y-132706954D01*
X133674668Y-132849811D01*
X133603240Y-132921240D01*
X133460382Y-132992668D01*
X133174668Y-132992668D01*
X133031811Y-133064097D01*
X132960382Y-133135525D01*
X132888954Y-133278382D01*
X132888954Y-133564097D01*
X132960382Y-133706954D01*
X133031811Y-133778382D01*
X133174668Y-133849811D01*
X133460382Y-133849811D01*
X133603240Y-133778382D01*
X133674668Y-133706954D01*
X133746097Y-133564097D01*
X133746097Y-133278382D01*
X133674668Y-133135525D01*
X133603240Y-133064097D01*
X133460382Y-132992668D01*
X132174668Y-135399811D02*
X132174668Y-136399811D01*
X131817525Y-134828382D02*
X131460382Y-135899811D01*
X132388954Y-135899811D01*
X133246097Y-134899811D02*
X133388954Y-134899811D01*
X133531811Y-134971240D01*
X133603240Y-135042668D01*
X133674668Y-135185525D01*
X133746097Y-135471240D01*
X133746097Y-135828382D01*
X133674668Y-136114097D01*
X133603240Y-136256954D01*
X133531811Y-136328382D01*
X133388954Y-136399811D01*
X133246097Y-136399811D01*
X133103240Y-136328382D01*
X133031811Y-136256954D01*
X132960382Y-136114097D01*
X132888954Y-135828382D01*
X132888954Y-135471240D01*
X132960382Y-135185525D01*
X133031811Y-135042668D01*
X133103240Y-134971240D01*
X133246097Y-134899811D01*
X132174668Y-137949811D02*
X132174668Y-138949811D01*
X131817525Y-137378382D02*
X131460382Y-138449811D01*
X132388954Y-138449811D01*
X132888954Y-137592668D02*
X132960382Y-137521240D01*
X133103240Y-137449811D01*
X133460382Y-137449811D01*
X133603240Y-137521240D01*
X133674668Y-137592668D01*
X133746097Y-137735525D01*
X133746097Y-137878382D01*
X133674668Y-138092668D01*
X132817525Y-138949811D01*
X133746097Y-138949811D01*
X132174668Y-140499811D02*
X132174668Y-141499811D01*
X131817525Y-139928382D02*
X131460382Y-140999811D01*
X132388954Y-140999811D01*
X133603240Y-140499811D02*
X133603240Y-141499811D01*
X133246097Y-139928382D02*
X132888954Y-140999811D01*
X133817525Y-140999811D01*
X132174668Y-143049811D02*
X132174668Y-144049811D01*
X131817525Y-142478382D02*
X131460382Y-143549811D01*
X132388954Y-143549811D01*
X133603240Y-142549811D02*
X133317525Y-142549811D01*
X133174668Y-142621240D01*
X133103240Y-142692668D01*
X132960382Y-142906954D01*
X132888954Y-143192668D01*
X132888954Y-143764097D01*
X132960382Y-143906954D01*
X133031811Y-143978382D01*
X133174668Y-144049811D01*
X133460382Y-144049811D01*
X133603240Y-143978382D01*
X133674668Y-143906954D01*
X133746097Y-143764097D01*
X133746097Y-143406954D01*
X133674668Y-143264097D01*
X133603240Y-143192668D01*
X133460382Y-143121240D01*
X133174668Y-143121240D01*
X133031811Y-143192668D01*
X132960382Y-143264097D01*
X132888954Y-143406954D01*
X132174668Y-145599811D02*
X132174668Y-146599811D01*
X131817525Y-145028382D02*
X131460382Y-146099811D01*
X132388954Y-146099811D01*
X133174668Y-145742668D02*
X133031811Y-145671240D01*
X132960382Y-145599811D01*
X132888954Y-145456954D01*
X132888954Y-145385525D01*
X132960382Y-145242668D01*
X133031811Y-145171240D01*
X133174668Y-145099811D01*
X133460382Y-145099811D01*
X133603240Y-145171240D01*
X133674668Y-145242668D01*
X133746097Y-145385525D01*
X133746097Y-145456954D01*
X133674668Y-145599811D01*
X133603240Y-145671240D01*
X133460382Y-145742668D01*
X133174668Y-145742668D01*
X133031811Y-145814097D01*
X132960382Y-145885525D01*
X132888954Y-146028382D01*
X132888954Y-146314097D01*
X132960382Y-146456954D01*
X133031811Y-146528382D01*
X133174668Y-146599811D01*
X133460382Y-146599811D01*
X133603240Y-146528382D01*
X133674668Y-146456954D01*
X133746097Y-146314097D01*
X133746097Y-146028382D01*
X133674668Y-145885525D01*
X133603240Y-145814097D01*
X133460382Y-145742668D01*
X132246097Y-147649811D02*
X131531811Y-147649811D01*
X131460382Y-148364097D01*
X131531811Y-148292668D01*
X131674668Y-148221240D01*
X132031811Y-148221240D01*
X132174668Y-148292668D01*
X132246097Y-148364097D01*
X132317525Y-148506954D01*
X132317525Y-148864097D01*
X132246097Y-149006954D01*
X132174668Y-149078382D01*
X132031811Y-149149811D01*
X131674668Y-149149811D01*
X131531811Y-149078382D01*
X131460382Y-149006954D01*
X133246097Y-147649811D02*
X133388954Y-147649811D01*
X133531811Y-147721240D01*
X133603240Y-147792668D01*
X133674668Y-147935525D01*
X133746097Y-148221240D01*
X133746097Y-148578382D01*
X133674668Y-148864097D01*
X133603240Y-149006954D01*
X133531811Y-149078382D01*
X133388954Y-149149811D01*
X133246097Y-149149811D01*
X133103240Y-149078382D01*
X133031811Y-149006954D01*
X132960382Y-148864097D01*
X132888954Y-148578382D01*
X132888954Y-148221240D01*
X132960382Y-147935525D01*
X133031811Y-147792668D01*
X133103240Y-147721240D01*
X133246097Y-147649811D01*
X142267251Y-87868531D02*
X141410108Y-87868531D01*
X141838680Y-87868531D02*
X141838680Y-86368531D01*
X141695822Y-86582817D01*
X141552965Y-86725674D01*
X141410108Y-86797102D01*
X141338680Y-88918531D02*
X142267251Y-88918531D01*
X141767251Y-89489960D01*
X141981537Y-89489960D01*
X142124394Y-89561388D01*
X142195822Y-89632817D01*
X142267251Y-89775674D01*
X142267251Y-90132817D01*
X142195822Y-90275674D01*
X142124394Y-90347102D01*
X141981537Y-90418531D01*
X141552965Y-90418531D01*
X141410108Y-90347102D01*
X141338680Y-90275674D01*
X142195822Y-91468531D02*
X141481537Y-91468531D01*
X141410108Y-92182817D01*
X141481537Y-92111388D01*
X141624394Y-92039960D01*
X141981537Y-92039960D01*
X142124394Y-92111388D01*
X142195822Y-92182817D01*
X142267251Y-92325674D01*
X142267251Y-92682817D01*
X142195822Y-92825674D01*
X142124394Y-92897102D01*
X141981537Y-92968531D01*
X141624394Y-92968531D01*
X141481537Y-92897102D01*
X141410108Y-92825674D01*
X141338680Y-94018531D02*
X142338680Y-94018531D01*
X141695822Y-95518531D01*
X141552965Y-98068531D02*
X141838680Y-98068531D01*
X141981537Y-97997102D01*
X142052965Y-97925674D01*
X142195822Y-97711388D01*
X142267251Y-97425674D01*
X142267251Y-96854245D01*
X142195822Y-96711388D01*
X142124394Y-96639960D01*
X141981537Y-96568531D01*
X141695822Y-96568531D01*
X141552965Y-96639960D01*
X141481537Y-96711388D01*
X141410108Y-96854245D01*
X141410108Y-97211388D01*
X141481537Y-97354245D01*
X141552965Y-97425674D01*
X141695822Y-97497102D01*
X141981537Y-97497102D01*
X142124394Y-97425674D01*
X142195822Y-97354245D01*
X142267251Y-97211388D01*
X141552965Y-100618531D02*
X140695822Y-100618531D01*
X141124394Y-100618531D02*
X141124394Y-99118531D01*
X140981537Y-99332817D01*
X140838680Y-99475674D01*
X140695822Y-99547102D01*
X142981537Y-100618531D02*
X142124394Y-100618531D01*
X142552965Y-100618531D02*
X142552965Y-99118531D01*
X142410108Y-99332817D01*
X142267251Y-99475674D01*
X142124394Y-99547102D01*
X141552965Y-103168531D02*
X140695822Y-103168531D01*
X141124394Y-103168531D02*
X141124394Y-101668531D01*
X140981537Y-101882817D01*
X140838680Y-102025674D01*
X140695822Y-102097102D01*
X142052965Y-101668531D02*
X142981537Y-101668531D01*
X142481537Y-102239960D01*
X142695822Y-102239960D01*
X142838680Y-102311388D01*
X142910108Y-102382817D01*
X142981537Y-102525674D01*
X142981537Y-102882817D01*
X142910108Y-103025674D01*
X142838680Y-103097102D01*
X142695822Y-103168531D01*
X142267251Y-103168531D01*
X142124394Y-103097102D01*
X142052965Y-103025674D01*
X141552965Y-105718531D02*
X140695822Y-105718531D01*
X141124394Y-105718531D02*
X141124394Y-104218531D01*
X140981537Y-104432817D01*
X140838680Y-104575674D01*
X140695822Y-104647102D01*
X142910108Y-104218531D02*
X142195822Y-104218531D01*
X142124394Y-104932817D01*
X142195822Y-104861388D01*
X142338680Y-104789960D01*
X142695822Y-104789960D01*
X142838680Y-104861388D01*
X142910108Y-104932817D01*
X142981537Y-105075674D01*
X142981537Y-105432817D01*
X142910108Y-105575674D01*
X142838680Y-105647102D01*
X142695822Y-105718531D01*
X142338680Y-105718531D01*
X142195822Y-105647102D01*
X142124394Y-105575674D01*
X141552965Y-108268531D02*
X140695822Y-108268531D01*
X141124394Y-108268531D02*
X141124394Y-106768531D01*
X140981537Y-106982817D01*
X140838680Y-107125674D01*
X140695822Y-107197102D01*
X142052965Y-106768531D02*
X143052965Y-106768531D01*
X142410108Y-108268531D01*
X141552965Y-110818531D02*
X140695822Y-110818531D01*
X141124394Y-110818531D02*
X141124394Y-109318531D01*
X140981537Y-109532817D01*
X140838680Y-109675674D01*
X140695822Y-109747102D01*
X142267251Y-110818531D02*
X142552965Y-110818531D01*
X142695822Y-110747102D01*
X142767251Y-110675674D01*
X142910108Y-110461388D01*
X142981537Y-110175674D01*
X142981537Y-109604245D01*
X142910108Y-109461388D01*
X142838680Y-109389960D01*
X142695822Y-109318531D01*
X142410108Y-109318531D01*
X142267251Y-109389960D01*
X142195822Y-109461388D01*
X142124394Y-109604245D01*
X142124394Y-109961388D01*
X142195822Y-110104245D01*
X142267251Y-110175674D01*
X142410108Y-110247102D01*
X142695822Y-110247102D01*
X142838680Y-110175674D01*
X142910108Y-110104245D01*
X142981537Y-109961388D01*
X140695822Y-112011388D02*
X140767251Y-111939960D01*
X140910108Y-111868531D01*
X141267251Y-111868531D01*
X141410108Y-111939960D01*
X141481537Y-112011388D01*
X141552965Y-112154245D01*
X141552965Y-112297102D01*
X141481537Y-112511388D01*
X140624394Y-113368531D01*
X141552965Y-113368531D01*
X142981537Y-113368531D02*
X142124394Y-113368531D01*
X142552965Y-113368531D02*
X142552965Y-111868531D01*
X142410108Y-112082817D01*
X142267251Y-112225674D01*
X142124394Y-112297102D01*
X140695822Y-114561388D02*
X140767251Y-114489960D01*
X140910108Y-114418531D01*
X141267251Y-114418531D01*
X141410108Y-114489960D01*
X141481537Y-114561388D01*
X141552965Y-114704245D01*
X141552965Y-114847102D01*
X141481537Y-115061388D01*
X140624394Y-115918531D01*
X141552965Y-115918531D01*
X142052965Y-114418531D02*
X142981537Y-114418531D01*
X142481537Y-114989960D01*
X142695822Y-114989960D01*
X142838680Y-115061388D01*
X142910108Y-115132817D01*
X142981537Y-115275674D01*
X142981537Y-115632817D01*
X142910108Y-115775674D01*
X142838680Y-115847102D01*
X142695822Y-115918531D01*
X142267251Y-115918531D01*
X142124394Y-115847102D01*
X142052965Y-115775674D01*
X140695822Y-117111388D02*
X140767251Y-117039960D01*
X140910108Y-116968531D01*
X141267251Y-116968531D01*
X141410108Y-117039960D01*
X141481537Y-117111388D01*
X141552965Y-117254245D01*
X141552965Y-117397102D01*
X141481537Y-117611388D01*
X140624394Y-118468531D01*
X141552965Y-118468531D01*
X142910108Y-116968531D02*
X142195822Y-116968531D01*
X142124394Y-117682817D01*
X142195822Y-117611388D01*
X142338680Y-117539960D01*
X142695822Y-117539960D01*
X142838680Y-117611388D01*
X142910108Y-117682817D01*
X142981537Y-117825674D01*
X142981537Y-118182817D01*
X142910108Y-118325674D01*
X142838680Y-118397102D01*
X142695822Y-118468531D01*
X142338680Y-118468531D01*
X142195822Y-118397102D01*
X142124394Y-118325674D01*
X140695822Y-119661388D02*
X140767251Y-119589960D01*
X140910108Y-119518531D01*
X141267251Y-119518531D01*
X141410108Y-119589960D01*
X141481537Y-119661388D01*
X141552965Y-119804245D01*
X141552965Y-119947102D01*
X141481537Y-120161388D01*
X140624394Y-121018531D01*
X141552965Y-121018531D01*
X142052965Y-119518531D02*
X143052965Y-119518531D01*
X142410108Y-121018531D01*
X140695822Y-122211388D02*
X140767251Y-122139960D01*
X140910108Y-122068531D01*
X141267251Y-122068531D01*
X141410108Y-122139960D01*
X141481537Y-122211388D01*
X141552965Y-122354245D01*
X141552965Y-122497102D01*
X141481537Y-122711388D01*
X140624394Y-123568531D01*
X141552965Y-123568531D01*
X142267251Y-123568531D02*
X142552965Y-123568531D01*
X142695822Y-123497102D01*
X142767251Y-123425674D01*
X142910108Y-123211388D01*
X142981537Y-122925674D01*
X142981537Y-122354245D01*
X142910108Y-122211388D01*
X142838680Y-122139960D01*
X142695822Y-122068531D01*
X142410108Y-122068531D01*
X142267251Y-122139960D01*
X142195822Y-122211388D01*
X142124394Y-122354245D01*
X142124394Y-122711388D01*
X142195822Y-122854245D01*
X142267251Y-122925674D01*
X142410108Y-122997102D01*
X142695822Y-122997102D01*
X142838680Y-122925674D01*
X142910108Y-122854245D01*
X142981537Y-122711388D01*
X140624394Y-124618531D02*
X141552965Y-124618531D01*
X141052965Y-125189960D01*
X141267251Y-125189960D01*
X141410108Y-125261388D01*
X141481537Y-125332817D01*
X141552965Y-125475674D01*
X141552965Y-125832817D01*
X141481537Y-125975674D01*
X141410108Y-126047102D01*
X141267251Y-126118531D01*
X140838680Y-126118531D01*
X140695822Y-126047102D01*
X140624394Y-125975674D01*
X142981537Y-126118531D02*
X142124394Y-126118531D01*
X142552965Y-126118531D02*
X142552965Y-124618531D01*
X142410108Y-124832817D01*
X142267251Y-124975674D01*
X142124394Y-125047102D01*
X140624394Y-127168531D02*
X141552965Y-127168531D01*
X141052965Y-127739960D01*
X141267251Y-127739960D01*
X141410108Y-127811388D01*
X141481537Y-127882817D01*
X141552965Y-128025674D01*
X141552965Y-128382817D01*
X141481537Y-128525674D01*
X141410108Y-128597102D01*
X141267251Y-128668531D01*
X140838680Y-128668531D01*
X140695822Y-128597102D01*
X140624394Y-128525674D01*
X142052965Y-127168531D02*
X142981537Y-127168531D01*
X142481537Y-127739960D01*
X142695822Y-127739960D01*
X142838680Y-127811388D01*
X142910108Y-127882817D01*
X142981537Y-128025674D01*
X142981537Y-128382817D01*
X142910108Y-128525674D01*
X142838680Y-128597102D01*
X142695822Y-128668531D01*
X142267251Y-128668531D01*
X142124394Y-128597102D01*
X142052965Y-128525674D01*
X140624394Y-129718531D02*
X141552965Y-129718531D01*
X141052965Y-130289960D01*
X141267251Y-130289960D01*
X141410108Y-130361388D01*
X141481537Y-130432817D01*
X141552965Y-130575674D01*
X141552965Y-130932817D01*
X141481537Y-131075674D01*
X141410108Y-131147102D01*
X141267251Y-131218531D01*
X140838680Y-131218531D01*
X140695822Y-131147102D01*
X140624394Y-131075674D01*
X142910108Y-129718531D02*
X142195822Y-129718531D01*
X142124394Y-130432817D01*
X142195822Y-130361388D01*
X142338680Y-130289960D01*
X142695822Y-130289960D01*
X142838680Y-130361388D01*
X142910108Y-130432817D01*
X142981537Y-130575674D01*
X142981537Y-130932817D01*
X142910108Y-131075674D01*
X142838680Y-131147102D01*
X142695822Y-131218531D01*
X142338680Y-131218531D01*
X142195822Y-131147102D01*
X142124394Y-131075674D01*
X140624394Y-132268531D02*
X141552965Y-132268531D01*
X141052965Y-132839960D01*
X141267251Y-132839960D01*
X141410108Y-132911388D01*
X141481537Y-132982817D01*
X141552965Y-133125674D01*
X141552965Y-133482817D01*
X141481537Y-133625674D01*
X141410108Y-133697102D01*
X141267251Y-133768531D01*
X140838680Y-133768531D01*
X140695822Y-133697102D01*
X140624394Y-133625674D01*
X142052965Y-132268531D02*
X143052965Y-132268531D01*
X142410108Y-133768531D01*
X140624394Y-134818531D02*
X141552965Y-134818531D01*
X141052965Y-135389960D01*
X141267251Y-135389960D01*
X141410108Y-135461388D01*
X141481537Y-135532817D01*
X141552965Y-135675674D01*
X141552965Y-136032817D01*
X141481537Y-136175674D01*
X141410108Y-136247102D01*
X141267251Y-136318531D01*
X140838680Y-136318531D01*
X140695822Y-136247102D01*
X140624394Y-136175674D01*
X142267251Y-136318531D02*
X142552965Y-136318531D01*
X142695822Y-136247102D01*
X142767251Y-136175674D01*
X142910108Y-135961388D01*
X142981537Y-135675674D01*
X142981537Y-135104245D01*
X142910108Y-134961388D01*
X142838680Y-134889960D01*
X142695822Y-134818531D01*
X142410108Y-134818531D01*
X142267251Y-134889960D01*
X142195822Y-134961388D01*
X142124394Y-135104245D01*
X142124394Y-135461388D01*
X142195822Y-135604245D01*
X142267251Y-135675674D01*
X142410108Y-135747102D01*
X142695822Y-135747102D01*
X142838680Y-135675674D01*
X142910108Y-135604245D01*
X142981537Y-135461388D01*
X141410108Y-137868531D02*
X141410108Y-138868531D01*
X141052965Y-137297102D02*
X140695822Y-138368531D01*
X141624394Y-138368531D01*
X142981537Y-138868531D02*
X142124394Y-138868531D01*
X142552965Y-138868531D02*
X142552965Y-137368531D01*
X142410108Y-137582817D01*
X142267251Y-137725674D01*
X142124394Y-137797102D01*
X141410108Y-140418531D02*
X141410108Y-141418531D01*
X141052965Y-139847102D02*
X140695822Y-140918531D01*
X141624394Y-140918531D01*
X142052965Y-139918531D02*
X142981537Y-139918531D01*
X142481537Y-140489960D01*
X142695822Y-140489960D01*
X142838680Y-140561388D01*
X142910108Y-140632817D01*
X142981537Y-140775674D01*
X142981537Y-141132817D01*
X142910108Y-141275674D01*
X142838680Y-141347102D01*
X142695822Y-141418531D01*
X142267251Y-141418531D01*
X142124394Y-141347102D01*
X142052965Y-141275674D01*
X141410108Y-142968531D02*
X141410108Y-143968531D01*
X141052965Y-142397102D02*
X140695822Y-143468531D01*
X141624394Y-143468531D01*
X142910108Y-142468531D02*
X142195822Y-142468531D01*
X142124394Y-143182817D01*
X142195822Y-143111388D01*
X142338680Y-143039960D01*
X142695822Y-143039960D01*
X142838680Y-143111388D01*
X142910108Y-143182817D01*
X142981537Y-143325674D01*
X142981537Y-143682817D01*
X142910108Y-143825674D01*
X142838680Y-143897102D01*
X142695822Y-143968531D01*
X142338680Y-143968531D01*
X142195822Y-143897102D01*
X142124394Y-143825674D01*
X141410108Y-145518531D02*
X141410108Y-146518531D01*
X141052965Y-144947102D02*
X140695822Y-146018531D01*
X141624394Y-146018531D01*
X142052965Y-145018531D02*
X143052965Y-145018531D01*
X142410108Y-146518531D01*
X141410108Y-148068531D02*
X141410108Y-149068531D01*
X141052965Y-147497102D02*
X140695822Y-148568531D01*
X141624394Y-148568531D01*
X142267251Y-149068531D02*
X142552965Y-149068531D01*
X142695822Y-148997102D01*
X142767251Y-148925674D01*
X142910108Y-148711388D01*
X142981537Y-148425674D01*
X142981537Y-147854245D01*
X142910108Y-147711388D01*
X142838680Y-147639960D01*
X142695822Y-147568531D01*
X142410108Y-147568531D01*
X142267251Y-147639960D01*
X142195822Y-147711388D01*
X142124394Y-147854245D01*
X142124394Y-148211388D01*
X142195822Y-148354245D01*
X142267251Y-148425674D01*
X142410108Y-148497102D01*
X142695822Y-148497102D01*
X142838680Y-148425674D01*
X142910108Y-148354245D01*
X142981537Y-148211388D01*
D14*
G04 #@! TO.C,J1*
X117050000Y-143040000D02*
X121170000Y-143040000D01*
X117050000Y-94980000D02*
X117050000Y-143040000D01*
X121170000Y-92920000D02*
X121170000Y-143040000D01*
X117050000Y-94980000D02*
X119110000Y-94980000D01*
X119110000Y-94980000D02*
X119110000Y-92920000D01*
X119110000Y-92920000D02*
X121170000Y-92920000D01*
X117050000Y-93980000D02*
X117050000Y-92920000D01*
X117050000Y-92920000D02*
X118110000Y-92920000D01*
D12*
X118776666Y-91372380D02*
X118776666Y-92086666D01*
X118729047Y-92229523D01*
X118633809Y-92324761D01*
X118490952Y-92372380D01*
X118395714Y-92372380D01*
X119776666Y-92372380D02*
X119205238Y-92372380D01*
X119490952Y-92372380D02*
X119490952Y-91372380D01*
X119395714Y-91515238D01*
X119300476Y-91610476D01*
X119205238Y-91658095D01*
X116990952Y-144397142D02*
X116943333Y-144444761D01*
X116800476Y-144492380D01*
X116705238Y-144492380D01*
X116562380Y-144444761D01*
X116467142Y-144349523D01*
X116419523Y-144254285D01*
X116371904Y-144063809D01*
X116371904Y-143920952D01*
X116419523Y-143730476D01*
X116467142Y-143635238D01*
X116562380Y-143540000D01*
X116705238Y-143492380D01*
X116800476Y-143492380D01*
X116943333Y-143540000D01*
X116990952Y-143587619D01*
X117562380Y-144492380D02*
X117467142Y-144444761D01*
X117419523Y-144397142D01*
X117371904Y-144301904D01*
X117371904Y-144016190D01*
X117419523Y-143920952D01*
X117467142Y-143873333D01*
X117562380Y-143825714D01*
X117705238Y-143825714D01*
X117800476Y-143873333D01*
X117848095Y-143920952D01*
X117895714Y-144016190D01*
X117895714Y-144301904D01*
X117848095Y-144397142D01*
X117800476Y-144444761D01*
X117705238Y-144492380D01*
X117562380Y-144492380D01*
X118324285Y-143825714D02*
X118324285Y-144492380D01*
X118324285Y-143920952D02*
X118371904Y-143873333D01*
X118467142Y-143825714D01*
X118610000Y-143825714D01*
X118705238Y-143873333D01*
X118752857Y-143968571D01*
X118752857Y-144492380D01*
X119229047Y-143825714D02*
X119229047Y-144492380D01*
X119229047Y-143920952D02*
X119276666Y-143873333D01*
X119371904Y-143825714D01*
X119514761Y-143825714D01*
X119610000Y-143873333D01*
X119657619Y-143968571D01*
X119657619Y-144492380D01*
X119895714Y-144587619D02*
X120657619Y-144587619D01*
X120895714Y-144492380D02*
X120895714Y-143825714D01*
X120895714Y-143492380D02*
X120848095Y-143540000D01*
X120895714Y-143587619D01*
X120943333Y-143540000D01*
X120895714Y-143492380D01*
X120895714Y-143587619D01*
X121371904Y-143825714D02*
X121371904Y-144492380D01*
X121371904Y-143920952D02*
X121419523Y-143873333D01*
X121514761Y-143825714D01*
X121657619Y-143825714D01*
X121752857Y-143873333D01*
X121800476Y-143968571D01*
X121800476Y-144492380D01*
G04 #@! TO.C,J2*
X134540952Y-151277142D02*
X134493333Y-151324761D01*
X134350476Y-151372380D01*
X134255238Y-151372380D01*
X134112380Y-151324761D01*
X134017142Y-151229523D01*
X133969523Y-151134285D01*
X133921904Y-150943809D01*
X133921904Y-150800952D01*
X133969523Y-150610476D01*
X134017142Y-150515238D01*
X134112380Y-150420000D01*
X134255238Y-150372380D01*
X134350476Y-150372380D01*
X134493333Y-150420000D01*
X134540952Y-150467619D01*
X135112380Y-151372380D02*
X135017142Y-151324761D01*
X134969523Y-151277142D01*
X134921904Y-151181904D01*
X134921904Y-150896190D01*
X134969523Y-150800952D01*
X135017142Y-150753333D01*
X135112380Y-150705714D01*
X135255238Y-150705714D01*
X135350476Y-150753333D01*
X135398095Y-150800952D01*
X135445714Y-150896190D01*
X135445714Y-151181904D01*
X135398095Y-151277142D01*
X135350476Y-151324761D01*
X135255238Y-151372380D01*
X135112380Y-151372380D01*
X135874285Y-150705714D02*
X135874285Y-151372380D01*
X135874285Y-150800952D02*
X135921904Y-150753333D01*
X136017142Y-150705714D01*
X136160000Y-150705714D01*
X136255238Y-150753333D01*
X136302857Y-150848571D01*
X136302857Y-151372380D01*
X136779047Y-150705714D02*
X136779047Y-151372380D01*
X136779047Y-150800952D02*
X136826666Y-150753333D01*
X136921904Y-150705714D01*
X137064761Y-150705714D01*
X137160000Y-150753333D01*
X137207619Y-150848571D01*
X137207619Y-151372380D01*
X137445714Y-151467619D02*
X138207619Y-151467619D01*
X138588571Y-151372380D02*
X138493333Y-151324761D01*
X138445714Y-151277142D01*
X138398095Y-151181904D01*
X138398095Y-150896190D01*
X138445714Y-150800952D01*
X138493333Y-150753333D01*
X138588571Y-150705714D01*
X138731428Y-150705714D01*
X138826666Y-150753333D01*
X138874285Y-150800952D01*
X138921904Y-150896190D01*
X138921904Y-151181904D01*
X138874285Y-151277142D01*
X138826666Y-151324761D01*
X138731428Y-151372380D01*
X138588571Y-151372380D01*
X139779047Y-150705714D02*
X139779047Y-151372380D01*
X139350476Y-150705714D02*
X139350476Y-151229523D01*
X139398095Y-151324761D01*
X139493333Y-151372380D01*
X139636190Y-151372380D01*
X139731428Y-151324761D01*
X139779047Y-151277142D01*
X140112380Y-150705714D02*
X140493333Y-150705714D01*
X140255238Y-150372380D02*
X140255238Y-151229523D01*
X140302857Y-151324761D01*
X140398095Y-151372380D01*
X140493333Y-151372380D01*
G04 #@! TD*
M02*
