G04 #@! TF.GenerationSoftware,KiCad,Pcbnew,(5.0.0)*
G04 #@! TF.CreationDate,2019-10-17T23:20:27+01:00*
G04 #@! TF.ProjectId,dataVideo_interface,64617461566964656F5F696E74657266,rev?*
G04 #@! TF.SameCoordinates,Original*
G04 #@! TF.FileFunction,Soldermask,Bot*
G04 #@! TF.FilePolarity,Negative*
%FSLAX46Y46*%
G04 Gerber Fmt 4.6, Leading zero omitted, Abs format (unit mm)*
G04 Created by KiCad (PCBNEW (5.0.0)) date 10/17/19 23:20:27*
%MOMM*%
%LPD*%
G01*
G04 APERTURE LIST*
%ADD10C,3.600000*%
%ADD11R,1.750000X1.750000*%
%ADD12O,1.750000X1.750000*%
%ADD13R,2.100000X2.100000*%
%ADD14O,2.100000X2.100000*%
G04 APERTURE END LIST*
D10*
G04 #@! TO.C,REF\002A\002A*
X127000000Y-153000000D03*
G04 #@! TD*
D11*
G04 #@! TO.C,J1*
X118110000Y-93980000D03*
D12*
X120110000Y-93980000D03*
X118110000Y-95980000D03*
X120110000Y-95980000D03*
X118110000Y-97980000D03*
X120110000Y-97980000D03*
X118110000Y-99980000D03*
X120110000Y-99980000D03*
X118110000Y-101980000D03*
X120110000Y-101980000D03*
X118110000Y-103980000D03*
X120110000Y-103980000D03*
X118110000Y-105980000D03*
X120110000Y-105980000D03*
X118110000Y-107980000D03*
X120110000Y-107980000D03*
X118110000Y-109980000D03*
X120110000Y-109980000D03*
X118110000Y-111980000D03*
X120110000Y-111980000D03*
X118110000Y-113980000D03*
X120110000Y-113980000D03*
X118110000Y-115980000D03*
X120110000Y-115980000D03*
X118110000Y-117980000D03*
X120110000Y-117980000D03*
X118110000Y-119980000D03*
X120110000Y-119980000D03*
X118110000Y-121980000D03*
X120110000Y-121980000D03*
X118110000Y-123980000D03*
X120110000Y-123980000D03*
X118110000Y-125980000D03*
X120110000Y-125980000D03*
X118110000Y-127980000D03*
X120110000Y-127980000D03*
X118110000Y-129980000D03*
X120110000Y-129980000D03*
X118110000Y-131980000D03*
X120110000Y-131980000D03*
X118110000Y-133980000D03*
X120110000Y-133980000D03*
X118110000Y-135980000D03*
X120110000Y-135980000D03*
X118110000Y-137980000D03*
X120110000Y-137980000D03*
X118110000Y-139980000D03*
X120110000Y-139980000D03*
X118110000Y-141980000D03*
X120110000Y-141980000D03*
G04 #@! TD*
D13*
G04 #@! TO.C,J2*
X138430000Y-87630000D03*
D14*
X135890000Y-87630000D03*
X138430000Y-90170000D03*
X135890000Y-90170000D03*
X138430000Y-92710000D03*
X135890000Y-92710000D03*
X138430000Y-95250000D03*
X135890000Y-95250000D03*
X138430000Y-97790000D03*
X135890000Y-97790000D03*
X138430000Y-100330000D03*
X135890000Y-100330000D03*
X138430000Y-102870000D03*
X135890000Y-102870000D03*
X138430000Y-105410000D03*
X135890000Y-105410000D03*
X138430000Y-107950000D03*
X135890000Y-107950000D03*
X138430000Y-110490000D03*
X135890000Y-110490000D03*
X138430000Y-113030000D03*
X135890000Y-113030000D03*
X138430000Y-115570000D03*
X135890000Y-115570000D03*
X138430000Y-118110000D03*
X135890000Y-118110000D03*
X138430000Y-120650000D03*
X135890000Y-120650000D03*
X138430000Y-123190000D03*
X135890000Y-123190000D03*
X138430000Y-125730000D03*
X135890000Y-125730000D03*
X138430000Y-128270000D03*
X135890000Y-128270000D03*
X138430000Y-130810000D03*
X135890000Y-130810000D03*
X138430000Y-133350000D03*
X135890000Y-133350000D03*
X138430000Y-135890000D03*
X135890000Y-135890000D03*
X138430000Y-138430000D03*
X135890000Y-138430000D03*
X138430000Y-140970000D03*
X135890000Y-140970000D03*
X138430000Y-143510000D03*
X135890000Y-143510000D03*
X138430000Y-146050000D03*
X135890000Y-146050000D03*
X138430000Y-148590000D03*
X135890000Y-148590000D03*
G04 #@! TD*
D10*
G04 #@! TO.C,REF\002A\002A*
X127000000Y-83000000D03*
G04 #@! TD*
M02*
