G04 #@! TF.GenerationSoftware,KiCad,Pcbnew,(5.0.0)*
G04 #@! TF.CreationDate,2019-10-17T23:20:27+01:00*
G04 #@! TF.ProjectId,dataVideo_interface,64617461566964656F5F696E74657266,rev?*
G04 #@! TF.SameCoordinates,Original*
G04 #@! TF.FileFunction,Legend,Bot*
G04 #@! TF.FilePolarity,Positive*
%FSLAX46Y46*%
G04 Gerber Fmt 4.6, Leading zero omitted, Abs format (unit mm)*
G04 Created by KiCad (PCBNEW (5.0.0)) date 10/17/19 23:20:27*
%MOMM*%
%LPD*%
G01*
G04 APERTURE LIST*
%ADD10C,0.300000*%
%ADD11C,0.120000*%
%ADD12C,0.150000*%
G04 APERTURE END LIST*
D10*
X128921428Y-124285714D02*
X128921428Y-123285714D01*
X127421428Y-123928571D01*
X128278571Y-122500000D02*
X128350000Y-122642857D01*
X128421428Y-122714285D01*
X128564285Y-122785714D01*
X128635714Y-122785714D01*
X128778571Y-122714285D01*
X128850000Y-122642857D01*
X128921428Y-122500000D01*
X128921428Y-122214285D01*
X128850000Y-122071428D01*
X128778571Y-122000000D01*
X128635714Y-121928571D01*
X128564285Y-121928571D01*
X128421428Y-122000000D01*
X128350000Y-122071428D01*
X128278571Y-122214285D01*
X128278571Y-122500000D01*
X128207142Y-122642857D01*
X128135714Y-122714285D01*
X127992857Y-122785714D01*
X127707142Y-122785714D01*
X127564285Y-122714285D01*
X127492857Y-122642857D01*
X127421428Y-122500000D01*
X127421428Y-122214285D01*
X127492857Y-122071428D01*
X127564285Y-122000000D01*
X127707142Y-121928571D01*
X127992857Y-121928571D01*
X128135714Y-122000000D01*
X128207142Y-122071428D01*
X128278571Y-122214285D01*
X127564285Y-121285714D02*
X127492857Y-121214285D01*
X127421428Y-121285714D01*
X127492857Y-121357142D01*
X127564285Y-121285714D01*
X127421428Y-121285714D01*
X128921428Y-120285714D02*
X128921428Y-120142857D01*
X128850000Y-120000000D01*
X128778571Y-119928571D01*
X128635714Y-119857142D01*
X128350000Y-119785714D01*
X127992857Y-119785714D01*
X127707142Y-119857142D01*
X127564285Y-119928571D01*
X127492857Y-120000000D01*
X127421428Y-120142857D01*
X127421428Y-120285714D01*
X127492857Y-120428571D01*
X127564285Y-120500000D01*
X127707142Y-120571428D01*
X127992857Y-120642857D01*
X128350000Y-120642857D01*
X128635714Y-120571428D01*
X128778571Y-120500000D01*
X128850000Y-120428571D01*
X128921428Y-120285714D01*
X128921428Y-118857142D02*
X128921428Y-118714285D01*
X128850000Y-118571428D01*
X128778571Y-118500000D01*
X128635714Y-118428571D01*
X128350000Y-118357142D01*
X127992857Y-118357142D01*
X127707142Y-118428571D01*
X127564285Y-118500000D01*
X127492857Y-118571428D01*
X127421428Y-118714285D01*
X127421428Y-118857142D01*
X127492857Y-119000000D01*
X127564285Y-119071428D01*
X127707142Y-119142857D01*
X127992857Y-119214285D01*
X128350000Y-119214285D01*
X128635714Y-119142857D01*
X128778571Y-119071428D01*
X128850000Y-119000000D01*
X128921428Y-118857142D01*
X128921428Y-117428571D02*
X128921428Y-117285714D01*
X128850000Y-117142857D01*
X128778571Y-117071428D01*
X128635714Y-117000000D01*
X128350000Y-116928571D01*
X127992857Y-116928571D01*
X127707142Y-117000000D01*
X127564285Y-117071428D01*
X127492857Y-117142857D01*
X127421428Y-117285714D01*
X127421428Y-117428571D01*
X127492857Y-117571428D01*
X127564285Y-117642857D01*
X127707142Y-117714285D01*
X127992857Y-117785714D01*
X128350000Y-117785714D01*
X128635714Y-117714285D01*
X128778571Y-117642857D01*
X128850000Y-117571428D01*
X128921428Y-117428571D01*
X127421428Y-115142857D02*
X128421428Y-115142857D01*
X128278571Y-115142857D02*
X128350000Y-115071428D01*
X128421428Y-114928571D01*
X128421428Y-114714285D01*
X128350000Y-114571428D01*
X128207142Y-114500000D01*
X127421428Y-114500000D01*
X128207142Y-114500000D02*
X128350000Y-114428571D01*
X128421428Y-114285714D01*
X128421428Y-114071428D01*
X128350000Y-113928571D01*
X128207142Y-113857142D01*
X127421428Y-113857142D01*
X127421428Y-113142857D02*
X128421428Y-113142857D01*
X128278571Y-113142857D02*
X128350000Y-113071428D01*
X128421428Y-112928571D01*
X128421428Y-112714285D01*
X128350000Y-112571428D01*
X128207142Y-112500000D01*
X127421428Y-112500000D01*
X128207142Y-112500000D02*
X128350000Y-112428571D01*
X128421428Y-112285714D01*
X128421428Y-112071428D01*
X128350000Y-111928571D01*
X128207142Y-111857142D01*
X127421428Y-111857142D01*
X126000000Y-79000000D02*
X126000000Y-157000000D01*
X122000000Y-79000000D02*
X126586421Y-79000000D01*
X122000000Y-157000000D02*
X126586421Y-157000000D01*
X126000000Y-157000000D02*
X125413579Y-155873496D01*
X126000000Y-157000000D02*
X126586421Y-155873496D01*
X126000000Y-79000000D02*
X125413579Y-80126504D01*
X126000000Y-79000000D02*
X126586421Y-80126504D01*
X134785714Y-82754534D02*
X133857142Y-82754534D01*
X134357142Y-83325963D01*
X134142857Y-83325963D01*
X134000000Y-83397391D01*
X133928571Y-83468820D01*
X133857142Y-83611677D01*
X133857142Y-83968820D01*
X133928571Y-84111677D01*
X134000000Y-84183105D01*
X134142857Y-84254534D01*
X134571428Y-84254534D01*
X134714285Y-84183105D01*
X134785714Y-84111677D01*
X133142857Y-84254534D02*
X132857142Y-84254534D01*
X132714285Y-84183105D01*
X132642857Y-84111677D01*
X132500000Y-83897391D01*
X132428571Y-83611677D01*
X132428571Y-83040248D01*
X132500000Y-82897391D01*
X132571428Y-82825963D01*
X132714285Y-82754534D01*
X133000000Y-82754534D01*
X133142857Y-82825963D01*
X133214285Y-82897391D01*
X133285714Y-83040248D01*
X133285714Y-83397391D01*
X133214285Y-83540248D01*
X133142857Y-83611677D01*
X133000000Y-83683105D01*
X132714285Y-83683105D01*
X132571428Y-83611677D01*
X132500000Y-83540248D01*
X132428571Y-83397391D01*
X131785714Y-84111677D02*
X131714285Y-84183105D01*
X131785714Y-84254534D01*
X131857142Y-84183105D01*
X131785714Y-84111677D01*
X131785714Y-84254534D01*
X130785714Y-82754534D02*
X130642857Y-82754534D01*
X130500000Y-82825963D01*
X130428571Y-82897391D01*
X130357142Y-83040248D01*
X130285714Y-83325963D01*
X130285714Y-83683105D01*
X130357142Y-83968820D01*
X130428571Y-84111677D01*
X130500000Y-84183105D01*
X130642857Y-84254534D01*
X130785714Y-84254534D01*
X130928571Y-84183105D01*
X131000000Y-84111677D01*
X131071428Y-83968820D01*
X131142857Y-83683105D01*
X131142857Y-83325963D01*
X131071428Y-83040248D01*
X131000000Y-82897391D01*
X130928571Y-82825963D01*
X130785714Y-82754534D01*
X129357142Y-82754534D02*
X129214285Y-82754534D01*
X129071428Y-82825963D01*
X129000000Y-82897391D01*
X128928571Y-83040248D01*
X128857142Y-83325963D01*
X128857142Y-83683105D01*
X128928571Y-83968820D01*
X129000000Y-84111677D01*
X129071428Y-84183105D01*
X129214285Y-84254534D01*
X129357142Y-84254534D01*
X129500000Y-84183105D01*
X129571428Y-84111677D01*
X129642857Y-83968820D01*
X129714285Y-83683105D01*
X129714285Y-83325963D01*
X129642857Y-83040248D01*
X129571428Y-82897391D01*
X129500000Y-82825963D01*
X129357142Y-82754534D01*
X127928571Y-82754534D02*
X127785714Y-82754534D01*
X127642857Y-82825963D01*
X127571428Y-82897391D01*
X127500000Y-83040248D01*
X127428571Y-83325963D01*
X127428571Y-83683105D01*
X127500000Y-83968820D01*
X127571428Y-84111677D01*
X127642857Y-84183105D01*
X127785714Y-84254534D01*
X127928571Y-84254534D01*
X128071428Y-84183105D01*
X128142857Y-84111677D01*
X128214285Y-83968820D01*
X128285714Y-83683105D01*
X128285714Y-83325963D01*
X128214285Y-83040248D01*
X128142857Y-82897391D01*
X128071428Y-82825963D01*
X127928571Y-82754534D01*
X125642857Y-84254534D02*
X125642857Y-83254534D01*
X125642857Y-83397391D02*
X125571428Y-83325963D01*
X125428571Y-83254534D01*
X125214285Y-83254534D01*
X125071428Y-83325963D01*
X125000000Y-83468820D01*
X125000000Y-84254534D01*
X125000000Y-83468820D02*
X124928571Y-83325963D01*
X124785714Y-83254534D01*
X124571428Y-83254534D01*
X124428571Y-83325963D01*
X124357142Y-83468820D01*
X124357142Y-84254534D01*
X123642857Y-84254534D02*
X123642857Y-83254534D01*
X123642857Y-83397391D02*
X123571428Y-83325963D01*
X123428571Y-83254534D01*
X123214285Y-83254534D01*
X123071428Y-83325963D01*
X123000000Y-83468820D01*
X123000000Y-84254534D01*
X123000000Y-83468820D02*
X122928571Y-83325963D01*
X122785714Y-83254534D01*
X122571428Y-83254534D01*
X122428571Y-83325963D01*
X122357142Y-83468820D01*
X122357142Y-84254534D01*
X109000000Y-85675963D02*
X148000000Y-85675963D01*
X109000000Y-90675962D02*
X109000000Y-85089542D01*
X148000000Y-90675962D02*
X148000000Y-85089542D01*
X148000000Y-85675963D02*
X146873496Y-85089542D01*
X148000000Y-85675963D02*
X146873496Y-86262384D01*
X109000000Y-85675963D02*
X110126504Y-85089542D01*
X109000000Y-85675963D02*
X110126504Y-86262384D01*
D11*
G04 #@! TO.C,J2*
X139760000Y-149920000D02*
X134560000Y-149920000D01*
X139760000Y-88900000D02*
X139760000Y-149920000D01*
X134560000Y-86300000D02*
X134560000Y-149920000D01*
X139760000Y-88900000D02*
X137160000Y-88900000D01*
X137160000Y-88900000D02*
X137160000Y-86300000D01*
X137160000Y-86300000D02*
X134560000Y-86300000D01*
X139760000Y-87630000D02*
X139760000Y-86300000D01*
X139760000Y-86300000D02*
X138430000Y-86300000D01*
D12*
X137493333Y-84752380D02*
X137493333Y-85466666D01*
X137540952Y-85609523D01*
X137636190Y-85704761D01*
X137779047Y-85752380D01*
X137874285Y-85752380D01*
X137064761Y-84847619D02*
X137017142Y-84800000D01*
X136921904Y-84752380D01*
X136683809Y-84752380D01*
X136588571Y-84800000D01*
X136540952Y-84847619D01*
X136493333Y-84942857D01*
X136493333Y-85038095D01*
X136540952Y-85180952D01*
X137112380Y-85752380D01*
X136493333Y-85752380D01*
G04 #@! TD*
M02*
